<?xml version="1.0" encoding="UTF-8" standalone="no"?>
<svg
   xmlns:dc="http://purl.org/dc/elements/1.1/"
   xmlns:cc="http://creativecommons.org/ns#"
   xmlns:rdf="http://www.w3.org/1999/02/22-rdf-syntax-ns#"
   xmlns:svg="http://www.w3.org/2000/svg"
   xmlns="http://www.w3.org/2000/svg"
   xmlns:sodipodi="http://sodipodi.sourceforge.net/DTD/sodipodi-0.dtd"
   xmlns:inkscape="http://www.inkscape.org/namespaces/inkscape"
   width="60cm"
   height="8cm"
   viewBox="0 0 2125.9843 283.46456"
   id="svg2"
   version="1.1"
   inkscape:version="0.91 r13725"
   sodipodi:docname="p3.svg">
  <sodipodi:namedview
     pagecolor="#ffffff"
     bordercolor="#666666"
     borderopacity="1"
     objecttolerance="10"
     gridtolerance="10"
     guidetolerance="10"
     inkscape:pageopacity="0"
     inkscape:pageshadow="2"
     inkscape:window-width="1364"
     inkscape:window-height="750"
     id="namedview4245"
     showgrid="false"
     inkscape:snap-global="true"
     inkscape:snap-bbox="true"
     inkscape:bbox-paths="true"
     inkscape:bbox-nodes="true"
     inkscape:snap-bbox-edge-midpoints="true"
     inkscape:snap-bbox-midpoints="true"
     inkscape:zoom="0.21419574"
     inkscape:cx="1384.3933"
     inkscape:cy="-506.23868"
     inkscape:window-x="0"
     inkscape:window-y="16"
     inkscape:window-maximized="0"
     inkscape:current-layer="svg2">
    <sodipodi:guide
       position="0,0"
       orientation="0,2125.9843"
       id="guide4249" />
    <sodipodi:guide
       position="2125.9844,0"
       orientation="-283.46457,0"
       id="guide4251" />
    <sodipodi:guide
       position="2125.9844,283.46456"
       orientation="0,-2125.9843"
       id="guide4253" />
    <sodipodi:guide
       position="0,283.46456"
       orientation="283.46457,0"
       id="guide4255" />
  </sodipodi:namedview>
  <defs
     id="defs4" />
  <metadata
     id="metadata7">
    <rdf:RDF>
      <cc:Work
         rdf:about="">
        <dc:format>image/svg+xml</dc:format>
        <dc:type
           rdf:resource="http://purl.org/dc/dcmitype/StillImage" />
        <dc:title />
      </cc:Work>
    </rdf:RDF>
  </metadata>
  <g
     id="g4258">
    <path
       id="rect4247"
       d="m 0,-1.7421455e-5 2125.9844,0 0,283.464597421455 -2125.9844,0 z"
       style="color:#000000;clip-rule:nonzero;display:inline;overflow:visible;visibility:visible;opacity:1;isolation:auto;mix-blend-mode:normal;color-interpolation:sRGB;color-interpolation-filters:linearRGB;solid-color:#000000;solid-opacity:1;fill:#ffffff;fill-opacity:1;fill-rule:evenodd;stroke:none;stroke-width:1px;stroke-linecap:butt;stroke-linejoin:miter;stroke-miterlimit:4;stroke-dasharray:none;stroke-dashoffset:0;stroke-opacity:1;color-rendering:auto;image-rendering:auto;shape-rendering:auto;text-rendering:auto;enable-background:accumulate" />
  </g>
  <g
     transform="translate(0,-768.89778)"
     id="layer1">
    <flowRoot
       style="fill:black;stroke:none;stroke-opacity:1;stroke-width:1px;stroke-linejoin:miter;stroke-linecap:butt;fill-opacity:1;font-family:Ubuntu;font-style:normal;font-weight:normal;font-size:25px;line-height:100%;letter-spacing:0px;word-spacing:0px;-inkscape-font-specification:'Ubuntu, Normal';font-stretch:normal;font-variant:normal;text-anchor:start;text-align:start;writing-mode:lr"
       id="flowRoot6877"
       xml:space="preserve"><flowRegion
         id="flowRegion6879"><rect
           y="532.03601"
           x="834.28571"
           height="277.14285"
           width="848.57141"
           id="rect6881" /></flowRegion><flowPara
         id="flowPara6883" /></flowRoot>    <flowRoot
       xml:space="preserve"
       id="flowRoot7400"
       style="font-style:normal;font-variant:normal;font-weight:normal;font-stretch:normal;font-size:20.68664551px;line-height:100%;font-family:Ubuntu;-inkscape-font-specification:'Ubuntu, Normal';text-align:start;letter-spacing:0px;word-spacing:0px;writing-mode:lr-tb;text-anchor:start;fill:#000000;fill-opacity:1;stroke:none;stroke-width:1px;stroke-linecap:butt;stroke-linejoin:miter;stroke-opacity:1"
       transform="matrix(0.85913397,0,0,0.85913397,659.26479,2293.718)"><flowRegion
         id="flowRegion7402"><rect
           id="rect7404"
           width="377.81177"
           height="157.14294"
           x="1006.1118"
           y="1584.1644" /></flowRegion><flowPara
         id="flowPara7406"
         style="font-style:normal;font-variant:normal;font-weight:normal;font-stretch:normal;font-size:62.05994415px;font-family:Jolly;-inkscape-font-specification:Jolly"> этаж</flowPara></flowRoot>    <g
       style="fill:#1a1a1a"
       transform="matrix(0.95744025,0,0,1,80.207857,-1.4279968)"
       id="g7438">
      <g
         transform="matrix(0.85913397,0,0,0.85913397,1006.2086,-425.11908)"
         style="font-style:normal;font-variant:normal;font-weight:normal;font-stretch:normal;font-size:20.68664551px;line-height:100%;font-family:Ubuntu;-inkscape-font-specification:'Ubuntu, Normal';text-align:start;letter-spacing:0px;word-spacing:0px;writing-mode:lr-tb;text-anchor:start;fill:#1a1a1a;fill-opacity:1;stroke:none;stroke-width:1px;stroke-linecap:butt;stroke-linejoin:miter;stroke-opacity:1"
         id="flowRoot6995" />
      <g
         style="font-style:normal;font-variant:normal;font-weight:normal;font-stretch:normal;font-size:35.19487px;line-height:100%;font-family:Ubuntu;-inkscape-font-specification:'Ubuntu, Normal';text-align:start;letter-spacing:0px;word-spacing:0px;writing-mode:lr-tb;text-anchor:start;fill:#1a1a1a;fill-opacity:1;stroke:none;stroke-width:1px;stroke-linecap:butt;stroke-linejoin:miter;stroke-opacity:1"
         id="text7363"
         transform="matrix(0.89226377,0,0,0.89226377,210.13123,98.655779)" />
    </g>
    <path
       id="path7509"
       d="m 1952.8965,803.24346 a 104.2373,103.81608 0 0 0 -104.2363,103.81446 104.2373,103.81608 0 0 0 104.2363,103.81638 104.2373,103.81608 0 0 0 0.082,0 103.98472,103.56452 0 0 1 -103.8144,-103.55858 103.98472,103.56452 0 0 1 103.9863,-103.5625 103.98472,103.56452 0 0 1 103.9766,103.45703 104.2373,103.81608 0 0 0 0.01,-0.14843 104.2373,103.81608 0 0 0 -104.2363,-103.81446 z"
       style="color:#000000;clip-rule:nonzero;display:inline;overflow:visible;visibility:visible;opacity:1;isolation:auto;mix-blend-mode:normal;color-interpolation:sRGB;color-interpolation-filters:linearRGB;solid-color:#000000;solid-opacity:1;fill:#617d27;fill-opacity:0.83529412;fill-rule:evenodd;stroke:none;stroke-width:1px;stroke-linecap:butt;stroke-linejoin:miter;stroke-miterlimit:4;stroke-dasharray:none;stroke-dashoffset:0;stroke-opacity:1;color-rendering:auto;image-rendering:auto;shape-rendering:auto;text-rendering:auto;enable-background:accumulate" />
    <path
       id="rect7436"
       d="m 1164.4344,866.28461 632.8439,0 0,82.88361 -632.8439,0 z"
       style="color:#000000;clip-rule:nonzero;display:inline;overflow:visible;visibility:visible;opacity:1;isolation:auto;mix-blend-mode:normal;color-interpolation:sRGB;color-interpolation-filters:linearRGB;solid-color:#000000;solid-opacity:1;fill:#ffffff;fill-opacity:1;fill-rule:evenodd;stroke:none;stroke-width:1px;stroke-linecap:butt;stroke-linejoin:miter;stroke-miterlimit:4;stroke-dasharray:none;stroke-dashoffset:0;stroke-opacity:1;color-rendering:auto;image-rendering:auto;shape-rendering:auto;text-rendering:auto;enable-background:accumulate" />
    <path
       id="rect7367"
       d="m 1126.0942,768.89776 0,283.46484 999.8902,0 0,-283.46484 -999.8902,0 z m 826.8041,34.3457 a 104.23732,103.8161 0 0 1 104.2356,103.81446 104.23732,103.8161 0 0 1 -104.2356,103.81638 104.23732,103.8161 0 0 1 -104.2377,-103.81638 104.23732,103.8161 0 0 1 104.2377,-103.81446 z"
       style="color:#000000;clip-rule:nonzero;display:inline;overflow:visible;visibility:visible;opacity:1;isolation:auto;mix-blend-mode:normal;color-interpolation:sRGB;color-interpolation-filters:linearRGB;solid-color:#000000;solid-opacity:1;fill:#5e890a;fill-opacity:1;fill-rule:evenodd;stroke:none;stroke-width:1px;stroke-linecap:butt;stroke-linejoin:miter;stroke-miterlimit:4;stroke-dasharray:none;stroke-dashoffset:0;stroke-opacity:1;color-rendering:auto;image-rendering:auto;shape-rendering:auto;text-rendering:auto;enable-background:accumulate" />
    <path
       id="path14"
       style="fill:#5e890a;fill-opacity:1;fill-rule:evenodd;stroke:none"
       d="m 198.1228,804.55401 c 26.63874,-4.34907 52.55994,1.8695 73.4962,15.57381 -2.74337,1.94457 -5.23153,4.15664 -7.44726,6.58054 -19.61328,-13.02011 -43.99326,-18.96186 -69.05541,-14.87022 -45.38161,7.40866 -78.20082,45.28202 -80.98852,89.32104 4.38404,49.35571 44.37937,81.04418 86.54688,44.416 30.64213,25.55576 73.27009,-6.21638 86.74133,20.75044 1.62708,-2.11833 3.1676,-4.30256 4.61454,-6.54832 1.0577,-1.64211 2.06175,-3.30052 3.01508,-4.97486 -19.10393,-17.60847 -69.23134,8.94347 -91.43221,-9.81589 29.59303,8.3305 80.86603,-16.741 101.44053,-15.47092 3.02754,-13.07283 3.001,-26.70006 -0.49196,-40.47595 l 9.75364,-10.29155 c 9.58135,27.75135 2.58905,62.68689 -13.68583,86.62195 -15.44875,22.7223 -39.83293,39.30012 -69.08413,44.07542 -23.56469,3.8471 -46.56509,-0.5771 -66.05314,-11.13389 7.0432,-4.29543 13.84162,-12.22679 17.27963,-26.31247 -11.91645,17.49917 -31.12419,17.46695 -41.11328,8.59305 -14.97602,-14.87589 -25.57076,-34.4434 -29.2296,-56.87385 -2.37299,-14.54687 -1.59285,-28.87917 1.82724,-42.30408 l 0.0115,-0.085 -0.003,0.0514 c 9.89095,-38.77671 41.85423,-69.96956 83.85769,-76.82674 z" />
    <path
       id="path16"
       style="fill:#ff352d;fill-opacity:1;fill-rule:evenodd;stroke:none"
       d="m 196.04091,900.04216 c 4.91554,14.90866 2.87942,28.7197 -5.36374,32.32928 -9.30105,4.07077 -22.97826,-6.38519 -30.55076,-23.35596 -7.57158,-16.97059 -6.17134,-34.02852 3.12896,-38.10002 5.74018,-2.51325 13.14589,0.5099 19.75628,7.1796 -13.56498,4.00376 -24.64673,7.42952 -15.59029,27.72645 4.29249,9.61925 12.04516,15.54672 17.3168,13.23816 4.1874,-1.8338 5.54922,-8.31401 3.77912,-15.72413 z m 148.67443,-78.42383 c -28.52728,2.11338 -63.79895,1.62271 -88.66869,-0.62305 -24.86918,-2.24631 -22.22668,27.21582 -14.18143,45.36147 8.04432,18.14638 28.15616,40.00908 43.31528,20.35076 15.15839,-19.65704 38.66082,-45.71409 59.53484,-65.08918 z m -12.75243,7.15892 -66.19759,39.75513 c -9.26241,5.56203 -4.68669,13.4663 6.26562,5.24455 z m -2.30434,-2.76994 -72.39841,25.88477 c -15.12964,5.4097 -16.09726,-19.01458 4.30402,-18.95032 24.8485,0.0773 42.14956,-4.16451 68.09439,-6.93445 z m -93.27609,42.54796 c 4.86683,10.90581 3.44718,22.09504 -3.16962,24.99148 -6.61698,2.89792 -15.92589,-3.59529 -20.79199,-14.50183 -4.86611,-10.90526 -3.44718,-22.0943 3.16978,-24.99222 6.61681,-2.89645 15.92573,3.59676 20.79183,14.50257 z m -35.84512,23.40301 -28.2206,12.39432 c -0.0872,-0.18382 -0.17229,-0.37057 -0.25595,-0.55787 -1.79665,-4.0272 -2.53615,-7.98007 -2.27927,-11.11343 0.0994,-1.20783 0.3118,-2.20621 0.62928,-2.89425 l 25.04164,-10.99809 c 10.81848,-4.75113 15.8435,8.44493 5.0849,13.16932 z m -78.50457,34.43552 c -1.7666,-3.65461 -3.62677,-9.6771 -4.34833,-13.47196 l 33.6045,-14.73784 c 0.87388,4.1874 2.26845,8.53427 4.19728,12.85844 l 0.26548,0.5857 z" />
    <path
       id="path18"
       style="fill:#ff352d;fill-opacity:1;fill-rule:nonzero;stroke:none"
       d="m 356.00893,874.94833 0,74.3558 -9.77232,0 0,-82.65132 9.77232,0 0,0.0509 38.06304,0 0,-0.0509 9.77285,0 0,82.65132 -9.77285,0 0,-74.3558 z" />
    <path
       id="path20"
       style="fill:#ff352d;fill-opacity:1;fill-rule:nonzero;stroke:none"
       d="m 430.69593,913.54269 0,35.76144 -10.11559,0 0,-82.65132 18.57406,0 c 21.79388,0 32.69052,7.80631 32.69052,23.41949 0,15.64686 -11.04899,23.47039 -33.1475,23.47039 z m 0,-38.54364 0,29.9949 7.88706,0 c 15.46872,0 23.20345,-4.97339 23.20345,-14.92165 0,-10.04896 -7.73473,-15.07325 -23.20345,-15.07325 z" />
    <path
       id="path22"
       style="fill:#ff352d;fill-opacity:1;fill-rule:nonzero;stroke:none"
       d="m 491.47322,907.67527 c 0.30465,22.8294 8.85834,34.24383 25.66085,34.24383 16.65018,0 25.24176,-11.41443 25.77528,-34.24383 -0.53352,-22.79589 -9.1251,-34.19384 -25.77528,-34.19384 -16.80251,0 -25.3562,11.39795 -25.66085,34.19384 z m -10.74506,0 c 1.02914,-28.56243 13.20246,-42.84327 36.52034,-42.84327 23.20345,0 35.26234,14.28084 36.17631,42.84327 -0.91397,28.49451 -12.97286,42.74167 -36.17631,42.74167 -23.31788,0 -35.4912,-14.24716 -36.52034,-42.74167 z" />
    <path
       id="path24"
       style="fill:#ff352d;fill-opacity:1;fill-rule:nonzero;stroke:none"
       d="m 599.66162,887.29028 c -18.78444,1.14649 -28.17629,8.00862 -28.17629,20.58731 0,12.61163 9.39185,19.54187 28.17629,20.78907 z m 9.77231,-0.0507 0,41.4271 c 18.82235,-0.944 28.23342,-7.87406 28.23342,-20.78907 0,-12.81468 -9.41107,-19.69329 -28.23342,-20.63803 z m -9.77231,-8.44712 0,-12.13963 9.77231,0 0,12.08892 c 25.68026,1.28161 38.52058,11.02737 38.52058,29.23674 0,18.34466 -12.84032,28.1069 -38.52058,29.2869 l 0,12.03876 -9.77231,0 0,-12.08874 c -25.64236,-1.68642 -38.46345,-11.43163 -38.46345,-29.23692 0,-17.73736 12.82109,-27.46592 38.46345,-29.18603 z" />
    <path
       id="path26"
       style="fill:#5e890a;fill-opacity:1;fill-rule:nonzero;stroke:none"
       d="m 714.8839,866.28462 c -8.22467,0.0335 -15.34001,3.64234 -21.3484,10.82927 l 0.10454,0.0494 -27.0298,35.03476 0,-45.50739 -6.16786,0 0,82.47758 6.16786,0 0,-27.05269 16.89699,-21.86324 21.58861,37.7289 c 4.18814,6.64773 9.58282,10.27159 16.15823,10.93949 l 0.30686,-6.21198 c -2.95797,-0.0222 -7.65472,-2.49384 -10.94243,-7.37222 l -23.03757,-40.37232 11.58745,-15.05183 c 4.21962,-4.81393 9.45758,-7.23911 15.71552,-7.27335 z" />
    <path
       id="path28"
       style="fill:#5e890a;fill-opacity:1;fill-rule:nonzero;stroke:none"
       d="m 741.3844,919.02177 -9.76225,30.14724 -6.49028,0 26.6585,-82.04475 7.50953,0 26.6585,82.04475 -6.43663,0 -9.81589,-30.14724 z m 1.87738,-5.8167 24.56672,0 -12.28337,-37.83545 z" />
    <path
       id="path30"
       style="fill:#5e890a;fill-opacity:1;fill-rule:nonzero;stroke:none"
       d="m 805.5087,912.49707 0,36.67194 -6.49028,0 0,-82.04475 16.25269,0 c 19.91868,0 29.87755,7.55365 29.87755,22.66132 0,15.14045 -10.10187,22.71149 -30.30597,22.71149 z m 0,-39.45468 0,33.33406 9.2267,0 c 15.98448,0 23.97662,-5.53053 23.97662,-16.59087 0,-11.16194 -7.99214,-16.74319 -23.97662,-16.74319 z" />
    <path
       id="path32"
       style="fill:#5e890a;fill-opacity:1;fill-rule:nonzero;stroke:none"
       d="m 855.69983,867.12426 6.16861,0 0,37.22889 36.52876,0 0,-37.22889 6.1686,0 0,82.04475 -6.1686,0 0,-38.99917 -36.52876,0 0,38.99917 -6.16861,0 z" />
    <path
       id="path34"
       style="fill:#5e890a;fill-opacity:1;fill-rule:nonzero;stroke:none"
       d="m 979.73903,867.12426 0,82.04475 -6.1685,0 0,-70.25848 -46.88113,70.25848 -5.04206,0 0,-82.04475 6.1684,0 0,69.34871 45.75479,-69.34871 z" />
    <path
       id="path36"
       style="fill:#5e890a;fill-opacity:1;fill-rule:nonzero;stroke:none"
       d="m 1019.5434,867.78282 c -8.5108,0 -16.4129,2.17783 -23.71057,6.51262 l 0,6.46373 0.1588,0.27317 c 6.54387,-4.55211 13.89467,-6.82423 22.04777,-6.82423 2.7534,0 5.5226,0.26968 8.3118,0.80888 11.5861,2.22561 17.3834,7.68895 17.3834,16.38929 0,6.6426 -4.1174,11.46221 -12.3419,14.46393 l -22.0421,0 0,5.81798 23.0104,0 c 7.581,3.00099 11.3736,7.68603 11.3736,14.05913 0,8.73384 -5.7973,14.21787 -17.3834,16.44366 -2.7892,0.5392 -5.5584,0.8087 -8.3118,0.8087 -8.1531,0 -15.5039,-2.27706 -22.04777,-6.8299 l -0.1588,0.2739 0,6.46318 c 7.29767,4.3346 15.19977,6.51316 23.71057,6.51316 3.6116,0 7.31,-0.41982 11.1004,-1.26312 13.3741,-2.93362 20.0632,-10.33714 20.0632,-22.20727 l 0,-0.45405 c -0.1073,-7.18254 -3.6332,-12.81121 -10.5706,-16.89132 6.9374,-4.08084 10.4633,-9.73002 10.5706,-16.94624 l 0,-0.45424 c 0,-11.83626 -6.6891,-19.22422 -20.0632,-22.15783 -3.7904,-0.84331 -7.4888,-1.26313 -11.1004,-1.26313 z" />
    <path
       d="m 1247.7238,923.33569 -12.4321,-23.29458 -9.8892,13.49955 0,16.70177 -3.6104,0 0,-50.92158 3.6104,0 0,28.09792 15.8227,-21.63069 -0.063,-0.0314 q 5.2742,-6.6556 12.4949,-6.68699 l 0,3.92428 q -5.494,0.0314 -9.1985,4.48939 l -6.7812,9.29272 13.2798,24.92709 q 2.8883,4.52079 7.4091,4.55218 l 0,3.92427 q -6.5928,-0.0625 -10.6427,-6.84394 z"
       style="font-style:normal;font-variant:normal;font-weight:normal;font-stretch:normal;font-size:44.22537231px;line-height:100%;font-family:Jolly;-inkscape-font-specification:Jolly;text-align:start;letter-spacing:0px;word-spacing:0px;writing-mode:lr-tb;text-anchor:start;fill:#ffffff;fill-opacity:1;stroke:none;stroke-width:1px;stroke-linecap:butt;stroke-linejoin:miter;stroke-opacity:1"
       id="path7552" />
    <path
       d="m 1265.5244,916.33475 q 0.5965,9.82643 10.0776,9.82643 l 9.2299,0 0,-10.86243 q -1.5697,-9.22993 -10.2031,-9.22993 -9.1358,0.25114 -9.1358,9.13574 0,0.56509 0.031,1.13019 z m 23.012,13.90768 -12.5891,0 q -13.7193,0 -14.1588,-13.62513 l 0,-0.87903 q 0,-13.02866 12.7775,-13.02866 7.1265,0 10.2973,3.86152 l -0.031,-2.54295 q -1.193,-9.48108 -10.109,-9.73224 -2.7627,0.0314 -4.7405,1.38135 l -3.0453,-2.38596 q 3.0767,-2.32319 7.8172,-2.35458 11.9612,0.28255 13.7821,12.24378 l 0,27.0619 z"
       style="font-style:normal;font-variant:normal;font-weight:normal;font-stretch:normal;font-size:44.22537231px;line-height:100%;font-family:Jolly;-inkscape-font-specification:Jolly;text-align:start;letter-spacing:0px;word-spacing:0px;writing-mode:lr-tb;text-anchor:start;fill:#ffffff;fill-opacity:1;stroke:none;stroke-width:1px;stroke-linecap:butt;stroke-linejoin:miter;stroke-opacity:1"
       id="path7554" />
    <path
       d="m 1320.6842,908.29781 q -0.6279,-14.15884 -11.2077,-14.15884 -3.8302,0 -8.9788,1.85227 l 0,21.85045 q 1.6011,9.22996 10.2345,9.22996 l 0.5651,0 q 9.4183,0 9.4183,-16.10532 0,-1.28716 -0.031,-2.66852 z m -23.9852,-16.5762 3.9243,0 q 4.5207,-1.44415 8.1625,-1.44415 14.0332,0 15.132,17.7692 0.094,1.91506 0.094,3.70453 0,18.67965 -13.217,18.67965 -7.1265,0 -10.2973,-3.86154 l 0,15.94828 -3.7987,0 0,-50.79597 z"
       style="font-style:normal;font-variant:normal;font-weight:normal;font-stretch:normal;font-size:44.22537231px;line-height:100%;font-family:Jolly;-inkscape-font-specification:Jolly;text-align:start;letter-spacing:0px;word-spacing:0px;writing-mode:lr-tb;text-anchor:start;fill:#ffffff;fill-opacity:1;stroke:none;stroke-width:1px;stroke-linecap:butt;stroke-linejoin:miter;stroke-opacity:1"
       id="path7556" />
    <path
       d="m 1357.0075,930.24243 -3.7988,0 0,-19.05634 -19.904,0 0,19.05634 -3.7987,0 0,-38.52082 3.7987,0 0,15.69716 19.904,0 0,-15.69716 3.7988,0 0,38.52082 z"
       style="font-style:normal;font-variant:normal;font-weight:normal;font-stretch:normal;font-size:44.22537231px;line-height:100%;font-family:Jolly;-inkscape-font-specification:Jolly;text-align:start;letter-spacing:0px;word-spacing:0px;writing-mode:lr-tb;text-anchor:start;fill:#ffffff;fill-opacity:1;stroke:none;stroke-width:1px;stroke-linecap:butt;stroke-linejoin:miter;stroke-opacity:1"
       id="path7558" />
    <path
       d="m 1366.3002,930.24243 0,0.0945 -3.7987,0 0,-38.55223 3.7987,0 0,31.58268 18.3343,-31.58268 4.3638,0 0,38.55223 -3.7987,0 0,-32.02221 -18.5227,31.92801 -0.3767,0 z"
       style="font-style:normal;font-variant:normal;font-weight:normal;font-stretch:normal;font-size:44.22537231px;line-height:100%;font-family:Jolly;-inkscape-font-specification:Jolly;text-align:start;letter-spacing:0px;word-spacing:0px;writing-mode:lr-tb;text-anchor:start;fill:#ffffff;fill-opacity:1;stroke:none;stroke-width:1px;stroke-linecap:butt;stroke-linejoin:miter;stroke-opacity:1"
       id="path7560" />
    <path
       d="m 1401.1479,907.70132 -0.031,0 q 1.9464,-0.0314 3.3592,-0.0314 2.072,0 2.9824,0.0628 1.9151,-0.0628 2.9511,-0.43951 4.458,-1.53833 4.458,-5.99631 0,-4.42661 -4.458,-5.99633 -1.3186,-0.4709 -2.8569,-0.4709 -3.5162,0 -7.88,2.32317 l -1.6639,-3.54758 q 5.4313,-2.41736 9.8265,-2.41736 3.108,0 5.5568,1.28717 5.9021,3.10804 5.9021,8.97878 0,5.36842 -4.7406,8.44508 4.772,3.86149 4.772,9.76362 l 0,0.40813 q -0.157,6.68699 -7.2835,9.60665 -2.6685,1.09879 -5.8079,1.09879 -5.3057,0 -11.7415,-2.9825 l 2.1976,-2.98239 q 4.4266,2.35463 8.602,2.35463 1.8209,0 3.579,-0.47098 5.8707,-1.53833 6.0277,-6.78117 l 0,-0.34534 q 0,-4.92891 -4.2383,-7.18929 -1.4127,-0.75347 -4.3324,-0.91044 -0.6279,0 -1.3185,-0.0314 l -3.8615,0 0,-3.73592 z"
       style="font-style:normal;font-variant:normal;font-weight:normal;font-stretch:normal;font-size:44.22537231px;line-height:100%;font-family:Jolly;-inkscape-font-specification:Jolly;text-align:start;letter-spacing:0px;word-spacing:0px;writing-mode:lr-tb;text-anchor:start;fill:#ffffff;fill-opacity:1;stroke:none;stroke-width:1px;stroke-linecap:butt;stroke-linejoin:miter;stroke-opacity:1"
       id="path7562" />
    <path
       d="m 1427.6761,907.41877 7.1893,0.0628 q 11.3333,0.65927 11.4903,10.92521 l 0,0.40813 q -0.157,8.09972 -6.8126,11.08222 -2.6999,0.34529 -5.9021,0.34529 l -9.7636,0 0,-38.5208 3.7987,0 0,15.69716 z m 0,4.30102 0,14.81812 8.3195,0 0,0.0314 q 0.2825,-0.0628 0.5337,-0.1256 5.6823,-1.47554 5.8393,-7.7858 l 0,-0.40813 q 0,-6.0591 -8.3195,-6.53002 l -6.373,0 z m 27.4072,18.61684 -3.7987,0 0,-38.55223 3.7987,0 0,38.55223 z"
       style="font-style:normal;font-variant:normal;font-weight:normal;font-stretch:normal;font-size:44.22537231px;line-height:100%;font-family:Jolly;-inkscape-font-specification:Jolly;text-align:start;letter-spacing:0px;word-spacing:0px;writing-mode:lr-tb;text-anchor:start;fill:#ffffff;fill-opacity:1;stroke:none;stroke-width:1px;stroke-linecap:butt;stroke-linejoin:miter;stroke-opacity:1"
       id="path7564" />
    <path
       d="m 1490.2764,930.24243 0,0.0945 -3.7988,0 0,-38.55223 3.7988,0 0,31.58268 18.3342,-31.58268 4.3638,0 0,38.55223 -3.7987,0 0,-32.02221 -18.5226,31.92801 -0.3767,0 z"
       style="font-style:normal;font-variant:normal;font-weight:normal;font-stretch:normal;font-size:44.22537231px;line-height:100%;font-family:Jolly;-inkscape-font-specification:Jolly;text-align:start;letter-spacing:0px;word-spacing:0px;writing-mode:lr-tb;text-anchor:start;fill:#ffffff;fill-opacity:1;stroke:none;stroke-width:1px;stroke-linecap:butt;stroke-linejoin:miter;stroke-opacity:1"
       id="path7566" />
    <path
       d="m 1543.5839,930.24243 0,-38.52082 3.7987,0 0,34.75351 16.6076,0 0,-34.75351 3.9557,0 0,34.75351 16.6076,0 0,-34.75351 3.7987,0 0,38.52082 -44.7683,0 z"
       style="font-style:normal;font-variant:normal;font-weight:normal;font-stretch:normal;font-size:44.22537231px;line-height:100%;font-family:Jolly;-inkscape-font-specification:Jolly;text-align:start;letter-spacing:0px;word-spacing:0px;writing-mode:lr-tb;text-anchor:start;fill:#ffffff;fill-opacity:1;stroke:none;stroke-width:1px;stroke-linecap:butt;stroke-linejoin:miter;stroke-opacity:1"
       id="path7568" />
    <path
       d="m 1606.1842,895.48893 0,34.8477 -3.7987,0 0,-34.8477 -11.0508,0 0,-3.79872 25.9945,0 0,3.79872 -11.145,0 z"
       style="font-style:normal;font-variant:normal;font-weight:normal;font-stretch:normal;font-size:44.22537231px;line-height:100%;font-family:Jolly;-inkscape-font-specification:Jolly;text-align:start;letter-spacing:0px;word-spacing:0px;writing-mode:lr-tb;text-anchor:start;fill:#ffffff;fill-opacity:1;stroke:none;stroke-width:1px;stroke-linecap:butt;stroke-linejoin:miter;stroke-opacity:1"
       id="path7570" />
    <path
       d="m 1635.0984,927.29132 q 10.6113,0 10.9252,-16.79591 -0.7535,-16.13668 -10.9252,-16.13668 -10.1718,0 -11.0508,16.13668 0.3767,16.79591 11.0508,16.79591 z m 0,-36.98245 q 13.5623,0 14.7867,19.99817 -0.5023,20.7203 -14.7867,20.7203 -14.41,0 -14.7868,-20.7203 1.1616,-19.99817 14.7868,-19.99817 z"
       style="font-style:normal;font-variant:normal;font-weight:normal;font-stretch:normal;font-size:44.22537231px;line-height:100%;font-family:Jolly;-inkscape-font-specification:Jolly;text-align:start;letter-spacing:0px;word-spacing:0px;writing-mode:lr-tb;text-anchor:start;fill:#ffffff;fill-opacity:1;stroke:none;stroke-width:1px;stroke-linecap:butt;stroke-linejoin:miter;stroke-opacity:1"
       id="path7572" />
    <path
       d="m 1680.934,908.29781 q -0.6278,-14.15884 -11.2077,-14.15884 -3.8301,0 -8.9788,1.85227 l 0,21.85045 q 1.6011,9.22996 10.2345,9.22996 l 0.5651,0 q 9.4183,0 9.4183,-16.10532 0,-1.28716 -0.031,-2.66852 z m -23.9852,-16.5762 3.9243,0 q 4.5208,-1.44415 8.1625,-1.44415 14.0333,0 15.1321,17.7692 0.094,1.91506 0.094,3.70453 0,18.67965 -13.217,18.67965 -7.1265,0 -10.2974,-3.86154 l 0,15.94828 -3.7987,0 0,-50.79597 z"
       style="font-style:normal;font-variant:normal;font-weight:normal;font-stretch:normal;font-size:44.22537231px;line-height:100%;font-family:Jolly;-inkscape-font-specification:Jolly;text-align:start;letter-spacing:0px;word-spacing:0px;writing-mode:lr-tb;text-anchor:start;fill:#ffffff;fill-opacity:1;stroke:none;stroke-width:1px;stroke-linecap:butt;stroke-linejoin:miter;stroke-opacity:1"
       id="path7574" />
    <path
       d="m 1693.5546,907.41877 7.1893,0.0628 q 11.3333,0.65927 11.4903,10.92521 l 0,0.40813 q -0.157,8.09972 -6.8126,11.08222 -2.6999,0.34529 -5.9021,0.34529 l -9.7636,0 0,-38.5208 3.7987,0 0,15.69716 z m 0,4.30102 0,14.81812 8.3195,0 0,0.0314 q 0.2825,-0.0628 0.5337,-0.1256 5.6824,-1.47554 5.8393,-7.7858 l 0,-0.40813 q 0,-6.0591 -8.3195,-6.53002 l -6.373,0 z m 27.4072,18.61684 -3.7987,0 0,-38.55223 3.7987,0 0,38.55223 z"
       style="font-style:normal;font-variant:normal;font-weight:normal;font-stretch:normal;font-size:44.22537231px;line-height:100%;font-family:Jolly;-inkscape-font-specification:Jolly;text-align:start;letter-spacing:0px;word-spacing:0px;writing-mode:lr-tb;text-anchor:start;fill:#ffffff;fill-opacity:1;stroke:none;stroke-width:1px;stroke-linecap:butt;stroke-linejoin:miter;stroke-opacity:1"
       id="path7576" />
    <path
       style="font-style:normal;font-variant:normal;font-weight:normal;font-stretch:normal;font-size:62.05994415px;line-height:100%;font-family:Jolly;-inkscape-font-specification:Jolly;text-align:start;letter-spacing:0px;word-spacing:0px;writing-mode:lr-tb;text-anchor:start;fill:#e30016;fill-opacity:1;stroke:none;stroke-width:1px;stroke-linecap:butt;stroke-linejoin:miter;stroke-opacity:1"
       d="m 1951.2465,843.71802 c -12.6722,0.68124 -19.0092,8.62941 -19.0092,23.84373 0,0.74612 0.033,1.91409 0.095,3.50365 l 7.7339,0 c 0.3105,-12.48937 3.8964,-18.94561 10.7605,-19.36733 6.1497,0 9.6139,4.20258 10.3904,12.60452 0,7.33142 -4.4257,14.56517 -13.2777,21.70195 -10.3427,8.33705 -15.7163,21.02019 -16.1202,38.05114 l 41.6512,0 0,-8.12639 -33.1253,0 c 0.6832,-9.31025 5.4982,-17.761 14.4432,-25.35194 9.6595,-8.07754 14.5823,-16.80321 14.7687,-26.17835 -1.3355,-13.55989 -7.4394,-20.4539 -18.3102,-20.68098 z m -40.2842,96.31842 c -0.3515,0 -0.7098,0.0157 -1.0761,0.0465 -3.1347,0.26006 -5.3695,1.98985 -6.7025,5.18746 l 2.6153,0 c 0.9961,-1.52997 2.534,-2.36394 4.6141,-2.50163 0.1904,-0.0152 0.3657,-0.0241 0.5268,-0.0241 0.2637,-0.0308 0.5283,-0.0448 0.792,-0.0448 2.8418,0 5.0457,2.02666 6.613,6.08101 l -8.7444,0 0,2.36389 8.9424,0 c 0.073,1.14747 0.1102,2.23237 0.1102,3.25745 0,8.30758 -2.3885,12.46161 -7.1639,12.46161 -0.2051,0 -0.4173,-0.007 -0.6371,-0.0224 -4.9804,-0.59668 -7.6749,-3.97852 -8.085,-10.14422 l -2.1986,0 c 0.5713,8.36883 4.3578,12.60054 11.3597,12.69233 4.8632,-0.27536 7.7717,-3.3586 8.7238,-9.24894 0.3954,-2.4326 0.594,-4.62889 0.594,-6.58719 0,-2.76922 -0.397,-5.07152 -1.188,-6.90744 -1.9043,-4.40627 -4.9356,-6.60958 -9.0957,-6.60958 z m 42.2745,0.093 c -2.2119,0.0153 -4.0343,0.58781 -5.4698,1.71997 l 2.1314,1.74408 c 0.9228,-0.65802 2.0287,-0.99376 3.3177,-1.00891 4.1601,0.12238 6.5179,2.4936 7.0745,7.11404 l 0.022,1.85942 c -1.4794,-1.88181 -3.8818,-2.82357 -7.207,-2.82357 -5.9619,0 -8.9425,3.17514 -8.9425,9.52441 l 0,0.64219 c 0.2051,6.63998 3.507,9.96 9.9083,9.96 l 8.8117,0 0,-19.78227 c -0.8496,-5.82908 -4.0656,-8.81167 -9.6466,-8.94936 z m -29.9041,0.55095 0,2.77537 7.7339,0 0,25.47418 2.6599,0 0,-25.47418 7.7993,0 0,-2.77537 -18.1931,0 z m 60.49,0 0,13.88373 -5.9537,-8.40014 c -1.4795,-3.07518 -3.8388,-4.89513 -7.0761,-5.46121 l -0.8126,2.91482 c 2.0801,0 3.8826,1.29162 5.4061,3.87726 l 2.6582,3.8101 -7.405,11.61283 c -1.3036,2.0042 -2.9877,3.05906 -5.0531,3.1662 l 0.8126,2.91482 c 3.1055,-0.53548 5.4202,-2.25646 6.9437,-5.16336 l 6.3719,-10.16659 4.108,5.39233 0,9.79989 2.6582,0 0,-9.79989 4.1098,-5.39233 6.372,10.16659 c 1.5233,2.9069 3.838,4.62788 6.9435,5.16336 l 0.8127,-2.91482 c -2.0655,-0.10714 -3.7495,-1.162 -5.0532,-3.1662 l -7.405,-11.61283 2.6583,-3.8101 c 1.5234,-2.58564 3.3261,-3.87726 5.4061,-3.87726 l -0.8144,-2.91482 c -3.2372,0.56608 -5.5949,2.38603 -7.0744,5.46121 l -5.9554,8.40014 0,-13.88373 -2.6582,0 z m -30.6737,10.50922 c 4.0283,0 6.4092,2.24926 7.1416,6.74731 l 0,7.94045 -6.4598,0 c -4.4239,0 -6.7755,-2.39419 -7.0538,-7.1829 -0.014,-0.27542 -0.022,-0.55105 -0.022,-0.82641 0,-4.32978 2.1318,-6.55607 6.3945,-6.67845 z"
       id="path7505" />
    <path
       id="path7503"
       d="m 1951.2465,843.71802 c -12.6722,0.68124 -19.0092,8.62941 -19.0092,23.84373 0,0.74612 0.033,1.91409 0.095,3.50365 l 7.7339,0 c 0.3105,-12.48937 3.8964,-18.94561 10.7605,-19.36733 6.1497,0 9.6139,4.20258 10.3904,12.60452 0,7.33142 -4.4257,14.56517 -13.2777,21.70195 -10.3427,8.33705 -15.7163,21.02019 -16.1202,38.05114 l 41.6512,0 0,-8.12639 -33.1253,0 c 0.6832,-9.31025 5.4982,-17.761 14.4432,-25.35194 9.6595,-8.07754 14.5823,-16.80321 14.7687,-26.17835 -1.3355,-13.55989 -7.4394,-20.4539 -18.3102,-20.68098 z m -40.2842,96.31842 c -0.3515,0 -0.7098,0.0157 -1.0761,0.0465 -3.1347,0.26006 -5.3695,1.98985 -6.7025,5.18746 l 2.6153,0 c 0.9961,-1.52997 2.534,-2.36394 4.6141,-2.50163 0.1904,-0.0152 0.3657,-0.0241 0.5268,-0.0241 0.2637,-0.0308 0.5283,-0.0448 0.792,-0.0448 2.8418,0 5.0457,2.02666 6.613,6.08101 l -8.7444,0 0,2.36389 8.9424,0 c 0.073,1.14747 0.1102,2.23237 0.1102,3.25745 0,8.30758 -2.3885,12.46161 -7.1639,12.46161 -0.2051,0 -0.4173,-0.007 -0.6371,-0.0224 -4.9804,-0.59668 -7.6749,-3.97852 -8.085,-10.14422 l -2.1986,0 c 0.5713,8.36883 4.3578,12.60054 11.3597,12.69233 4.8632,-0.27536 7.7717,-3.3586 8.7238,-9.24894 0.3954,-2.4326 0.594,-4.62889 0.594,-6.58719 0,-2.76922 -0.397,-5.07152 -1.188,-6.90744 -1.9043,-4.40627 -4.9356,-6.60958 -9.0957,-6.60958 z m 42.2745,0.093 c -2.2119,0.0153 -4.0343,0.58781 -5.4698,1.71997 l 2.1314,1.74408 c 0.9228,-0.65802 2.0287,-0.99376 3.3177,-1.00891 4.1601,0.12238 6.5179,2.4936 7.0745,7.11404 l 0.022,1.85942 c -1.4794,-1.88181 -3.8818,-2.82357 -7.207,-2.82357 -5.9619,0 -8.9425,3.17514 -8.9425,9.52441 l 0,0.64219 c 0.2051,6.63998 3.507,9.96 9.9083,9.96 l 8.8117,0 0,-19.78227 c -0.8496,-5.82908 -4.0656,-8.81167 -9.6466,-8.94936 z m -29.9041,0.55095 0,2.77537 7.7339,0 0,25.47418 2.6599,0 0,-25.47418 7.7993,0 0,-2.77537 -18.1931,0 z m 60.49,0 0,13.88373 -5.9537,-8.40014 c -1.4795,-3.07518 -3.8388,-4.89513 -7.0761,-5.46121 l -0.8126,2.91482 c 2.0801,0 3.8826,1.29162 5.4061,3.87726 l 2.6582,3.8101 -7.405,11.61283 c -1.3036,2.0042 -2.9877,3.05906 -5.0531,3.1662 l 0.8126,2.91482 c 3.1055,-0.53548 5.4202,-2.25646 6.9437,-5.16336 l 6.3719,-10.16659 4.108,5.39233 0,9.79989 2.6582,0 0,-9.79989 4.1098,-5.39233 6.372,10.16659 c 1.5233,2.9069 3.838,4.62788 6.9435,5.16336 l 0.8127,-2.91482 c -2.0655,-0.10714 -3.7495,-1.162 -5.0532,-3.1662 l -7.405,-11.61283 2.6583,-3.8101 c 1.5234,-2.58564 3.3261,-3.87726 5.4061,-3.87726 l -0.8144,-2.91482 c -3.2372,0.56608 -5.5949,2.38603 -7.0744,5.46121 l -5.9554,8.40014 0,-13.88373 -2.6582,0 z m -30.6737,10.50922 c 4.0283,0 6.4092,2.24926 7.1416,6.74731 l 0,7.94045 -6.4598,0 c -4.4239,0 -6.7755,-2.39419 -7.0538,-7.1829 -0.014,-0.27542 -0.022,-0.55105 -0.022,-0.82641 0,-4.32978 2.1318,-6.55607 6.3945,-6.67845 z"
       style="font-style:normal;font-variant:normal;font-weight:normal;font-stretch:normal;font-size:62.05994415px;line-height:100%;font-family:Jolly;-inkscape-font-specification:Jolly;text-align:start;letter-spacing:0px;word-spacing:0px;writing-mode:lr-tb;text-anchor:start;fill:#ff352d;fill-opacity:1;stroke:none;stroke-width:1px;stroke-linecap:butt;stroke-linejoin:miter;stroke-opacity:1" />
  </g>
</svg>
