<?xml version="1.0" encoding="UTF-8" standalone="no"?>
<svg
   xmlns:dc="http://purl.org/dc/elements/1.1/"
   xmlns:cc="http://creativecommons.org/ns#"
   xmlns:rdf="http://www.w3.org/1999/02/22-rdf-syntax-ns#"
   xmlns:svg="http://www.w3.org/2000/svg"
   xmlns="http://www.w3.org/2000/svg"
   xmlns:sodipodi="http://sodipodi.sourceforge.net/DTD/sodipodi-0.dtd"
   xmlns:inkscape="http://www.inkscape.org/namespaces/inkscape"
   version="1.1"
   id="svg2"
   viewBox="0 0 4606.2993 1204.7244"
   height="34cm"
   width="130cm"
   inkscape:version="0.91 r13725"
   sodipodi:docname="p4-1.svg">
  <sodipodi:namedview
     pagecolor="#ffffff"
     bordercolor="#666666"
     borderopacity="1"
     objecttolerance="10"
     gridtolerance="10"
     guidetolerance="10"
     inkscape:pageopacity="0"
     inkscape:pageshadow="2"
     inkscape:window-width="1364"
     inkscape:window-height="750"
     id="namedview4490"
     showgrid="false"
     inkscape:zoom="0.098859572"
     inkscape:cx="2127.3093"
     inkscape:cy="1532.2965"
     inkscape:window-x="0"
     inkscape:window-y="16"
     inkscape:window-maximized="0"
     inkscape:current-layer="svg2" />
  <defs
     id="defs4" />
  <metadata
     id="metadata7">
    <rdf:RDF>
      <cc:Work
         rdf:about="">
        <dc:format>image/svg+xml</dc:format>
        <dc:type
           rdf:resource="http://purl.org/dc/dcmitype/StillImage" />
        <dc:title />
      </cc:Work>
    </rdf:RDF>
  </metadata>
  <flowRoot
     xml:space="preserve"
     id="flowRoot6877"
     style="font-style:normal;font-variant:normal;font-weight:normal;font-stretch:normal;font-size:25px;line-height:100%;font-family:Ubuntu;-inkscape-font-specification:'Ubuntu, Normal';text-align:start;letter-spacing:0px;word-spacing:0px;writing-mode:lr-tb;text-anchor:start;fill:#000000;fill-opacity:1;stroke:none;stroke-width:1px;stroke-linecap:butt;stroke-linejoin:miter;stroke-opacity:1"
     transform="translate(1073.7762,-2528.3927)"><flowRegion
       id="flowRegion6879"><rect
         id="rect6881"
         width="848.57141"
         height="277.14285"
         x="834.28571"
         y="532.03601" /></flowRegion><flowPara
       id="flowPara6883" /></flowRoot>  <g
     id="g7438"
     transform="matrix(0.95744025,0,0,1,1153.9841,-2529.8207)"
     style="fill:#1a1a1a">
    <g
       id="flowRoot6995"
       style="font-style:normal;font-variant:normal;font-weight:normal;font-stretch:normal;font-size:20.68664551px;line-height:100%;font-family:Ubuntu;-inkscape-font-specification:'Ubuntu, Normal';text-align:start;letter-spacing:0px;word-spacing:0px;writing-mode:lr-tb;text-anchor:start;fill:#1a1a1a;fill-opacity:1;stroke:none;stroke-width:1px;stroke-linecap:butt;stroke-linejoin:miter;stroke-opacity:1"
       transform="matrix(0.85913397,0,0,0.85913397,1006.2086,-425.11908)" />
    <g
       transform="matrix(0.89226377,0,0,0.89226377,210.13123,98.655779)"
       id="text7363"
       style="font-style:normal;font-variant:normal;font-weight:normal;font-stretch:normal;font-size:35.19487px;line-height:100%;font-family:Ubuntu;-inkscape-font-specification:'Ubuntu, Normal';text-align:start;letter-spacing:0px;word-spacing:0px;writing-mode:lr-tb;text-anchor:start;fill:#1a1a1a;fill-opacity:1;stroke:none;stroke-width:1px;stroke-linecap:butt;stroke-linejoin:miter;stroke-opacity:1" />
  </g>
  <g
     id="g8233">
    <path
       style="color:#000000;clip-rule:nonzero;display:inline;overflow:visible;visibility:visible;opacity:1;isolation:auto;mix-blend-mode:normal;color-interpolation:sRGB;color-interpolation-filters:linearRGB;solid-color:#000000;solid-opacity:1;fill:#333333;fill-opacity:1;fill-rule:evenodd;stroke:none;stroke-width:1px;stroke-linecap:butt;stroke-linejoin:miter;stroke-miterlimit:4;stroke-dasharray:none;stroke-dashoffset:0;stroke-opacity:1;color-rendering:auto;image-rendering:auto;shape-rendering:auto;text-rendering:auto;enable-background:accumulate"
       d="m 577.10405,5.2477339e-4 0,0.43544302661 C 424.04682,0.43576791 277.2581,63.828914 169.03008,176.67124 60.802078,289.51355 2.3969872e-4,442.56143 0,602.14482 c -1.6172316e-4,103.76131 25.713787,204.75385 73.446236,293.73394 0.0088,0.0163 0.01748,0.0325 0.02621,0.0488 3.193145,5.95119 6.48497,11.84807 9.8741,17.68894 0.01999,0.0345 0.03992,0.069 0.05992,0.10348 5.020041,8.64767 10.254087,17.17043 15.697821,25.5611 0.158673,0.24462 0.316594,0.4897 0.475632,0.73411 3.549181,5.45318 7.187491,10.84958 10.913381,16.18753 0.21285,0.30499 0.427,0.6091 0.64042,0.91372 1.77773,2.53684 3.5719,5.06164 5.38928,7.57149 0.069,0.0953 0.13688,0.19166 0.20598,0.287 1.9206,2.64909 3.8629,5.28308 5.82748,7.90146 0.19243,0.25654 0.38763,0.51104 0.58049,0.76729 1.75914,2.33677 3.53718,4.66039 5.33122,6.97209 0.26354,0.33965 0.52593,0.68007 0.79023,1.01917 3.91832,5.02658 7.91898,9.99293 12.00134,14.89681 0.37952,0.45603 0.76137,0.90987 1.14228,1.36491 1.71962,2.05326 3.45376,4.09574 5.20202,6.12674 0.35496,0.4125 0.70562,0.8281 1.06175,1.2397 2.02688,2.3416 4.07343,4.6666 6.1383,6.978 0.35587,0.3983 0.71599,0.7935 1.07299,1.1909 1.73124,1.9275 3.47625,3.8441 5.23386,5.75 0.52376,0.5678 1.04686,1.1364 1.57295,1.7025 2.09908,2.2581 4.21007,4.5068 6.34617,6.7339 3.38213,3.5262 6.80154,7.0043 10.258,10.4338 1.72821,1.7146 3.46493,3.4172 5.21137,5.1076 1.74677,1.6904 3.50282,3.3671 5.26757,5.0331 3.52879,3.3315 7.09321,6.6134 10.69241,9.8461 3.5992,3.2329 7.23265,6.416 10.90027,9.5493 1.83382,1.5666 3.67544,3.1209 5.52599,4.6624 3.7e-4,4e-4 0.002,-3e-4 0.002,0 3.70071,3.0828 7.4356,6.1163 11.20176,9.0983 1.88326,1.4911 3.77463,2.9702 5.67392,4.4359 3.79853,2.9315 7.62721,5.812 11.48826,8.6414 3.86101,2.8294 7.75394,5.6085 11.67551,8.3349 3.92157,2.7265 7.87328,5.3999 11.85341,8.0225 11.94039,7.8679 24.13951,15.2671 36.57145,22.1854 6.21597,3.4592 12.49051,6.7984 18.81941,10.0158 10.54814,5.3624 21.24757,10.3867 32.08473,15.0669 4.33487,1.8721 8.69107,3.6897 13.06872,5.4513 13.13296,5.2844 26.45383,10.0687 39.93646,14.3424 5.7e-4,1e-4 9.5e-4,-2e-4 0.002,0 40.44737,12.8204 82.34877,21.04 124.98519,24.3486 4.73744,0.3675 9.48446,0.6755 14.23908,0.9215 9.50924,0.4919 19.05063,0.74 28.61674,0.74 l 0,0.8688 864.53149,0 0.1012,0 2384.0944,0 58.1418,-100.6414 722.3262,-1103.64902185 -186.5256,-0.0609784 1.0167,-0.372965535556 -1167.1494,0 -2676.53679,0 z"
       id="path7715-2"
       inkscape:connector-curvature="0" />
    <path
       style="color:#000000;clip-rule:nonzero;display:inline;overflow:visible;visibility:visible;opacity:1;isolation:auto;mix-blend-mode:normal;color-interpolation:sRGB;color-interpolation-filters:linearRGB;solid-color:#000000;solid-opacity:1;fill:#ffffff;fill-opacity:1;fill-rule:evenodd;stroke:none;stroke-width:1px;stroke-linecap:butt;stroke-linejoin:miter;stroke-miterlimit:4;stroke-dasharray:none;stroke-dashoffset:0;stroke-opacity:1;color-rendering:auto;image-rendering:auto;shape-rendering:auto;text-rendering:auto;enable-background:accumulate"
       d="m 580.65732,8.1773247 0,0.4288981 C 428.10733,8.605955 281.80526,71.05465 173.93595,182.21431 66.066621,293.37396 5.4661386,444.13895 5.4658999,601.3427 5.4656516,758.54678 66.065924,909.31225 173.93529,1020.4723 c 107.86939,111.1601 254.17173,173.609 406.72203,173.6087 l 0,0.8559 3237.96058,0 693.4185,-1186.3306772 -101.6128,0 1.1816,-0.4288981 z"
       id="path7050-8"
       inkscape:connector-curvature="0" />
    <path
       id="path7052-2"
       d="M 3230.2732,8.1773252 3294.9311,133.62782 1442.3235,1194.937 l 2002.18,-2.1812 329.0829,-191.2066 c 27.14,50.367 81.6015,126.5325 81.6015,126.5325 L 4596.4992,8.6047162 Z"
       style="color:#000000;clip-rule:nonzero;display:inline;overflow:visible;visibility:visible;opacity:1;isolation:auto;mix-blend-mode:normal;color-interpolation:sRGB;color-interpolation-filters:linearRGB;solid-color:#000000;solid-opacity:1;fill:#ff372d;fill-opacity:1;fill-rule:evenodd;stroke:none;stroke-width:1px;stroke-linecap:butt;stroke-linejoin:miter;stroke-miterlimit:4;stroke-dasharray:none;stroke-dashoffset:0;stroke-opacity:1;color-rendering:auto;image-rendering:auto;shape-rendering:auto;text-rendering:auto;enable-background:accumulate"
       inkscape:connector-curvature="0" />
    <path
       d="m 3218.0758,856.18978 c 37.5572,137.33133 22.0002,264.55192 -40.9818,297.80152 -71.0649,37.4979 -175.5661,-58.8172 -233.4238,-215.14369 -57.8511,-156.32466 -47.1527,-313.45393 23.9066,-350.95858 43.858,-23.15083 100.4418,4.69693 150.9485,66.13494 -103.6438,36.88064 -188.314,68.4371 -119.1179,255.40242 32.7967,88.60787 92.0314,143.20871 132.3092,121.94351 31.994,-16.8922 42.3993,-76.58472 28.8745,-144.84311 z M 4354.0269,133.78794 c -217.9635,19.46755 -487.4577,14.94771 -677.4757,-5.73912 -190.0136,-20.69204 -169.8234,250.69875 -108.3535,417.84754 61.4628,167.15559 215.128,368.54403 330.9515,187.46122 115.8183,-181.07094 295.3892,-421.09581 454.8777,-599.56964 z m -97.4354,65.94473 -505.7844,366.20461 c -70.7699,51.23465 -35.8089,124.04495 47.8727,48.31018 z m -17.6064,-25.51556 -553.1619,238.43786 c -115.5986,49.83149 -122.9917,-175.15287 32.8849,-174.5611 189.8556,0.71196 322.045,-38.3612 520.277,-63.87676 z m -712.6784,391.931 c 37.1851,100.45897 26.3381,203.52863 -24.2177,230.20924 -50.5573,26.69422 -121.6821,-33.1181 -158.8616,-133.58373 -37.1797,-100.45394 -26.3385,-203.52188 24.2187,-230.21609 50.5559,-26.68064 121.6811,33.13158 158.8606,133.59058 z m -273.8758,215.57708 -215.6202,114.1703 c -0.6663,-1.69318 -1.3164,-3.41351 -1.9557,-5.13879 -13.7273,-37.09663 -19.3775,-73.50848 -17.4147,-102.37151 0.7596,-11.12588 2.3824,-20.32255 4.8081,-26.6604 l 191.3314,-101.30894 c 82.6588,-43.76512 121.0525,77.79045 38.8511,121.30934 z m -732.8971,368.30091 -192.7406,5.8675 549.3541,-316.82026 c 6.6768,38.57235 17.332,78.61355 32.0693,118.44563 l 2.0285,5.39523 z"
       style="fill:#ff2c28;fill-opacity:1;fill-rule:evenodd;stroke:none"
       id="path7932-0"
       inkscape:connector-curvature="0" />
    <path
       d="m 3242.4054,1022.4516 q 18.9812,-12.1676 38.1484,-6.1946 19.3396,5.8625 33.7195,28.2948 14.3799,22.4323 11.6324,42.4533 -2.8581,19.8486 -23.5648,33.1223 -17.0831,10.9508 -36.5511,9.066 l 1.491,-19.7025 q 7.1544,0.5265 12.4639,-0.6858 5.4819,-1.323 11.3489,-5.0839 18.636,-11.9463 4.1633,-38.7014 l -34.6839,22.2335 -8.9598,-13.9771 34.6839,-22.2335 q -9.0616,-11.4772 -17.3709,-14.1849 -8.1367,-2.8184 -16.9371,2.8229 -5.5218,3.5397 -9.5304,8.3005 -3.836,4.6502 -6.7384,11.1366 l -17.5656,-6.5128 q 3.0662,-9.2695 8.8269,-16.6142 5.9332,-7.4554 15.4238,-13.5392 z"
       style="font-style:normal;font-variant:normal;font-weight:500;font-stretch:normal;font-size:medium;line-height:1000%;font-family:'Fira Sans';-inkscape-font-specification:'Fira Sans Medium';text-align:start;letter-spacing:0px;word-spacing:0px;writing-mode:lr-tb;text-anchor:start;fill:#ffffff;fill-opacity:1;stroke:none;stroke-width:1px;stroke-linecap:butt;stroke-linejoin:miter;stroke-opacity:1"
       id="path8137"
       inkscape:connector-curvature="0" />
    <path
       d="m 3379.1429,962.30966 -26.7463,17.14525 47.6749,74.37179 -22.0872,14.1587 -47.6749,-74.37184 -28.2992,18.14074 -10.8402,-16.91047 79.8935,-51.21448 8.0794,18.68031 z"
       style="font-style:normal;font-variant:normal;font-weight:500;font-stretch:normal;font-size:medium;line-height:1000%;font-family:'Fira Sans';-inkscape-font-specification:'Fira Sans Medium';text-align:start;letter-spacing:0px;word-spacing:0px;writing-mode:lr-tb;text-anchor:start;fill:#ffffff;fill-opacity:1;stroke:none;stroke-width:1px;stroke-linecap:butt;stroke-linejoin:miter;stroke-opacity:1"
       id="path8139"
       inkscape:connector-curvature="0" />
    <path
       d="m 3490.8822,961.52898 q 3.4291,5.3492 6.6413,6.94201 3.2742,1.3096 7.7827,0.36725 l 4.7433,17.65379 q -8.2075,4.28749 -15.0922,4.56183 -6.8225,-0.009 -13.6142,-4.90674 -0.2344,9.88888 -5.097,17.87518 -4.8006,7.7032 -13.4283,13.2339 -13.632,8.7386 -26.5472,6.0618 -12.9153,-2.6768 -20.9902,-15.2734 -9.5128,-14.83986 -3.792,-29.46299 5.7828,-14.90627 25.7993,-27.73755 l 11.3887,-7.30056 -3.3184,-5.17669 q -5.6413,-8.80039 -11.995,-9.59674 -6.2916,-1.07956 -15.2646,4.67241 -10.0082,6.41562 -21.0607,20.31756 l -14.8001,-11.69403 q 12.8797,-17.50791 28.9274,-27.79507 35.029,-22.45475 55.1608,8.9505 l 24.5564,38.30754 z m -32.4847,35.91861 q 11.2162,-7.18999 10.4108,-22.49884 l -11.8358,-18.46351 -9.1454,5.86255 q -21.397,13.71618 -11.2204,29.59135 4.2033,6.55712 9.8047,8.07916 5.6015,1.522 11.9861,-2.57071 z"
       style="font-style:normal;font-variant:normal;font-weight:500;font-stretch:normal;font-size:medium;line-height:1000%;font-family:'Fira Sans';-inkscape-font-specification:'Fira Sans Medium';text-align:start;letter-spacing:0px;word-spacing:0px;writing-mode:lr-tb;text-anchor:start;fill:#ffffff;fill-opacity:1;stroke:none;stroke-width:1px;stroke-linecap:butt;stroke-linejoin:miter;stroke-opacity:1"
       id="path8141"
       inkscape:connector-curvature="0" />
    <path
       d="m 3588.1975,864.57458 55.6964,32.95364 -23.1225,14.82234 -44.6439,-27.86549 -10.0082,6.41561 25.6626,40.03313 -19.844,12.72065 -25.6626,-40.03314 -9.8357,6.30504 6.5089,52.31135 -22.7775,14.60113 -6.8629,-64.25759 -49.0639,-28.68395 21.5696,-13.82681 40.8784,25.40989 10.1809,-6.5263 -23.4503,-36.58195 19.844,-12.72064 23.4503,36.58194 10.3534,-6.63687 -5.8496,-47.86464 21.397,-13.71618 5.5796,56.55884 z"
       style="font-style:normal;font-variant:normal;font-weight:500;font-stretch:normal;font-size:medium;line-height:1000%;font-family:'Fira Sans';-inkscape-font-specification:'Fira Sans Medium';text-align:start;letter-spacing:0px;word-spacing:0px;writing-mode:lr-tb;text-anchor:start;fill:#ffffff;fill-opacity:1;stroke:none;stroke-width:1px;stroke-linecap:butt;stroke-linejoin:miter;stroke-opacity:1"
       id="path8143"
       inkscape:connector-curvature="0" />
    <path
       d="m 3062.1831,394.1692 q 45.5313,-29.18715 89.5005,-32.80999 44.6387,-4.05209 80.9335,14.2496 36.2949,18.30164 59.9022,55.12849 26.1825,40.84428 32.3293,91.69805 5.7174,50.1842 -6.4204,124.09575 -12.5671,73.242 -44.9294,192.23879 l 209.5781,-134.34674 30.5951,65.41274 -287.2492,184.13659 -36.4839,-56.91418 q 33.3922,-139.49629 46.1997,-213.83709 12.3782,-75.0103 8.3261,-119.64906 -4.052,-44.63869 -25.9424,-78.78728 -22.3196,-34.81805 -55.2837,-42.02866 -32.964,-7.21074 -67.7821,15.10887 -30.131,19.315 -44.2607,44.43295 -13.8894,24.01921 -18.5762,63.86789 l -72.2462,-6.59233 q 4.7039,-53.08582 29.0318,-93.2437 23.8987,-40.82743 72.7779,-72.16069 z"
       style="font-style:normal;font-variant:normal;font-weight:500;font-stretch:normal;font-size:795.34130859px;line-height:1000%;font-family:'Fira Mono';-inkscape-font-specification:'Fira Mono Medium';text-align:start;letter-spacing:0px;word-spacing:0px;writing-mode:lr-tb;text-anchor:start;fill:#ffffff;fill-opacity:1;stroke:none;stroke-width:1px;stroke-linecap:butt;stroke-linejoin:miter;stroke-opacity:1"
       id="path8134"
       inkscape:connector-curvature="0" />
    <path
       style="color:#000000;clip-rule:nonzero;display:inline;overflow:visible;visibility:visible;opacity:1;isolation:auto;mix-blend-mode:normal;color-interpolation:sRGB;color-interpolation-filters:linearRGB;solid-color:#000000;solid-opacity:1;fill:#5e890a;fill-opacity:1;fill-rule:evenodd;stroke:none;stroke-width:1px;stroke-linecap:butt;stroke-linejoin:miter;stroke-miterlimit:4;stroke-dasharray:none;stroke-dashoffset:0;stroke-opacity:1;color-rendering:auto;image-rendering:auto;shape-rendering:auto;text-rendering:auto;enable-background:accumulate"
       d="m 78.668391,890.69663 c 25.594409,47.15647 57.534349,90.89138 95.267069,129.77517 107.86938,111.1601 254.17125,173.6096 406.72155,173.6093 l 0,0.8558 861.76719,0 568.2429,-304.24027 -1931.998709,0 z"
       id="rect7587-9"
       inkscape:connector-curvature="0" />
    <path
       id="path7660-0"
       style="fill:#5e890a;fill-opacity:1;fill-rule:evenodd;stroke:none"
       d="m 459.50368,159.69818 c 68.36119,-11.50119 134.88103,4.94393 188.60834,41.18524 -7.04013,5.14246 -13.42533,10.99232 -19.11141,17.40237 C 578.66837,183.85385 516.10367,168.14079 451.78838,178.9612 335.32862,198.55355 251.10689,298.71037 243.953,415.17239 c 11.25047,130.5221 113.88779,214.32285 222.09942,117.45895 78.63483,67.58268 188.02809,-16.43935 222.59842,54.87492 4.17547,-5.60196 8.1288,-11.3782 11.84199,-17.31716 2.7143,-4.34259 5.29092,-8.72828 7.73739,-13.1561 -49.02512,-46.56594 -177.66371,23.65117 -234.6363,-25.9583 75.94258,22.03015 207.52102,-44.2719 260.31998,-40.91314 7.76937,-34.57135 7.70126,-70.60882 -1.26249,-107.03942 l 25.03011,-27.21619 c 24.58797,73.38896 6.64411,165.77665 -35.12103,229.07337 -39.64508,60.08955 -102.22055,103.92991 -177.28593,116.55827 -60.47247,10.17373 -119.49684,-1.52615 -169.50772,-29.44379 18.07449,-11.35933 35.52083,-32.33397 44.34355,-69.58381 -30.58039,46.27689 -79.87191,46.19168 -105.50623,22.72448 -38.43195,-39.33957 -65.62052,-91.08621 -75.00995,-150.40397 -6.08965,-38.46946 -4.08763,-76.3715 4.68912,-111.87393 l 0.0295,-0.22478 -0.008,0.13594 c 25.38279,-102.54575 107.408,-185.03584 215.19864,-203.16977 z"
       inkscape:connector-curvature="0" />
    <path
       id="path7662-3"
       style="fill:#ff352d;fill-opacity:1;fill-rule:evenodd;stroke:none"
       d="m 454.16106,412.21841 c 12.61442,39.42622 7.38927,75.94979 -13.76461,85.49539 -23.86865,10.76522 -58.96755,-16.88576 -78.40035,-61.76528 -19.43044,-44.87905 -15.83709,-89.98905 8.02964,-100.75622 14.73063,-6.64633 33.73541,1.34844 50.69921,18.9866 -34.81089,10.58801 -63.24923,19.6475 -40.0083,73.32311 11.01551,25.4383 30.91068,41.11359 44.43893,35.00856 10.74584,-4.84951 14.24059,-21.98656 9.69811,-41.58276 z M 835.69421,204.8251 c -73.20763,5.58889 -163.72293,4.2913 -227.54446,-1.64765 -63.82011,-5.94042 -57.03883,71.97274 -36.39285,119.95925 20.6436,47.98845 72.25526,105.80477 111.15707,53.81797 38.89995,-51.9834 99.21267,-120.89177 152.78024,-172.12957 z m -32.7257,18.93191 -169.87839,105.1332 c -23.76951,14.70888 -12.02716,35.61188 16.07903,13.86931 z m -5.91347,-7.32514 -185.79115,68.45274 c -38.82616,14.30606 -41.30932,-50.28441 11.04512,-50.11447 63.76703,0.20442 108.16557,-11.01313 174.74603,-18.33827 z M 557.68691,328.95074 c 12.48942,28.84061 8.84627,58.43074 -8.13398,66.09043 -16.98072,7.66362 -40.86954,-9.50781 -53.35708,-38.35036 -12.48757,-28.83917 -8.84627,-58.4288 8.13439,-66.0924 16.98026,-7.65971 40.86913,9.5117 53.35667,38.35233 z m -91.98692,61.8897 -72.42061,32.77701 c -0.22379,-0.4861 -0.44214,-0.97999 -0.65682,-1.4753 -4.61063,-10.65001 -6.50836,-21.10344 -5.84915,-29.38968 0.25509,-3.19412 0.80015,-5.83436 1.61489,-7.6539 l 64.26266,-29.08464 c 27.76274,-12.56446 40.6581,22.33276 13.04903,34.82651 z m -201.46098,91.06538 c -4.5335,-9.6647 -9.30713,-25.59127 -11.15882,-35.62686 l 86.23696,-38.97449 c 2.24258,11.07366 5.82137,22.56904 10.7712,34.00439 l 0.68129,1.54889 z"
       inkscape:connector-curvature="0" />
    <path
       id="path7664-6"
       style="fill:#ff352d;fill-opacity:1;fill-rule:nonzero;stroke:none"
       d="m 854.44772,308.12734 0,189.61434 -24.18262,0 0,-210.7687 24.18262,0 0,0.1298 94.19095,0 0,-0.1298 24.18396,0 0,210.7687 -24.18396,0 0,-189.61434 z"
       inkscape:connector-curvature="0" />
    <path
       id="path7666-1"
       style="fill:#ff352d;fill-opacity:1;fill-rule:nonzero;stroke:none"
       d="m 1039.2684,406.54661 0,91.19507 -25.032,0 0,-210.7687 45.9635,0 c 53.9311,0 80.896,19.90683 80.896,59.72192 0,39.90097 -27.3418,59.85171 -82.0269,59.85171 z m 0,-98.28992 0,76.48983 19.5174,0 c 38.2789,0 57.4193,-12.68262 57.4193,-38.05162 0,-25.62581 -19.1404,-38.43821 -57.4193,-38.43821 z"
       inkscape:connector-curvature="0" />
    <path
       id="path7668-0"
       style="fill:#ff352d;fill-opacity:1;fill-rule:nonzero;stroke:none"
       d="m 1189.6682,391.58413 c 0.7539,58.21713 21.9208,87.32502 63.5004,87.32502 41.2026,0 62.4633,-29.10789 63.7836,-87.32502 -1.3203,-58.13167 -22.581,-87.19753 -63.7836,-87.19753 -41.5796,0 -62.7465,29.06586 -63.5004,87.19753 z m -26.5898,0 c 2.5467,-72.8369 32.6708,-109.25439 90.3734,-109.25439 57.4193,0 87.2603,36.41749 89.522,109.25439 -2.2617,72.66371 -32.1027,108.99532 -89.522,108.99532 -57.7026,0 -87.8267,-36.33161 -90.3734,-108.99532 z"
       inkscape:connector-curvature="0" />
    <path
       id="path7670-6"
       style="fill:#ff352d;fill-opacity:1;fill-rule:nonzero;stroke:none"
       d="m 1457.3915,339.60047 c -46.484,2.92367 -69.7251,20.42275 -69.7251,52.4996 0,32.16085 23.2411,49.83363 69.7251,53.01411 z m 24.1826,-0.12927 0,105.64302 c 46.578,-2.40729 69.8666,-20.07961 69.8666,-53.0141 0,-32.67865 -23.2886,-50.21975 -69.8666,-52.62892 z m -24.1826,-21.54097 0,-30.95719 24.1826,0 0,30.82788 c 63.5486,3.26823 95.3232,28.12083 95.3232,74.55646 0,46.78062 -31.7746,71.67525 -95.3232,74.68436 l 0,30.69999 -24.1826,0 0,-30.82744 c -63.4546,-4.30053 -95.1817,-29.15173 -95.1817,-74.55691 0,-45.23195 31.7271,-70.0407 95.1817,-74.42715 z"
       inkscape:connector-curvature="0" />
    <path
       id="path7672-3"
       d="m 1742.521,286.03334 c -20.353,0.0854 -37.9613,9.2885 -52.8297,27.61585 l 0.26,0.12622 -66.8893,89.34124 0,-116.04633 -15.262,0 0,210.3239 15.262,0 0,-68.9862 41.8133,-55.75404 53.4233,96.21365 c 10.364,16.95233 23.7237,26.19226 39.9855,27.89547 l 0.7595,-15.84012 c -7.3199,-0.0566 -18.9415,-6.35926 -27.0773,-18.79959 l -57.0093,-102.954 28.6752,-38.38371 c 10.4418,-12.27598 23.4027,-18.45981 38.8888,-18.54713 l 0,-16.20521 z m 91.3283,2.14193 -65.9679,209.22089 16.0609,0 24.1564,-76.8781 70.0853,0 24.2901,76.8781 15.9271,0 -65.9677,-209.22089 -18.5842,0 z m 116.8717,0 0,209.22089 16.0609,0 0,-93.51634 23.0973,0 c 49.9971,0 74.9961,-19.30581 74.9961,-57.91539 0,-38.52599 -24.6445,-57.78916 -73.9352,-57.78916 l -40.2191,0 z m 140.2629,0 0,209.22089 15.2656,0 0,-99.4508 90.3937,0 0,99.4508 15.2657,0 0,-209.22089 -15.2657,0 0,94.93782 -90.3937,0 0,-94.93782 -15.2656,0 z m 163.1944,0 0,209.22089 12.4767,0 116.0124,-179.16408 0,179.16408 15.2657,0 0,-209.22089 -15.2657,0 -113.2253,176.84544 0,-176.84544 -15.2638,0 z m 242.2533,1.67974 c -21.0608,0 -40.6144,5.55306 -58.6732,16.60718 l 0,16.48289 0.3919,0.69715 c 16.1935,-11.60832 34.3839,-17.40336 54.5596,-17.40336 6.8136,0 13.6663,0.68924 20.5684,2.06424 28.6711,5.67554 43.0175,19.607 43.0175,41.7937 0,16.93926 -10.1883,29.22987 -30.5407,36.88455 l -54.5465,0 0,14.83616 56.9416,0 c 18.76,7.6528 28.1456,19.59945 28.1456,35.85145 0,22.27212 -14.3464,36.25754 -43.0175,41.9335 -6.9021,1.37502 -13.7548,2.06231 -20.5684,2.06231 -20.1757,0 -38.3661,-5.80678 -54.5596,-17.41695 l -0.3919,0.69909 0,16.48095 c 18.0588,11.05364 37.6124,16.60912 58.6732,16.60912 8.9373,0 18.0895,-1.07113 27.4692,-3.22162 33.0956,-7.48101 49.6488,-26.3599 49.6488,-56.62986 l 0,-1.15737 c -0.2655,-18.31615 -8.9903,-32.67066 -26.1576,-43.07534 17.1673,-10.40653 25.8921,-24.81312 26.1576,-43.21516 l 0,-1.15738 c 0,-30.18358 -16.5532,-49.02264 -49.6488,-56.50362 -9.3797,-2.15053 -18.5319,-3.22163 -27.4692,-3.22163 z m -529.6497,13.41275 22.8315,0 c 39.5553,0 59.3328,14.23267 59.3328,42.69667 0,28.20491 -19.7775,42.30829 -59.3328,42.30829 l -22.8315,0 0,-85.00496 z m -123.6406,5.93446 30.3957,96.48357 -60.7914,0 30.3957,-96.48357 z"
       style="fill:#5e890a;fill-opacity:1;fill-rule:nonzero;stroke:none"
       inkscape:connector-curvature="0" />
    <path
       d="m 965.87769,628.77058 37.58501,62.58422 -11.89617,0 -34.48167,-57.9292 -18.6201,0 0,57.9292 -10.3445,0 0,-118.09971 10.3445,0 0,51.55009 18.79251,0 32.41277,-51.55009 10.86176,0 -34.65411,55.51549 z"
       style="font-style:normal;font-variant:normal;font-weight:300;font-stretch:normal;font-size:medium;line-height:1000%;font-family:'Fira Sans';-inkscape-font-specification:'Fira Sans Light';text-align:center;letter-spacing:0px;word-spacing:0px;writing-mode:lr-tb;text-anchor:middle;fill:#333333;fill-opacity:1;stroke:none;stroke-width:1px;stroke-linecap:butt;stroke-linejoin:miter;stroke-opacity:1"
       id="path8146"
       inkscape:connector-curvature="0" />
    <path
       d="m 1079.1509,671.35543 q 0,7.06874 1.7241,10.17209 1.8965,3.10335 5.8619,4.65503 l -2.2413,7.06874 q -6.2067,-1.37927 -9.6549,-4.82743 -3.2758,-3.44817 -4.3102,-10.1721 -9.8273,14.99953 -28.1026,14.99953 -12.9306,0 -20.5166,-7.24115 -7.4135,-7.41356 -7.4135,-19.65455 0,-13.96507 9.8273,-21.55104 9.9996,-7.58597 27.5853,-7.58597 l 17.2408,0 0,-8.79282 q 0,-10.86173 -4.8274,-15.68916 -4.8275,-4.99984 -16.034,-4.99984 -10.3445,0 -24.482,5.17225 l -2.5861,-7.58597 q 15.1719,-6.03429 28.4474,-6.03429 29.4818,0 29.4818,28.61978 l 0,43.4469 z m -34.9989,13.79267 q 16.5512,0 24.9992,-16.20638 l 0,-24.48199 -15.6891,0 q -13.7927,0 -21.0339,5.34466 -7.2411,5.34466 -7.2411,16.03398 0,9.31004 4.9998,14.30989 4.9999,4.99984 13.9651,4.99984 z"
       style="font-style:normal;font-variant:normal;font-weight:300;font-stretch:normal;font-size:medium;line-height:1000%;font-family:'Fira Sans';-inkscape-font-specification:'Fira Sans Light';text-align:center;letter-spacing:0px;word-spacing:0px;writing-mode:lr-tb;text-anchor:middle;fill:#333333;fill-opacity:1;stroke:none;stroke-width:1px;stroke-linecap:butt;stroke-linejoin:miter;stroke-opacity:1"
       id="path8148"
       inkscape:connector-curvature="0" />
    <path
       d="m 1152.7711,599.28875 q 16.3788,0 24.482,12.24099 8.2756,12.06859 8.2756,34.30926 0,21.72345 -8.9653,34.65407 -8.7928,12.75822 -25.344,12.75822 -8.1032,0 -14.6547,-3.27576 -6.5515,-3.44817 -11.0341,-9.13764 l 0,44.48135 -9.9997,1.37926 0,-125.51326 8.6204,0 0.8621,13.10304 q 4.9998,-7.06875 12.0685,-11.03414 7.0688,-3.96539 15.6892,-3.96539 z m -3.4482,85.51453 q 12.4134,0 18.9649,-9.82727 6.5516,-9.82728 6.5516,-29.13701 0,-38.27465 -23.9648,-38.27465 -8.1032,0 -14.1375,4.1378 -5.8619,4.1378 -11.2065,11.37895 l 0,47.92951 q 4.3102,6.55152 10.3445,10.1721 6.0343,3.62057 13.4478,3.62057 z"
       style="font-style:normal;font-variant:normal;font-weight:300;font-stretch:normal;font-size:medium;line-height:1000%;font-family:'Fira Sans';-inkscape-font-specification:'Fira Sans Light';text-align:center;letter-spacing:0px;word-spacing:0px;writing-mode:lr-tb;text-anchor:middle;fill:#333333;fill-opacity:1;stroke:none;stroke-width:1px;stroke-linecap:butt;stroke-linejoin:miter;stroke-opacity:1"
       id="path8150"
       inkscape:connector-curvature="0" />
    <path
       d="m 1270.5249,648.94235 -44.8262,0 0,42.41245 -9.9997,0 0,-90.16956 9.9997,0 0,39.3091 44.8262,0 0,-39.3091 9.9997,0 0,90.16956 -9.9997,0 0,-42.41245 z"
       style="font-style:normal;font-variant:normal;font-weight:300;font-stretch:normal;font-size:medium;line-height:1000%;font-family:'Fira Sans';-inkscape-font-specification:'Fira Sans Light';text-align:center;letter-spacing:0px;word-spacing:0px;writing-mode:lr-tb;text-anchor:middle;fill:#333333;fill-opacity:1;stroke:none;stroke-width:1px;stroke-linecap:butt;stroke-linejoin:miter;stroke-opacity:1"
       id="path8152"
       inkscape:connector-curvature="0" />
    <path
       d="m 1382.5925,691.3548 -9.8273,0 0,-55.8603 q 0,-10.86172 1.0345,-22.7579 l -44.9986,78.6182 -11.7238,0 0,-90.16956 9.9997,0 0,52.92936 q 0,8.79282 -1.0345,25.34402 l 44.8262,-78.27338 11.7238,0 0,90.16956 z"
       style="font-style:normal;font-variant:normal;font-weight:300;font-stretch:normal;font-size:medium;line-height:1000%;font-family:'Fira Sans';-inkscape-font-specification:'Fira Sans Light';text-align:center;letter-spacing:0px;word-spacing:0px;writing-mode:lr-tb;text-anchor:middle;fill:#333333;fill-opacity:1;stroke:none;stroke-width:1px;stroke-linecap:butt;stroke-linejoin:miter;stroke-opacity:1"
       id="path8154"
       inkscape:connector-curvature="0" />
    <path
       d="m 1438.9718,599.28875 q 12.5858,0 20.8614,6.37911 8.4481,6.37911 8.4481,17.41324 0,16.20638 -18.7926,20.17177 11.5514,1.20686 17.4133,6.55152 6.0343,5.17225 6.0343,15.51675 0,13.44785 -9.6549,20.689 -9.4824,7.24115 -24.8268,7.24115 -10.6893,0 -18.7925,-3.10335 -8.1032,-3.10335 -14.8271,-8.62042 l 5.5171,-6.2067 q 6.0342,4.65503 12.4134,7.06874 6.5515,2.41372 15.3443,2.41372 11.0341,0 17.5856,-4.65502 6.724,-4.65503 6.724,-14.99953 0,-9.13764 -6.8964,-13.10303 -6.8963,-3.96539 -19.6545,-3.96539 l -10.6893,0 0.6896,-8.10319 8.6204,0 q 11.2066,0 17.4133,-4.31021 6.2067,-4.31021 6.2067,-12.4134 0,-7.58597 -5.5171,-11.55136 -5.3447,-4.1378 -14.4823,-4.1378 -7.7584,0 -13.4479,1.89649 -5.517,1.72409 -11.8961,5.68948 l -4.8275,-6.2067 q 6.8964,-4.82744 14.3099,-7.24115 7.4136,-2.41372 16.7236,-2.41372 z"
       style="font-style:normal;font-variant:normal;font-weight:300;font-stretch:normal;font-size:medium;line-height:1000%;font-family:'Fira Sans';-inkscape-font-specification:'Fira Sans Light';text-align:center;letter-spacing:0px;word-spacing:0px;writing-mode:lr-tb;text-anchor:middle;fill:#333333;fill-opacity:1;stroke:none;stroke-width:1px;stroke-linecap:butt;stroke-linejoin:miter;stroke-opacity:1"
       id="path8156"
       inkscape:connector-curvature="0" />
    <path
       d="m 1526.3819,631.52911 q 36.0333,0 36.0333,29.30941 0,15.17194 -9.4824,22.93031 -9.4825,7.58597 -24.6544,7.58597 l -26.0337,0 0,-90.16956 9.9997,0 0,30.34387 14.1375,0 z m 62.4118,-30.34387 0,90.16956 -9.9997,0 0,-90.16956 9.9997,0 z m -61.3774,81.89396 q 11.7238,0 17.9305,-5.17225 6.3791,-5.34466 6.3791,-17.06843 0,-10.5169 -5.8619,-15.86156 -5.6894,-5.34466 -19.3097,-5.34466 l -14.3099,0 0,43.4469 15.1719,0 z"
       style="font-style:normal;font-variant:normal;font-weight:300;font-stretch:normal;font-size:medium;line-height:1000%;font-family:'Fira Sans';-inkscape-font-specification:'Fira Sans Light';text-align:center;letter-spacing:0px;word-spacing:0px;writing-mode:lr-tb;text-anchor:middle;fill:#333333;fill-opacity:1;stroke:none;stroke-width:1px;stroke-linecap:butt;stroke-linejoin:miter;stroke-opacity:1"
       id="path8158"
       inkscape:connector-curvature="0" />
    <path
       d="m 1738.9581,691.3548 -9.8273,0 0,-55.8603 q 0,-10.86172 1.0345,-22.7579 l -44.9986,78.6182 -11.7238,0 0,-90.16956 9.9997,0 0,52.92936 q 0,8.79282 -1.0345,25.34402 l 44.8262,-78.27338 11.7238,0 0,90.16956 z"
       style="font-style:normal;font-variant:normal;font-weight:300;font-stretch:normal;font-size:medium;line-height:1000%;font-family:'Fira Sans';-inkscape-font-specification:'Fira Sans Light';text-align:center;letter-spacing:0px;word-spacing:0px;writing-mode:lr-tb;text-anchor:middle;fill:#333333;fill-opacity:1;stroke:none;stroke-width:1px;stroke-linecap:butt;stroke-linejoin:miter;stroke-opacity:1"
       id="path8160"
       inkscape:connector-curvature="0" />
    <path
       d="m 1924.2974,691.3548 -100.6865,0 0,-90.16956 9.8273,0 0,81.72155 35.6885,0 0,-81.72155 9.6549,0 0,81.72155 35.6885,0 0,-81.72155 9.8273,0 0,90.16956 z"
       style="font-style:normal;font-variant:normal;font-weight:300;font-stretch:normal;font-size:medium;line-height:1000%;font-family:'Fira Sans';-inkscape-font-specification:'Fira Sans Light';text-align:center;letter-spacing:0px;word-spacing:0px;writing-mode:lr-tb;text-anchor:middle;fill:#333333;fill-opacity:1;stroke:none;stroke-width:1px;stroke-linecap:butt;stroke-linejoin:miter;stroke-opacity:1"
       id="path8162"
       inkscape:connector-curvature="0" />
    <path
       d="m 2014.9824,609.80566 -29.999,0 0,81.54914 -9.9997,0 0,-81.54914 -31.0335,0 0,-8.62042 72.2391,0 -1.2069,8.62042 z"
       style="font-style:normal;font-variant:normal;font-weight:300;font-stretch:normal;font-size:medium;line-height:1000%;font-family:'Fira Sans';-inkscape-font-specification:'Fira Sans Light';text-align:center;letter-spacing:0px;word-spacing:0px;writing-mode:lr-tb;text-anchor:middle;fill:#333333;fill-opacity:1;stroke:none;stroke-width:1px;stroke-linecap:butt;stroke-linejoin:miter;stroke-opacity:1"
       id="path8164"
       inkscape:connector-curvature="0" />
    <path
       d="m 2064.8109,599.28875 q 17.9305,0 27.9301,12.4134 10.1721,12.24099 10.1721,34.30926 0,21.89586 -10.3445,34.65407 -10.1721,12.58581 -27.9301,12.58581 -17.9305,0 -28.1026,-12.4134 -9.9997,-12.58581 -9.9997,-34.48167 0,-14.30989 4.6551,-24.9992 4.655,-10.68932 13.2754,-16.37879 8.6204,-5.68948 20.3442,-5.68948 z m 0,8.44801 q -13.103,0 -20.3442,9.82727 -7.2411,9.82728 -7.2411,28.79219 0,18.79251 7.0687,28.61979 7.2411,9.82727 20.3442,9.82727 13.103,0 20.3442,-9.82727 7.4135,-9.82728 7.4135,-28.9646 0,-18.79251 -7.2411,-28.44738 -7.0688,-9.82727 -20.3442,-9.82727 z"
       style="font-style:normal;font-variant:normal;font-weight:300;font-stretch:normal;font-size:medium;line-height:1000%;font-family:'Fira Sans';-inkscape-font-specification:'Fira Sans Light';text-align:center;letter-spacing:0px;word-spacing:0px;writing-mode:lr-tb;text-anchor:middle;fill:#333333;fill-opacity:1;stroke:none;stroke-width:1px;stroke-linecap:butt;stroke-linejoin:miter;stroke-opacity:1"
       id="path8166"
       inkscape:connector-curvature="0" />
    <path
       d="m 2169.4652,599.28875 q 16.3788,0 24.482,12.24099 8.2756,12.06859 8.2756,34.30926 0,21.72345 -8.9652,34.65407 -8.7929,12.75822 -25.3441,12.75822 -8.1031,0 -14.6547,-3.27576 -6.5515,-3.44817 -11.0341,-9.13764 l 0,44.48135 -9.9997,1.37926 0,-125.51326 8.6204,0 0.8621,13.10304 q 4.9998,-7.06875 12.0686,-11.03414 7.0687,-3.96539 15.6891,-3.96539 z m -3.4481,85.51453 q 12.4133,0 18.9649,-9.82727 6.5515,-9.82728 6.5515,-29.13701 0,-38.27465 -23.9648,-38.27465 -8.1032,0 -14.1375,4.1378 -5.8618,4.1378 -11.2065,11.37895 l 0,47.92951 q 4.3102,6.55152 10.3445,10.1721 6.0343,3.62057 13.4479,3.62057 z"
       style="font-style:normal;font-variant:normal;font-weight:300;font-stretch:normal;font-size:medium;line-height:1000%;font-family:'Fira Sans';-inkscape-font-specification:'Fira Sans Light';text-align:center;letter-spacing:0px;word-spacing:0px;writing-mode:lr-tb;text-anchor:middle;fill:#333333;fill-opacity:1;stroke:none;stroke-width:1px;stroke-linecap:butt;stroke-linejoin:miter;stroke-opacity:1"
       id="path8168"
       inkscape:connector-curvature="0" />
    <path
       d="m 2256.5303,631.52911 q 36.0333,0 36.0333,29.30941 0,15.17194 -9.4824,22.93031 -9.4825,7.58597 -24.6544,7.58597 l -26.0337,0 0,-90.16956 9.9997,0 0,30.34387 14.1375,0 z m 62.4118,-30.34387 0,90.16956 -9.9997,0 0,-90.16956 9.9997,0 z m -61.3774,81.89396 q 11.7238,0 17.9305,-5.17225 6.3791,-5.34466 6.3791,-17.06843 0,-10.5169 -5.8619,-15.86156 -5.6895,-5.34466 -19.3097,-5.34466 l -14.3099,0 0,43.4469 15.1719,0 z"
       style="font-style:normal;font-variant:normal;font-weight:300;font-stretch:normal;font-size:medium;line-height:1000%;font-family:'Fira Sans';-inkscape-font-specification:'Fira Sans Light';text-align:center;letter-spacing:0px;word-spacing:0px;writing-mode:lr-tb;text-anchor:middle;fill:#333333;fill-opacity:1;stroke:none;stroke-width:1px;stroke-linecap:butt;stroke-linejoin:miter;stroke-opacity:1"
       id="path8170"
       inkscape:connector-curvature="0" />
    <path
       d="m 486.68442,1009.7814 q 24.50395,0 24.50395,35.1522 0,16.0367 -6.67123,25.6586 -6.67123,9.622 -19.37223,9.622 -11.03319,0 -17.96101,-7.6976 l 0,32.2016 -10.77661,1.2829 0,-94.8085 9.23709,0 0.89805,9.4937 q 3.7205,-5.26 8.85222,-8.0825 5.26001,-2.8224 11.28977,-2.8224 z m -2.56586,8.7239 q -5.13171,0 -9.49367,3.079 -4.23367,3.0791 -7.44099,7.6976 l 0,33.4845 q 2.69415,3.977 6.67123,6.2863 4.10537,2.181 8.85221,2.181 8.46734,0 12.57271,-6.4147 4.23367,-6.5429 4.23367,-19.8854 0,-13.3424 -3.7205,-19.8854 -3.72049,-6.5429 -11.67466,-6.5429 z"
       style="font-style:normal;font-variant:normal;font-weight:normal;font-stretch:normal;font-size:128.29293823px;line-height:1000%;font-family:'Fira Mono';-inkscape-font-specification:'Fira Mono';text-align:center;letter-spacing:0px;word-spacing:0px;writing-mode:lr-tb;text-anchor:middle;fill:#ffffff;fill-opacity:1;stroke:none;stroke-width:1px;stroke-linecap:butt;stroke-linejoin:miter;stroke-opacity:1"
       id="path8173"
       inkscape:connector-curvature="0" />
    <path
       d="m 579.05612,1009.7814 q 4.10538,0 9.49368,1.4112 l -1.53951,22.9644 -8.72392,0 0,-14.4971 -0.64147,0 q -15.65174,0 -22.19468,22.323 l 0,28.481 13.72735,0 0,8.3391 -35.15227,0 0,-8.3391 10.64832,0 0,-50.9323 -10.64832,0 0,-8.339 18.73077,0 2.05269,16.0366 q 4.10537,-8.7239 9.75026,-13.0859 5.77318,-4.3619 14.4971,-4.3619 z"
       style="font-style:normal;font-variant:normal;font-weight:normal;font-stretch:normal;font-size:128.29293823px;line-height:1000%;font-family:'Fira Mono';-inkscape-font-specification:'Fira Mono';text-align:center;letter-spacing:0px;word-spacing:0px;writing-mode:lr-tb;text-anchor:middle;fill:#ffffff;fill-opacity:1;stroke:none;stroke-width:1px;stroke-linecap:butt;stroke-linejoin:miter;stroke-opacity:1"
       id="path8175"
       inkscape:connector-curvature="0" />
    <path
       d="m 636.14727,1009.7814 q 13.98393,0 21.42492,9.4937 7.56928,9.3653 7.56928,25.6585 0,15.9084 -7.69758,25.6586 -7.56928,9.622 -21.42492,9.622 -13.98393,0 -21.55321,-9.3654 -7.56928,-9.4937 -7.56928,-25.7869 0,-16.0366 7.56928,-25.6586 7.69758,-9.6219 21.68151,-9.6219 z m 0,8.8522 q -8.85222,0 -13.21418,6.5429 -4.36196,6.543 -4.36196,19.8854 0,13.3425 4.23367,19.8854 4.36196,6.4147 13.21417,6.4147 8.85222,0 13.08588,-6.4147 4.36196,-6.5429 4.36196,-20.0137 0,-13.3424 -4.36196,-19.7571 -4.23366,-6.5429 -12.95758,-6.5429 z"
       style="font-style:normal;font-variant:normal;font-weight:normal;font-stretch:normal;font-size:128.29293823px;line-height:1000%;font-family:'Fira Mono';-inkscape-font-specification:'Fira Mono';text-align:center;letter-spacing:0px;word-spacing:0px;writing-mode:lr-tb;text-anchor:middle;fill:#ffffff;fill-opacity:1;stroke:none;stroke-width:1px;stroke-linecap:butt;stroke-linejoin:miter;stroke-opacity:1"
       id="path8177"
       inkscape:connector-curvature="0" />
    <path
       d="m 727.23604,982.71157 q 9.62197,0 18.34589,3.5922 l -3.46391,8.08246 q -6.41465,-2.82245 -14.49711,-2.82245 -14.11222,0 -14.11222,11.16152 l 0,13.7273 22.83614,0 -1.15463,8.5956 -21.68151,0 0,53.7548 -10.9049,0 0,-53.7548 -16.03662,0 0,-8.5956 16.03662,0 0,-13.4707 q 0,-9.10885 6.92782,-14.62544 7.05611,-5.64489 17.70443,-5.64489 z"
       style="font-style:normal;font-variant:normal;font-weight:normal;font-stretch:normal;font-size:128.29293823px;line-height:1000%;font-family:'Fira Mono';-inkscape-font-specification:'Fira Mono';text-align:center;letter-spacing:0px;word-spacing:0px;writing-mode:lr-tb;text-anchor:middle;fill:#ffffff;fill-opacity:1;stroke:none;stroke-width:1px;stroke-linecap:butt;stroke-linejoin:miter;stroke-opacity:1"
       id="path8179"
       inkscape:connector-curvature="0" />
    <path
       d="m 775.85984,1078.803 -10.7766,0 0,-94.8085 10.7766,-1.28293 0,96.09143 z m 14.75369,-37.0767 33.86934,37.0767 -14.24052,0 -33.22787,-36.9484 30.02055,-30.662 13.85564,0 -30.27714,30.5337 z"
       style="font-style:normal;font-variant:normal;font-weight:normal;font-stretch:normal;font-size:128.29293823px;line-height:1000%;font-family:'Fira Mono';-inkscape-font-specification:'Fira Mono';text-align:center;letter-spacing:0px;word-spacing:0px;writing-mode:lr-tb;text-anchor:middle;fill:#ffffff;fill-opacity:1;stroke:none;stroke-width:1px;stroke-linecap:butt;stroke-linejoin:miter;stroke-opacity:1"
       id="path8181"
       inkscape:connector-curvature="0" />
    <path
       d="m 889.78477,1064.0493 q 0,3.9771 1.28293,5.9015 1.28293,1.7961 4.23367,2.6941 l -2.69415,7.6976 q -9.87856,-1.2829 -12.31612,-9.622 -3.59221,4.6186 -9.1088,7.0561 -5.38831,2.4376 -12.05954,2.4376 -10.13514,0 -16.03662,-5.6449 -5.77318,-5.6449 -5.77318,-15.1386 0,-10.3917 8.08246,-16.0366 8.21074,-5.6449 23.4776,-5.6449 l 10.00685,0 0,-5.5166 q 0,-7.1844 -4.10537,-10.2634 -4.10538,-3.2073 -11.93124,-3.2073 -7.69758,0 -17.57614,3.4639 l -2.95073,-8.2108 q 11.93124,-4.2336 22.19467,-4.2336 12.31613,0 18.73077,5.7732 6.54294,5.7731 6.54294,16.0366 l 0,32.4581 z m -27.96786,8.0824 q 5.00343,0 9.49368,-2.5658 4.61855,-2.5659 7.56928,-7.0561 l 0,-17.3196 -9.75026,0 q -10.77661,0 -15.52345,3.5922 -4.74683,3.5922 -4.74683,10.5201 0,12.8292 12.95758,12.8292 z"
       style="font-style:normal;font-variant:normal;font-weight:normal;font-stretch:normal;font-size:128.29293823px;line-height:1000%;font-family:'Fira Mono';-inkscape-font-specification:'Fira Mono';text-align:center;letter-spacing:0px;word-spacing:0px;writing-mode:lr-tb;text-anchor:middle;fill:#ffffff;fill-opacity:1;stroke:none;stroke-width:1px;stroke-linecap:butt;stroke-linejoin:miter;stroke-opacity:1"
       id="path8183"
       inkscape:connector-curvature="0" />
    <path
       d="m 963.93886,1009.7814 q 4.10537,0 9.49368,1.4112 l -1.53952,22.9644 -8.72392,0 0,-14.4971 -0.64146,0 q -15.65174,0 -22.19468,22.323 l 0,28.481 13.72734,0 0,8.3391 -35.15226,0 0,-8.3391 10.64831,0 0,-50.9323 -10.64831,0 0,-8.339 18.73077,0 2.05268,16.0366 q 4.10538,-8.7239 9.75027,-13.0859 5.77318,-4.3619 14.4971,-4.3619 z"
       style="font-style:normal;font-variant:normal;font-weight:normal;font-stretch:normal;font-size:128.29293823px;line-height:1000%;font-family:'Fira Mono';-inkscape-font-specification:'Fira Mono';text-align:center;letter-spacing:0px;word-spacing:0px;writing-mode:lr-tb;text-anchor:middle;fill:#ffffff;fill-opacity:1;stroke:none;stroke-width:1px;stroke-linecap:butt;stroke-linejoin:miter;stroke-opacity:1"
       id="path8185"
       inkscape:connector-curvature="0" />
    <path
       d="m 995.24311,1011.1926 9.23709,0 0.898,9.4937 q 3.9771,-5.1317 10.0069,-7.9542 6.1581,-2.9507 12.3161,-2.9507 18.9874,0 18.9874,20.0137 l 0,49.0079 -10.7766,0 0,-41.0538 q 0,-7.5692 -0.8981,-11.5463 -0.7697,-3.9771 -3.2073,-5.9015 -2.4376,-1.9244 -7.441,-1.9244 -5.5166,0 -10.3917,3.3356 -4.8752,3.3356 -7.9542,7.9542 l 0,49.1362 -10.77659,0 0,-67.6104 z"
       style="font-style:normal;font-variant:normal;font-weight:normal;font-stretch:normal;font-size:128.29293823px;line-height:1000%;font-family:'Fira Mono';-inkscape-font-specification:'Fira Mono';text-align:center;letter-spacing:0px;word-spacing:0px;writing-mode:lr-tb;text-anchor:middle;fill:#ffffff;fill-opacity:1;stroke:none;stroke-width:1px;stroke-linecap:butt;stroke-linejoin:miter;stroke-opacity:1"
       id="path8187"
       inkscape:connector-curvature="0" />
    <path
       d="m 1097.8783,979.63254 q 3.5922,0 5.7731,2.18098 2.181,2.05268 2.181,5.3883 0,3.33562 -2.181,5.5166 -2.1809,2.05268 -5.7731,2.05268 -3.464,0 -5.6449,-2.05268 -2.0527,-2.18098 -2.0527,-5.5166 0,-3.33562 2.0527,-5.3883 2.1809,-2.18098 5.6449,-2.18098 z m 8.5956,90.57486 18.9873,0 0,8.5956 -50.5474,0 0,-8.5956 20.7835,0 0,-50.4192 -20.142,0 0,-8.5956 30.9186,0 0,59.0148 z"
       style="font-style:normal;font-variant:normal;font-weight:normal;font-stretch:normal;font-size:128.29293823px;line-height:1000%;font-family:'Fira Mono';-inkscape-font-specification:'Fira Mono';text-align:center;letter-spacing:0px;word-spacing:0px;writing-mode:lr-tb;text-anchor:middle;fill:#ffffff;fill-opacity:1;stroke:none;stroke-width:1px;stroke-linecap:butt;stroke-linejoin:miter;stroke-opacity:1"
       id="path8189"
       inkscape:connector-curvature="0" />
    <path
       d="m 1200.2568,1069.5659 -1.2829,9.2371 -49.5211,0 0,-8.2108 37.4616,-49.9059 -34.5108,0 0,-9.4937 47.4683,0 0,8.4673 -37.2049,49.906 37.5898,0 z"
       style="font-style:normal;font-variant:normal;font-weight:normal;font-stretch:normal;font-size:128.29293823px;line-height:1000%;font-family:'Fira Mono';-inkscape-font-specification:'Fira Mono';text-align:center;letter-spacing:0px;word-spacing:0px;writing-mode:lr-tb;text-anchor:middle;fill:#ffffff;fill-opacity:1;stroke:none;stroke-width:1px;stroke-linecap:butt;stroke-linejoin:miter;stroke-opacity:1"
       id="path8191"
       inkscape:connector-curvature="0" />
    <path
       d="m 1240.4133,1068.9244 q 0,-4.7468 3.2073,-7.9541 3.3356,-3.3357 8.0825,-3.3357 4.8751,0 8.0824,3.3357 3.2074,3.2073 3.2074,7.9541 0,4.8752 -3.2074,8.0825 -3.2073,3.2073 -8.0824,3.2073 -4.7469,0 -8.0825,-3.2073 -3.2073,-3.3356 -3.2073,-8.0825 z"
       style="font-style:normal;font-variant:normal;font-weight:normal;font-stretch:normal;font-size:128.29293823px;line-height:1000%;font-family:'Fira Mono';-inkscape-font-specification:'Fira Mono';text-align:center;letter-spacing:0px;word-spacing:0px;writing-mode:lr-tb;text-anchor:middle;fill:#ffffff;fill-opacity:1;stroke:none;stroke-width:1px;stroke-linecap:butt;stroke-linejoin:miter;stroke-opacity:1"
       id="path8193"
       inkscape:connector-curvature="0" />
    <path
       d="m 1333.8113,1070.9771 q 8.8522,0 17.5761,-5.9015 l 5.1318,7.0561 q -4.2337,3.7205 -10.5201,5.9015 -6.2863,2.181 -12.1878,2.181 -15.0103,0 -23.4776,-9.3654 -8.339,-9.4937 -8.339,-25.5303 0,-10.1351 3.7205,-18.2176 3.8487,-8.0824 11.0331,-12.701 7.1845,-4.6185 17.063,-4.6185 13.0859,0 22.5796,7.9541 l -5.26,7.0562 q -8.8523,-5.9015 -17.4479,-5.9015 -9.1088,0 -14.6254,6.7995 -5.3883,6.6712 -5.3883,19.6288 0,12.9576 5.3883,19.3723 5.5166,6.2863 14.7537,6.2863 z"
       style="font-style:normal;font-variant:normal;font-weight:normal;font-stretch:normal;font-size:128.29293823px;line-height:1000%;font-family:'Fira Mono';-inkscape-font-specification:'Fira Mono';text-align:center;letter-spacing:0px;word-spacing:0px;writing-mode:lr-tb;text-anchor:middle;fill:#ffffff;fill-opacity:1;stroke:none;stroke-width:1px;stroke-linecap:butt;stroke-linejoin:miter;stroke-opacity:1"
       id="path8195"
       inkscape:connector-curvature="0" />
    <path
       d="m 1405.9127,1009.7814 q 13.984,0 21.425,9.4937 7.5692,9.3653 7.5692,25.6585 0,15.9084 -7.6975,25.6586 -7.5693,9.622 -21.425,9.622 -13.9839,0 -21.5532,-9.3654 -7.5693,-9.4937 -7.5693,-25.7869 0,-16.0366 7.5693,-25.6586 7.6976,-9.6219 21.6815,-9.6219 z m 0,8.8522 q -8.8522,0 -13.2141,6.5429 -4.362,6.543 -4.362,19.8854 0,13.3425 4.2337,19.8854 4.3619,6.4147 13.2141,6.4147 8.8523,0 13.0859,-6.4147 4.362,-6.5429 4.362,-20.0137 0,-13.3424 -4.362,-19.7571 -4.2336,-6.5429 -12.9576,-6.5429 z"
       style="font-style:normal;font-variant:normal;font-weight:normal;font-stretch:normal;font-size:128.29293823px;line-height:1000%;font-family:'Fira Mono';-inkscape-font-specification:'Fira Mono';text-align:center;letter-spacing:0px;word-spacing:0px;writing-mode:lr-tb;text-anchor:middle;fill:#ffffff;fill-opacity:1;stroke:none;stroke-width:1px;stroke-linecap:butt;stroke-linejoin:miter;stroke-opacity:1"
       id="path8197"
       inkscape:connector-curvature="0" />
    <path
       d="m 1501.6201,1009.7814 q 5.7732,0 9.3654,4.1054 3.7204,3.977 3.7204,14.6253 l 0,50.2909 -9.8785,0 0,-48.4948 q 0,-7.0561 -0.8981,-9.4936 -0.898,-2.5659 -4.3619,-2.5659 -6.543,0 -11.803,8.0825 l 0,52.4718 -10.0068,0 0,-48.4948 q 0,-7.0561 -0.8981,-9.4936 -0.898,-2.5659 -4.3619,-2.5659 -6.543,0 -11.803,8.0825 l 0,52.4718 -9.8785,0 0,-67.6104 8.339,0 0.7698,7.9542 q 3.079,-4.4903 6.4146,-6.9279 3.4639,-2.4375 8.2108,-2.4375 9.4936,0 12.1878,8.9805 3.079,-4.362 6.5429,-6.6712 3.4639,-2.3093 8.3391,-2.3093 z"
       style="font-style:normal;font-variant:normal;font-weight:normal;font-stretch:normal;font-size:128.29293823px;line-height:1000%;font-family:'Fira Mono';-inkscape-font-specification:'Fira Mono';text-align:center;letter-spacing:0px;word-spacing:0px;writing-mode:lr-tb;text-anchor:middle;fill:#ffffff;fill-opacity:1;stroke:none;stroke-width:1px;stroke-linecap:butt;stroke-linejoin:miter;stroke-opacity:1"
       id="path8199"
       inkscape:connector-curvature="0" />
  </g>
</svg>
