<?xml version="1.0" encoding="UTF-8" standalone="no"?>
<svg
   xmlns:dc="http://purl.org/dc/elements/1.1/"
   xmlns:cc="http://creativecommons.org/ns#"
   xmlns:rdf="http://www.w3.org/1999/02/22-rdf-syntax-ns#"
   xmlns:svg="http://www.w3.org/2000/svg"
   xmlns="http://www.w3.org/2000/svg"
   width="130cm"
   height="34cm"
   viewBox="0 0 4606.2993 1204.7244"
   id="svg2"
   version="1.1">
  <defs
     id="defs4" />
  <metadata
     id="metadata7">
    <rdf:RDF>
      <cc:Work
         rdf:about="">
        <dc:format>image/svg+xml</dc:format>
        <dc:type
           rdf:resource="http://purl.org/dc/dcmitype/StillImage" />
        <dc:title></dc:title>
      </cc:Work>
    </rdf:RDF>
  </metadata>
  <flowRoot
     transform="translate(1073.7762,-2528.3927)"
     style="font-style:normal;font-variant:normal;font-weight:normal;font-stretch:normal;font-size:25px;line-height:100%;font-family:Ubuntu;-inkscape-font-specification:'Ubuntu, Normal';text-align:start;letter-spacing:0px;word-spacing:0px;writing-mode:lr-tb;text-anchor:start;fill:#000000;fill-opacity:1;stroke:none;stroke-width:1px;stroke-linecap:butt;stroke-linejoin:miter;stroke-opacity:1"
     id="flowRoot6877"
     xml:space="preserve"><flowRegion
       id="flowRegion6879"><rect
         y="532.03601"
         x="834.28571"
         height="277.14285"
         width="848.57141"
         id="rect6881" /></flowRegion><flowPara
       id="flowPara6883" /></flowRoot>  <g
     style="fill:#1a1a1a"
     transform="matrix(0.95744025,0,0,1,1153.9841,-2529.8207)"
     id="g7438">
    <g
       transform="matrix(0.85913397,0,0,0.85913397,1006.2086,-425.11908)"
       style="font-style:normal;font-variant:normal;font-weight:normal;font-stretch:normal;font-size:20.68664551px;line-height:100%;font-family:Ubuntu;-inkscape-font-specification:'Ubuntu, Normal';text-align:start;letter-spacing:0px;word-spacing:0px;writing-mode:lr-tb;text-anchor:start;fill:#1a1a1a;fill-opacity:1;stroke:none;stroke-width:1px;stroke-linecap:butt;stroke-linejoin:miter;stroke-opacity:1"
       id="flowRoot6995" />
    <g
       style="font-style:normal;font-variant:normal;font-weight:normal;font-stretch:normal;font-size:35.19487px;line-height:100%;font-family:Ubuntu;-inkscape-font-specification:'Ubuntu, Normal';text-align:start;letter-spacing:0px;word-spacing:0px;writing-mode:lr-tb;text-anchor:start;fill:#1a1a1a;fill-opacity:1;stroke:none;stroke-width:1px;stroke-linecap:butt;stroke-linejoin:miter;stroke-opacity:1"
       id="text7363"
       transform="matrix(0.89226377,0,0,0.89226377,210.13123,98.655779)" />
  </g>
  <g
     id="g3532">
    <path
       id="path8281-8"
       d="m 4029.1911,4e-4 0,0.4355 c 153.0573,-2e-4 299.846,63.3929 408.074,176.2352 108.228,112.8424 169.0299,265.8902 169.0301,425.4736 2e-4,103.7613 -25.7138,204.7539 -73.4462,293.734 -0.01,0.016 -0.017,0.033 -0.026,0.049 -3.1932,5.9512 -6.485,11.848 -9.8741,17.6889 -0.02,0.034 -0.04,0.069 -0.06,0.1035 -5.02,8.6477 -10.2541,17.1704 -15.6978,25.5611 -0.1587,0.2446 -0.3166,0.4897 -0.4756,0.7341 -3.5492,5.4532 -7.1875,10.8496 -10.9134,16.1875 -0.2129,0.305 -0.427,0.6091 -0.6404,0.9137 -1.7778,2.5369 -3.5719,5.0617 -5.3893,7.5715 -0.069,0.095 -0.1369,0.1917 -0.206,0.287 -1.9206,2.6491 -3.8629,5.2831 -5.8275,7.9015 -0.1924,0.2565 -0.3876,0.511 -0.5805,0.7673 -1.7591,2.3368 -3.5371,4.6604 -5.3312,6.9721 -0.2635,0.3396 -0.5259,0.68 -0.7902,1.0191 -3.9183,5.0266 -7.919,9.993 -12.0013,14.8969 -0.3796,0.456 -0.7614,0.9098 -1.1423,1.3649 -1.7196,2.0532 -3.4538,4.0957 -5.202,6.1267 -0.355,0.4125 -0.7057,0.8281 -1.0618,1.2397 -2.0269,2.3416 -4.0734,4.6666 -6.1383,6.978 -0.3559,0.3983 -0.716,0.7935 -1.073,1.1909 -1.7312,1.9275 -3.4762,3.8441 -5.2338,5.75 -0.5238,0.5678 -1.0469,1.1364 -1.573,1.7025 -2.0991,2.2581 -4.2101,4.5068 -6.3462,6.7339 -3.3821,3.5262 -6.8015,7.0043 -10.258,10.4338 -1.7282,1.7146 -3.4649,3.4172 -5.2113,5.1076 -1.7468,1.6904 -3.5029,3.3671 -5.2676,5.0331 -3.5288,3.3315 -7.0932,6.6134 -10.6924,9.8461 -3.5992,3.2329 -7.2327,6.416 -10.9003,9.5493 -1.8338,1.5666 -3.6754,3.1209 -5.526,4.6624 -3e-4,4e-4 0,-3e-4 0,0 -3.7007,3.0828 -7.4356,6.1163 -11.2017,9.0983 -1.8833,1.4911 -3.7747,2.9702 -5.674,4.4359 -3.7985,2.9315 -7.6272,5.812 -11.4882,8.6414 -3.861,2.8294 -7.754,5.6085 -11.6755,8.3349 -3.9216,2.7265 -7.8733,5.3999 -11.8534,8.0225 -11.9404,7.8679 -24.1395,15.2671 -36.5715,22.1854 -6.216,3.4592 -12.4905,6.7984 -18.8194,10.0158 -10.5481,5.3624 -21.2476,10.3867 -32.0847,15.0669 -4.3349,1.8721 -8.6911,3.6897 -13.0687,5.4513 -13.133,5.2844 -26.4539,10.0687 -39.9365,14.3424 -6e-4,10e-5 0,-2e-4 0,0 -40.4474,12.8204 -82.3488,21.04 -124.9852,24.3486 -4.7374,0.3675 -9.4845,0.6755 -14.2391,0.9215 -9.5092,0.4919 -19.0506,0.74 -28.6167,0.74 l 0,0.8688 -864.5315,0 -0.1012,0 -2384.0944,0 L 722.3262,1104.0831 -2.8000022e-6,0.4341 186.5256,0.3731 185.5089,1e-4 l 1167.1494,0 2676.5368,0 z"
       style="color:#000000;clip-rule:nonzero;display:inline;overflow:visible;visibility:visible;opacity:1;isolation:auto;mix-blend-mode:normal;color-interpolation:sRGB;color-interpolation-filters:linearRGB;solid-color:#000000;solid-opacity:1;fill:#333333;fill-opacity:1;fill-rule:evenodd;stroke:none;stroke-width:1px;stroke-linecap:butt;stroke-linejoin:miter;stroke-miterlimit:4;stroke-dasharray:none;stroke-dashoffset:0;stroke-opacity:1;color-rendering:auto;image-rendering:auto;shape-rendering:auto;text-rendering:auto;enable-background:accumulate" />
    <path
       id="path8283-7"
       d="m 4025.6379,8.1772 0,0.4289 c 152.55,-2e-4 298.852,62.4485 406.7213,173.6081 107.8694,111.1597 168.4699,261.9247 168.4701,419.1284 2e-4,157.2041 -60.6,307.9696 -168.4694,419.1296 -107.8694,111.1601 -254.1717,173.609 -406.722,173.6087 l 0,0.8559 -3237.9606,0 L 94.258798,8.6061 195.8716,8.6061 194.69,8.1772 Z"
       style="color:#000000;clip-rule:nonzero;display:inline;overflow:visible;visibility:visible;opacity:1;isolation:auto;mix-blend-mode:normal;color-interpolation:sRGB;color-interpolation-filters:linearRGB;solid-color:#000000;solid-opacity:1;fill:#ffffff;fill-opacity:1;fill-rule:evenodd;stroke:none;stroke-width:1px;stroke-linecap:butt;stroke-linejoin:miter;stroke-miterlimit:4;stroke-dasharray:none;stroke-dashoffset:0;stroke-opacity:1;color-rendering:auto;image-rendering:auto;shape-rendering:auto;text-rendering:auto;enable-background:accumulate" />
    <path
       style="color:#000000;clip-rule:nonzero;display:inline;overflow:visible;visibility:visible;opacity:1;isolation:auto;mix-blend-mode:normal;color-interpolation:sRGB;color-interpolation-filters:linearRGB;solid-color:#000000;solid-opacity:1;fill:#ff372d;fill-opacity:1;fill-rule:evenodd;stroke:none;stroke-width:1px;stroke-linecap:butt;stroke-linejoin:miter;stroke-miterlimit:4;stroke-dasharray:none;stroke-dashoffset:0;stroke-opacity:1;color-rendering:auto;image-rendering:auto;shape-rendering:auto;text-rendering:auto;enable-background:accumulate"
       d="m 1376.022,8.1772 -64.6579,125.4505 1852.6076,1061.3092 -2002.18,-2.1812 -329.0829,-191.2066 c -27.14,50.367 -81.6015,126.5325 -81.6015,126.5325 L 9.7959976,8.6046 Z"
       id="path8285-6" />
    <path
       id="path8287-5"
       style="fill:#ff2c28;fill-opacity:1;fill-rule:evenodd;stroke:none"
       d="m 1388.2194,856.1897 c -37.5572,137.3313 -22.0002,264.5519 40.9818,297.8015 71.0649,37.4979 175.5661,-58.8172 233.4238,-215.1437 57.8511,-156.3246 47.1527,-313.4539 -23.9066,-350.9586 -43.858,-23.1508 -100.4418,4.697 -150.9485,66.135 103.6438,36.8806 188.314,68.4371 119.1179,255.4024 -32.7967,88.6079 -92.0314,143.2087 -132.3092,121.9435 -31.994,-16.8922 -42.3993,-76.5847 -28.8745,-144.8431 z M 252.2683,133.7878 c 217.9635,19.4676 487.4577,14.9478 677.4757,-5.7391 190.0136,-20.692 169.8234,250.6988 108.3535,417.8476 C 976.6347,713.0519 822.9695,914.4403 707.146,733.3575 591.3277,552.2865 411.7568,312.2617 252.2683,133.7878 Z m 97.4354,65.9448 505.7844,366.2046 c 70.7699,51.2346 35.8089,124.0449 -47.8727,48.3102 z M 367.3101,174.217 920.472,412.6549 c 115.5986,49.8315 122.9917,-175.1529 -32.8849,-174.5611 -189.8556,0.7119 -322.045,-38.3612 -520.277,-63.8768 z m 712.6784,391.931 c -37.1851,100.459 -26.3381,203.5286 24.2177,230.2092 50.5573,26.6943 121.6821,-33.118 158.8616,-133.5837 37.1797,-100.4539 26.3385,-203.5219 -24.2187,-230.2161 -50.5559,-26.6806 -121.6811,33.1316 -158.8606,133.5906 z m 273.8758,215.5771 215.6202,114.1703 c 0.6663,-1.6932 1.3164,-3.4135 1.9557,-5.1388 13.7273,-37.0966 19.3775,-73.5085 17.4147,-102.3715 -0.7596,-11.1259 -2.3824,-20.3226 -4.8081,-26.6604 l -191.3314,-101.309 c -82.6588,-43.7651 -121.0525,77.7905 -38.8511,121.3094 z m 732.8971,368.3009 192.7406,5.8675 -549.3541,-316.8203 c -6.6768,38.5724 -17.332,78.6136 -32.0693,118.4457 l -2.0285,5.3952 z" />
    <path
       id="path8289"
       style="font-style:normal;font-variant:normal;font-weight:500;font-stretch:normal;font-size:medium;line-height:1000%;font-family:'Fira Sans';-inkscape-font-specification:'Fira Sans Medium';text-align:start;letter-spacing:0px;word-spacing:0px;writing-mode:lr-tb;text-anchor:start;fill:#ffffff;fill-opacity:1;stroke:none;stroke-width:1px;stroke-linecap:butt;stroke-linejoin:miter;stroke-opacity:1"
       d="m 1056.8365,809.34078 q 17.3856,10.05122 20.4898,27.66171 3.262,17.70179 -8.6167,38.24845 -11.8786,20.54665 -28.847,26.5525 -16.8771,5.84787 -35.8431,-5.11707 -15.64709,-9.04613 -22.10977,-25.22429 l 16.20286,-6.87018 q 2.50651,5.87751 5.63541,9.58441 3.2869,3.79812 8.6607,6.90492 17.0695,9.86843 32.3315,-12.51792 l -31.7683,-18.36639 7.4014,-12.80218 31.7683,18.36639 q 5.3812,-11.86132 4.1292,-19.5441 -1.094,-7.5914 -9.1546,-12.25155 -5.0576,-2.92398 -10.4635,-4.15139 -5.2477,-1.136 -11.5673,-0.78285 l -2.0226,-16.56345 q 8.5893,-1.36066 16.756,0.19771 8.3249,1.64966 17.0177,6.67528 z" />
    <path
       id="path8291"
       style="font-style:normal;font-variant:normal;font-weight:500;font-stretch:normal;font-size:medium;line-height:1000%;font-family:'Fira Sans';-inkscape-font-specification:'Fira Sans Medium';text-align:start;letter-spacing:0px;word-spacing:0px;writing-mode:lr-tb;text-anchor:start;fill:#ffffff;fill-opacity:1;stroke:none;stroke-width:1px;stroke-linecap:butt;stroke-linejoin:miter;stroke-opacity:1"
       d="m 1160.3057,892.98908 -24.498,-14.16316 -39.3825,68.1201 -20.2306,-11.69594 39.3825,-68.1201 -25.9203,-14.98546 8.9547,-15.48899 73.1776,42.30648 -11.4834,14.02707 z" />
    <path
       id="path8293-1"
       style="font-style:normal;font-variant:normal;font-weight:500;font-stretch:normal;font-size:medium;line-height:1000%;font-family:'Fira Sans';-inkscape-font-specification:'Fira Sans Medium';text-align:start;letter-spacing:0px;word-spacing:0px;writing-mode:lr-tb;text-anchor:start;fill:#ffffff;fill-opacity:1;stroke:none;stroke-width:1px;stroke-linecap:butt;stroke-linejoin:miter;stroke-opacity:1"
       d="m 1206.5791,981.10678 q -2.8326,4.89961 -2.7808,8.09272 0.3013,3.12647 2.8893,6.3097 l -12.0341,10.9673 q -6.7469,-4.7441 -9.777,-10.08089 -2.7797,-5.4038 -1.6792,-12.77991 -7.9224,3.85499 -16.23,3.26958 -8.0582,-0.65202 -15.9607,-5.22067 -12.4861,-7.21862 -15.6445,-18.53414 -3.1585,-11.3156 3.5118,-22.85337 7.8583,-13.59238 21.7693,-15.03947 14.1605,-1.51373 32.4943,9.08575 l 10.4314,6.0307 2.7413,-4.74151 q 4.6601,-8.06059 2.6943,-13.41463 -1.7162,-5.42063 -9.9349,-10.17215 -9.1669,-5.2997 -24.6856,-8.36709 l 3.2081,-16.49167 q 19.1192,3.04016 33.818,11.53796 32.0844,18.54914 15.4542,47.3144 l -20.2852,35.08739 z m -41.7009,-11.03423 q 10.2734,5.93936 22.0605,-0.95309 l 9.7771,-16.91155 -8.3767,-4.84278 q -19.5983,-11.33047 -28.0047,3.21025 -3.4723,6.00593 -2.3882,11.06106 1.0841,5.05522 6.932,8.43611 z" />
    <path
       id="path8295-1"
       style="font-style:normal;font-variant:normal;font-weight:500;font-stretch:normal;font-size:medium;line-height:1000%;font-family:'Fira Sans';-inkscape-font-specification:'Fira Sans Medium';text-align:start;letter-spacing:0px;word-spacing:0px;writing-mode:lr-tb;text-anchor:start;fill:#ffffff;fill-opacity:1;stroke:none;stroke-width:1px;stroke-linecap:butt;stroke-linejoin:miter;stroke-opacity:1"
       d="m 1323.0762,1018.513 -3.3244,57.5457 -21.1789,-12.2442 3.8133,-46.7192 -9.1669,-5.2997 -21.1989,36.6679 -18.176,-10.5081 21.1991,-36.6679 -9.009,-5.20835 -38.7426,26.52535 -20.8628,-12.0615 48.053,-31.68668 2.655,-50.55184 19.7564,11.4219 -3.4083,42.73565 9.3251,5.39116 19.3714,-33.5069 18.1759,10.50814 -19.3714,33.50685 9.483,5.48252 35.4927,-24.1867 19.5984,11.33047 -42.4841,27.52543 z" />
    <path
       id="path8297"
       style="font-style:normal;font-variant:normal;font-weight:500;font-stretch:normal;font-size:795.34130859px;line-height:1000%;font-family:'Fira Mono';-inkscape-font-specification:'Fira Mono Medium';text-align:start;letter-spacing:0px;word-spacing:0px;writing-mode:lr-tb;text-anchor:start;fill:#ffffff;fill-opacity:1;stroke:none;stroke-width:1px;stroke-linecap:butt;stroke-linejoin:miter;stroke-opacity:1"
       d="m 1480.4571,409.9932 q 41.7039,24.11046 62.5367,57.42984 21.4459,33.67391 21.7906,69.87751 0.3448,36.20364 -19.1563,69.93486 -21.6286,37.41084 -59.3656,63.05409 -37.3824,25.02977 -100.8395,45.62275 -63.1026,19.97961 -170.5062,42.98714 l 191.961,110.97905 -39.2705,50.94165 -263.103,-152.10868 30.1382,-52.12993 q 124.0488,-30.56829 188.1192,-50.8066 64.425,-20.85163 98.0989,-42.2976 33.6739,-21.44588 51.7568,-52.72392 18.4374,-31.89129 10.6755,-60.92708 -7.7618,-29.03576 -39.6531,-47.47318 -27.5982,-15.95544 -53.2511,-16.87556 -24.6852,-1.17885 -58.1386,11.39352 l -24.3016,-59.8732 q 43.937,-17.96738 85.6604,-15.12102 42.0778,2.23311 86.8482,28.11636 z" />
    <path
       id="path8299"
       d="m 4527.6268,890.6965 c -25.5944,47.1565 -57.5343,90.8914 -95.2671,129.7752 -107.8693,111.1601 -254.1712,173.6096 -406.7215,173.6093 l 0,0.8558 -861.7672,0 -568.2429,-304.2403 1931.9987,0 z"
       style="color:#000000;clip-rule:nonzero;display:inline;overflow:visible;visibility:visible;opacity:1;isolation:auto;mix-blend-mode:normal;color-interpolation:sRGB;color-interpolation-filters:linearRGB;solid-color:#000000;solid-opacity:1;fill:#5e890a;fill-opacity:1;fill-rule:evenodd;stroke:none;stroke-width:1px;stroke-linecap:butt;stroke-linejoin:miter;stroke-miterlimit:4;stroke-dasharray:none;stroke-dashoffset:0;stroke-opacity:1;color-rendering:auto;image-rendering:auto;shape-rendering:auto;text-rendering:auto;enable-background:accumulate" />
    <path
       d="m 2357.3199,159.6981 c 68.3612,-11.5012 134.881,4.9439 188.6083,41.1852 -7.0401,5.1425 -13.4253,10.9923 -19.1114,17.4024 -50.3322,-34.4319 -112.8969,-50.145 -177.2122,-39.3246 -116.4598,19.5924 -200.6815,119.7492 -207.8354,236.2112 11.2505,130.5221 113.8878,214.3228 222.0994,117.4589 78.6349,67.5827 188.0281,-16.4393 222.5984,54.875 4.1755,-5.602 8.1288,-11.3782 11.842,-17.3172 2.7143,-4.3426 5.291,-8.7283 7.7374,-13.1561 -49.0251,-46.5659 -177.6637,23.6512 -234.6363,-25.9583 75.9426,22.0302 207.521,-44.2719 260.32,-40.9131 7.7694,-34.5714 7.7013,-70.6089 -1.2625,-107.0395 l 25.0301,-27.2161 c 24.588,73.3889 6.6441,165.7766 -35.121,229.0733 -39.6451,60.0896 -102.2206,103.9299 -177.2859,116.5583 -60.4725,10.1737 -119.4969,-1.5262 -169.5078,-29.4438 18.0745,-11.3593 35.5209,-32.334 44.3436,-69.5838 -30.5804,46.2769 -79.8719,46.1917 -105.5062,22.7245 -38.432,-39.3396 -65.6206,-91.0862 -75.01,-150.404 -6.0896,-38.4695 -4.0876,-76.3715 4.6891,-111.8739 l 0.029,-0.2248 -0.01,0.1359 c 25.3828,-102.5457 107.408,-185.0358 215.1987,-203.1697 z"
       style="fill:#5e890a;fill-opacity:1;fill-rule:evenodd;stroke:none"
       id="path8301-4" />
    <path
       d="m 2351.9773,412.2183 c 12.6144,39.4262 7.3892,75.9498 -13.7646,85.4954 -23.8687,10.7652 -58.9676,-16.8858 -78.4004,-61.7653 -19.4304,-44.879 -15.8371,-89.989 8.0296,-100.7562 14.7307,-6.6463 33.7355,1.3484 50.6993,18.9866 -34.8109,10.588 -63.2493,19.6475 -40.0083,73.3231 11.0155,25.4383 30.9106,41.1136 44.4389,35.0086 10.7458,-4.8495 14.2406,-21.9866 9.6981,-41.5828 z M 2733.5104,204.825 c -73.2076,5.5889 -163.7229,4.2913 -227.5444,-1.6477 -63.8202,-5.9404 -57.0389,71.9728 -36.3929,119.9593 20.6436,47.9885 72.2553,105.8048 111.1571,53.818 38.8999,-51.9834 99.2126,-120.8918 152.7802,-172.1296 z m -32.7257,18.9319 -169.8784,105.1332 c -23.7695,14.7089 -12.0271,35.6119 16.0791,13.8693 z m -5.9135,-7.3251 -185.7911,68.4527 c -38.8262,14.3061 -41.3093,-50.2844 11.0451,-50.1145 63.767,0.2045 108.1656,-11.0131 174.746,-18.3382 z m -239.3681,112.5188 c 12.4894,28.8407 8.8463,58.4308 -8.134,66.0905 -16.9807,7.6636 -40.8695,-9.5078 -53.357,-38.3504 -12.4876,-28.8392 -8.8463,-58.4288 8.1343,-66.0924 16.9803,-7.6597 40.8692,9.5117 53.3567,38.3523 z m -91.9869,61.8897 -72.4206,32.7771 c -0.2238,-0.4861 -0.4422,-0.98 -0.6568,-1.4753 -4.6107,-10.6501 -6.5084,-21.1035 -5.8492,-29.3897 0.2551,-3.1941 0.8002,-5.8344 1.6149,-7.6539 l 64.2627,-29.0847 c 27.7627,-12.5644 40.6581,22.3328 13.049,34.8265 z m -201.461,91.0654 c -4.5335,-9.6647 -9.3071,-25.5912 -11.1588,-35.6268 l 86.237,-38.9745 c 2.2425,11.0736 5.8213,22.569 10.7712,34.0044 l 0.6812,1.5489 z"
       style="fill:#ff352d;fill-opacity:1;fill-rule:evenodd;stroke:none"
       id="path8303-8" />
    <path
       d="m 2752.2639,308.1272 0,189.6144 -24.1826,0 0,-210.7687 24.1826,0 0,0.1298 94.191,0 0,-0.1298 24.1839,0 0,210.7687 -24.1839,0 0,-189.6144 z"
       style="fill:#ff352d;fill-opacity:1;fill-rule:nonzero;stroke:none"
       id="path8305-5" />
    <path
       d="m 2937.0846,406.5465 0,91.1951 -25.032,0 0,-210.7687 45.9635,0 c 53.9311,0 80.896,19.9068 80.896,59.7219 0,39.901 -27.3418,59.8517 -82.0269,59.8517 z m 0,-98.2899 0,76.4898 19.5174,0 c 38.2789,0 57.4193,-12.6826 57.4193,-38.0516 0,-25.6258 -19.1404,-38.4382 -57.4193,-38.4382 z"
       style="fill:#ff352d;fill-opacity:1;fill-rule:nonzero;stroke:none"
       id="path8307-7" />
    <path
       d="m 3087.4844,391.584 c 0.7539,58.2172 21.9208,87.3251 63.5004,87.3251 41.2026,0 62.4633,-29.1079 63.7836,-87.3251 -1.3203,-58.1316 -22.581,-87.1975 -63.7836,-87.1975 -41.5796,0 -62.7465,29.0659 -63.5004,87.1975 z m -26.5898,0 c 2.5467,-72.8369 32.6708,-109.2544 90.3734,-109.2544 57.4193,0 87.2603,36.4175 89.522,109.2544 -2.2617,72.6637 -32.1027,108.9954 -89.522,108.9954 -57.7026,0 -87.8267,-36.3317 -90.3734,-108.9954 z"
       style="fill:#ff352d;fill-opacity:1;fill-rule:nonzero;stroke:none"
       id="path8309" />
    <path
       d="m 3355.2077,339.6004 c -46.484,2.9236 -69.7251,20.4227 -69.7251,52.4996 0,32.1608 23.2411,49.8336 69.7251,53.0141 z m 24.1826,-0.1293 0,105.643 c 46.578,-2.4073 69.8666,-20.0796 69.8666,-53.0141 0,-32.6786 -23.2886,-50.2197 -69.8666,-52.6289 z m -24.1826,-21.541 0,-30.9572 24.1826,0 0,30.8279 c 63.5486,3.2682 95.3232,28.1209 95.3232,74.5565 0,46.7806 -31.7746,71.6752 -95.3232,74.6843 l 0,30.7 -24.1826,0 0,-30.8274 c -63.4546,-4.3005 -95.1817,-29.1517 -95.1817,-74.5569 0,-45.232 31.7271,-70.0407 95.1817,-74.4272 z"
       style="fill:#ff352d;fill-opacity:1;fill-rule:nonzero;stroke:none"
       id="path8311-6" />
    <path
       style="fill:#5e890a;fill-opacity:1;fill-rule:nonzero;stroke:none"
       d="m 3640.3372,286.0332 c -20.353,0.085 -37.9613,9.2885 -52.8297,27.6159 l 0.26,0.1262 -66.8893,89.3413 0,-116.0464 -15.262,0 0,210.3239 15.262,0 0,-68.9862 41.8133,-55.754 53.4233,96.2136 c 10.364,16.9524 23.7237,26.1923 39.9855,27.8955 l 0.7595,-15.8401 c -7.3199,-0.057 -18.9415,-6.3593 -27.0773,-18.7996 l -57.0093,-102.954 28.6752,-38.3837 c 10.4418,-12.276 23.4027,-18.4598 38.8888,-18.5471 l 0,-16.2053 z m 91.3283,2.142 -65.9679,209.2209 16.0609,0 24.1564,-76.8781 70.0853,0 24.2901,76.8781 15.9271,0 -65.9677,-209.2209 -18.5842,0 z m 116.8717,0 0,209.2209 16.0609,0 0,-93.5164 23.0973,0 c 49.9971,0 74.9961,-19.3058 74.9961,-57.9154 0,-38.526 -24.6445,-57.7891 -73.9352,-57.7891 l -40.2191,0 z m 140.2629,0 0,209.2209 15.2656,0 0,-99.4508 90.3937,0 0,99.4508 15.2657,0 0,-209.2209 -15.2657,0 0,94.9378 -90.3937,0 0,-94.9378 -15.2656,0 z m 163.1944,0 0,209.2209 12.4767,0 116.0124,-179.1641 0,179.1641 15.2657,0 0,-209.2209 -15.2657,0 -113.2253,176.8454 0,-176.8454 -15.2638,0 z m 242.2533,1.6797 c -21.0608,0 -40.6144,5.5531 -58.6732,16.6072 l 0,16.4829 0.3919,0.6971 c 16.1935,-11.6083 34.3839,-17.4033 54.5596,-17.4033 6.8136,0 13.6663,0.6892 20.5684,2.0642 28.6711,5.6756 43.0175,19.607 43.0175,41.7937 0,16.9393 -10.1883,29.2299 -30.5407,36.8846 l -54.5465,0 0,14.8361 56.9416,0 c 18.76,7.6528 28.1456,19.5995 28.1456,35.8515 0,22.2721 -14.3464,36.2575 -43.0175,41.9335 -6.9021,1.375 -13.7548,2.0623 -20.5684,2.0623 -20.1757,0 -38.3661,-5.8068 -54.5596,-17.417 l -0.3919,0.6991 0,16.481 c 18.0588,11.0536 37.6124,16.6091 58.6732,16.6091 8.9373,0 18.0895,-1.0711 27.4692,-3.2216 33.0956,-7.481 49.6488,-26.3599 49.6488,-56.6299 l 0,-1.1574 c -0.2655,-18.3161 -8.9903,-32.6706 -26.1576,-43.0753 17.1673,-10.4065 25.8921,-24.8131 26.1576,-43.2152 l 0,-1.1573 c 0,-30.1836 -16.5532,-49.0227 -49.6488,-56.5037 -9.3797,-2.1505 -18.5319,-3.2216 -27.4692,-3.2216 z m -529.6497,13.4128 22.8315,0 c 39.5553,0 59.3328,14.2326 59.3328,42.6966 0,28.2049 -19.7775,42.3083 -59.3328,42.3083 l -22.8315,0 0,-85.0049 z m -123.6406,5.9344 30.3957,96.4836 -60.7914,0 30.3957,-96.4836 z"
       id="path8313-6" />
    <path
       id="path8315-9"
       style="font-style:normal;font-variant:normal;font-weight:300;font-stretch:normal;font-size:medium;line-height:1000%;font-family:'Fira Sans';-inkscape-font-specification:'Fira Sans Light';text-align:center;letter-spacing:0px;word-spacing:0px;writing-mode:lr-tb;text-anchor:middle;fill:#333333;fill-opacity:1;stroke:none;stroke-width:1px;stroke-linecap:butt;stroke-linejoin:miter;stroke-opacity:1"
       d="m 2863.6939,628.7705 37.585,62.5842 -11.8962,0 -34.4816,-57.9292 -18.6201,0 0,57.9292 -10.3445,0 0,-118.0997 10.3445,0 0,51.5501 18.7925,0 32.4127,-51.5501 10.8618,0 -34.6541,55.5155 z" />
    <path
       id="path8317"
       style="font-style:normal;font-variant:normal;font-weight:300;font-stretch:normal;font-size:medium;line-height:1000%;font-family:'Fira Sans';-inkscape-font-specification:'Fira Sans Light';text-align:center;letter-spacing:0px;word-spacing:0px;writing-mode:lr-tb;text-anchor:middle;fill:#333333;fill-opacity:1;stroke:none;stroke-width:1px;stroke-linecap:butt;stroke-linejoin:miter;stroke-opacity:1"
       d="m 2976.9671,671.3553 q 0,7.0688 1.7241,10.1721 1.8965,3.1034 5.8619,4.6551 l -2.2413,7.0687 q -6.2067,-1.3793 -9.6549,-4.8274 -3.2758,-3.4482 -4.3102,-10.1721 -9.8273,14.9995 -28.1026,14.9995 -12.9306,0 -20.5166,-7.2412 -7.4135,-7.4135 -7.4135,-19.6545 0,-13.9651 9.8273,-21.551 9.9996,-7.586 27.5853,-7.586 l 17.2408,0 0,-8.7928 q 0,-10.8618 -4.8274,-15.6892 -4.8275,-4.9998 -16.034,-4.9998 -10.3445,0 -24.482,5.1722 l -2.5861,-7.586 q 15.1719,-6.0342 28.4474,-6.0342 29.4818,0 29.4818,28.6197 l 0,43.4469 z m -34.9989,13.7927 q 16.5512,0 24.9992,-16.2064 l 0,-24.482 -15.6891,0 q -13.7927,0 -21.0339,5.3447 -7.2411,5.3447 -7.2411,16.034 0,9.31 4.9998,14.3099 4.9999,4.9998 13.9651,4.9998 z" />
    <path
       id="path8319-1"
       style="font-style:normal;font-variant:normal;font-weight:300;font-stretch:normal;font-size:medium;line-height:1000%;font-family:'Fira Sans';-inkscape-font-specification:'Fira Sans Light';text-align:center;letter-spacing:0px;word-spacing:0px;writing-mode:lr-tb;text-anchor:middle;fill:#333333;fill-opacity:1;stroke:none;stroke-width:1px;stroke-linecap:butt;stroke-linejoin:miter;stroke-opacity:1"
       d="m 3050.5873,599.2887 q 16.3788,0 24.482,12.2409 8.2756,12.0686 8.2756,34.3093 0,21.7234 -8.9653,34.6541 -8.7928,12.7582 -25.344,12.7582 -8.1032,0 -14.6547,-3.2758 -6.5515,-3.4481 -11.0341,-9.1376 l 0,44.4813 -9.9997,1.3793 0,-125.5133 8.6204,0 0.8621,13.1031 q 4.9998,-7.0688 12.0685,-11.0342 7.0688,-3.9653 15.6892,-3.9653 z m -3.4482,85.5145 q 12.4134,0 18.9649,-9.8273 6.5516,-9.8273 6.5516,-29.137 0,-38.2746 -23.9648,-38.2746 -8.1032,0 -14.1375,4.1378 -5.8619,4.1378 -11.2065,11.3789 l 0,47.9295 q 4.3102,6.5515 10.3445,10.1721 6.0343,3.6206 13.4478,3.6206 z" />
    <path
       id="path8321"
       style="font-style:normal;font-variant:normal;font-weight:300;font-stretch:normal;font-size:medium;line-height:1000%;font-family:'Fira Sans';-inkscape-font-specification:'Fira Sans Light';text-align:center;letter-spacing:0px;word-spacing:0px;writing-mode:lr-tb;text-anchor:middle;fill:#333333;fill-opacity:1;stroke:none;stroke-width:1px;stroke-linecap:butt;stroke-linejoin:miter;stroke-opacity:1"
       d="m 3168.3411,648.9423 -44.8262,0 0,42.4124 -9.9997,0 0,-90.1696 9.9997,0 0,39.3091 44.8262,0 0,-39.3091 9.9997,0 0,90.1696 -9.9997,0 0,-42.4124 z" />
    <path
       id="path8323-4"
       style="font-style:normal;font-variant:normal;font-weight:300;font-stretch:normal;font-size:medium;line-height:1000%;font-family:'Fira Sans';-inkscape-font-specification:'Fira Sans Light';text-align:center;letter-spacing:0px;word-spacing:0px;writing-mode:lr-tb;text-anchor:middle;fill:#333333;fill-opacity:1;stroke:none;stroke-width:1px;stroke-linecap:butt;stroke-linejoin:miter;stroke-opacity:1"
       d="m 3280.4087,691.3547 -9.8273,0 0,-55.8603 q 0,-10.8617 1.0345,-22.7579 l -44.9986,78.6182 -11.7238,0 0,-90.1696 9.9997,0 0,52.9294 q 0,8.7928 -1.0345,25.344 l 44.8262,-78.2734 11.7238,0 0,90.1696 z" />
    <path
       id="path8325-3"
       style="font-style:normal;font-variant:normal;font-weight:300;font-stretch:normal;font-size:medium;line-height:1000%;font-family:'Fira Sans';-inkscape-font-specification:'Fira Sans Light';text-align:center;letter-spacing:0px;word-spacing:0px;writing-mode:lr-tb;text-anchor:middle;fill:#333333;fill-opacity:1;stroke:none;stroke-width:1px;stroke-linecap:butt;stroke-linejoin:miter;stroke-opacity:1"
       d="m 3336.788,599.2887 q 12.5858,0 20.8614,6.3791 8.4481,6.3791 8.4481,17.4132 0,16.2064 -18.7926,20.1718 11.5514,1.2068 17.4133,6.5515 6.0343,5.1722 6.0343,15.5167 0,13.4479 -9.6549,20.689 -9.4824,7.2412 -24.8268,7.2412 -10.6893,0 -18.7925,-3.1034 -8.1032,-3.1033 -14.8271,-8.6204 l 5.5171,-6.2067 q 6.0342,4.6551 12.4134,7.0688 6.5515,2.4137 15.3443,2.4137 11.0341,0 17.5856,-4.655 6.724,-4.6551 6.724,-14.9996 0,-9.1376 -6.8964,-13.103 -6.8963,-3.9654 -19.6545,-3.9654 l -10.6893,0 0.6896,-8.1032 8.6204,0 q 11.2066,0 17.4133,-4.3102 6.2067,-4.3102 6.2067,-12.4134 0,-7.586 -5.5171,-11.5513 -5.3447,-4.1378 -14.4823,-4.1378 -7.7584,0 -13.4479,1.8964 -5.517,1.7241 -11.8961,5.6895 l -4.8275,-6.2067 q 6.8964,-4.8274 14.3099,-7.2411 7.4136,-2.4137 16.7236,-2.4137 z" />
    <path
       id="path8327-6"
       style="font-style:normal;font-variant:normal;font-weight:300;font-stretch:normal;font-size:medium;line-height:1000%;font-family:'Fira Sans';-inkscape-font-specification:'Fira Sans Light';text-align:center;letter-spacing:0px;word-spacing:0px;writing-mode:lr-tb;text-anchor:middle;fill:#333333;fill-opacity:1;stroke:none;stroke-width:1px;stroke-linecap:butt;stroke-linejoin:miter;stroke-opacity:1"
       d="m 3424.1981,631.529 q 36.0333,0 36.0333,29.3094 0,15.172 -9.4824,22.9303 -9.4825,7.586 -24.6544,7.586 l -26.0337,0 0,-90.1696 9.9997,0 0,30.3439 14.1375,0 z m 62.4118,-30.3439 0,90.1696 -9.9997,0 0,-90.1696 9.9997,0 z m -61.3774,81.894 q 11.7238,0 17.9305,-5.1722 6.3791,-5.3447 6.3791,-17.0685 0,-10.5169 -5.8619,-15.8615 -5.6894,-5.3447 -19.3097,-5.3447 l -14.3099,0 0,43.4469 15.1719,0 z" />
    <path
       id="path8329-7"
       style="font-style:normal;font-variant:normal;font-weight:300;font-stretch:normal;font-size:medium;line-height:1000%;font-family:'Fira Sans';-inkscape-font-specification:'Fira Sans Light';text-align:center;letter-spacing:0px;word-spacing:0px;writing-mode:lr-tb;text-anchor:middle;fill:#333333;fill-opacity:1;stroke:none;stroke-width:1px;stroke-linecap:butt;stroke-linejoin:miter;stroke-opacity:1"
       d="m 3636.7743,691.3547 -9.8273,0 0,-55.8603 q 0,-10.8617 1.0345,-22.7579 l -44.9986,78.6182 -11.7238,0 0,-90.1696 9.9997,0 0,52.9294 q 0,8.7928 -1.0345,25.344 l 44.8262,-78.2734 11.7238,0 0,90.1696 z" />
    <path
       id="path8331-6"
       style="font-style:normal;font-variant:normal;font-weight:300;font-stretch:normal;font-size:medium;line-height:1000%;font-family:'Fira Sans';-inkscape-font-specification:'Fira Sans Light';text-align:center;letter-spacing:0px;word-spacing:0px;writing-mode:lr-tb;text-anchor:middle;fill:#333333;fill-opacity:1;stroke:none;stroke-width:1px;stroke-linecap:butt;stroke-linejoin:miter;stroke-opacity:1"
       d="m 3822.1136,691.3547 -100.6865,0 0,-90.1696 9.8273,0 0,81.7216 35.6885,0 0,-81.7216 9.6549,0 0,81.7216 35.6885,0 0,-81.7216 9.8273,0 0,90.1696 z" />
    <path
       id="path8333"
       style="font-style:normal;font-variant:normal;font-weight:300;font-stretch:normal;font-size:medium;line-height:1000%;font-family:'Fira Sans';-inkscape-font-specification:'Fira Sans Light';text-align:center;letter-spacing:0px;word-spacing:0px;writing-mode:lr-tb;text-anchor:middle;fill:#333333;fill-opacity:1;stroke:none;stroke-width:1px;stroke-linecap:butt;stroke-linejoin:miter;stroke-opacity:1"
       d="m 3912.7986,609.8056 -29.999,0 0,81.5491 -9.9997,0 0,-81.5491 -31.0335,0 0,-8.6205 72.2391,0 -1.2069,8.6205 z" />
    <path
       id="path8335"
       style="font-style:normal;font-variant:normal;font-weight:300;font-stretch:normal;font-size:medium;line-height:1000%;font-family:'Fira Sans';-inkscape-font-specification:'Fira Sans Light';text-align:center;letter-spacing:0px;word-spacing:0px;writing-mode:lr-tb;text-anchor:middle;fill:#333333;fill-opacity:1;stroke:none;stroke-width:1px;stroke-linecap:butt;stroke-linejoin:miter;stroke-opacity:1"
       d="m 3962.6271,599.2887 q 17.9305,0 27.9301,12.4134 10.1721,12.2409 10.1721,34.3092 0,21.8959 -10.3445,34.6541 -10.1721,12.5858 -27.9301,12.5858 -17.9305,0 -28.1026,-12.4134 -9.9997,-12.5858 -9.9997,-34.4817 0,-14.3099 4.6551,-24.9992 4.655,-10.6893 13.2754,-16.3788 8.6204,-5.6894 20.3442,-5.6894 z m 0,8.448 q -13.103,0 -20.3442,9.8272 -7.2411,9.8273 -7.2411,28.7922 0,18.7925 7.0687,28.6198 7.2411,9.8273 20.3442,9.8273 13.103,0 20.3442,-9.8273 7.4135,-9.8273 7.4135,-28.9646 0,-18.7925 -7.2411,-28.4474 -7.0688,-9.8272 -20.3442,-9.8272 z" />
    <path
       id="path8337"
       style="font-style:normal;font-variant:normal;font-weight:300;font-stretch:normal;font-size:medium;line-height:1000%;font-family:'Fira Sans';-inkscape-font-specification:'Fira Sans Light';text-align:center;letter-spacing:0px;word-spacing:0px;writing-mode:lr-tb;text-anchor:middle;fill:#333333;fill-opacity:1;stroke:none;stroke-width:1px;stroke-linecap:butt;stroke-linejoin:miter;stroke-opacity:1"
       d="m 4067.2814,599.2887 q 16.3788,0 24.482,12.2409 8.2756,12.0686 8.2756,34.3093 0,21.7234 -8.9652,34.6541 -8.7929,12.7582 -25.3441,12.7582 -8.1031,0 -14.6547,-3.2758 -6.5515,-3.4481 -11.0341,-9.1376 l 0,44.4813 -9.9997,1.3793 0,-125.5133 8.6204,0 0.8621,13.1031 q 4.9998,-7.0688 12.0686,-11.0342 7.0687,-3.9653 15.6891,-3.9653 z m -3.4481,85.5145 q 12.4133,0 18.9649,-9.8273 6.5515,-9.8273 6.5515,-29.137 0,-38.2746 -23.9648,-38.2746 -8.1032,0 -14.1375,4.1378 -5.8618,4.1378 -11.2065,11.3789 l 0,47.9295 q 4.3102,6.5515 10.3445,10.1721 6.0343,3.6206 13.4479,3.6206 z" />
    <path
       id="path8339"
       style="font-style:normal;font-variant:normal;font-weight:300;font-stretch:normal;font-size:medium;line-height:1000%;font-family:'Fira Sans';-inkscape-font-specification:'Fira Sans Light';text-align:center;letter-spacing:0px;word-spacing:0px;writing-mode:lr-tb;text-anchor:middle;fill:#333333;fill-opacity:1;stroke:none;stroke-width:1px;stroke-linecap:butt;stroke-linejoin:miter;stroke-opacity:1"
       d="m 4154.3465,631.529 q 36.0333,0 36.0333,29.3094 0,15.172 -9.4824,22.9303 -9.4825,7.586 -24.6544,7.586 l -26.0337,0 0,-90.1696 9.9997,0 0,30.3439 14.1375,0 z m 62.4118,-30.3439 0,90.1696 -9.9997,0 0,-90.1696 9.9997,0 z m -61.3774,81.894 q 11.7238,0 17.9305,-5.1722 6.3791,-5.3447 6.3791,-17.0685 0,-10.5169 -5.8619,-15.8615 -5.6895,-5.3447 -19.3097,-5.3447 l -14.3099,0 0,43.4469 15.1719,0 z" />
    <path
       id="path8341"
       style="font-style:normal;font-variant:normal;font-weight:normal;font-stretch:normal;font-size:128.29293823px;line-height:1000%;font-family:'Fira Mono';-inkscape-font-specification:'Fira Mono';text-align:center;letter-spacing:0px;word-spacing:0px;writing-mode:lr-tb;text-anchor:middle;fill:#ffffff;fill-opacity:1;stroke:none;stroke-width:1px;stroke-linecap:butt;stroke-linejoin:miter;stroke-opacity:1"
       d="m 3121.8664,1009.7813 q 24.504,0 24.504,35.1522 0,16.0367 -6.6713,25.6586 -6.6712,9.622 -19.3722,9.622 -11.0332,0 -17.961,-7.6976 l 0,32.2016 -10.7766,1.2829 0,-94.8085 9.2371,0 0.898,9.4937 q 3.7205,-5.26 8.8523,-8.0825 5.26,-2.8224 11.2897,-2.8224 z m -2.5658,8.7239 q -5.1317,0 -9.4937,3.079 -4.2337,3.0791 -7.441,7.6976 l 0,33.4845 q 2.6942,3.977 6.6712,6.2863 4.1054,2.181 8.8522,2.181 8.4674,0 12.5728,-6.4147 4.2336,-6.5429 4.2336,-19.8854 0,-13.3424 -3.7205,-19.8854 -3.7205,-6.5429 -11.6746,-6.5429 z" />
    <path
       id="path8343"
       style="font-style:normal;font-variant:normal;font-weight:normal;font-stretch:normal;font-size:128.29293823px;line-height:1000%;font-family:'Fira Mono';-inkscape-font-specification:'Fira Mono';text-align:center;letter-spacing:0px;word-spacing:0px;writing-mode:lr-tb;text-anchor:middle;fill:#ffffff;fill-opacity:1;stroke:none;stroke-width:1px;stroke-linecap:butt;stroke-linejoin:miter;stroke-opacity:1"
       d="m 3214.2381,1009.7813 q 4.1054,0 9.4937,1.4112 l -1.5395,22.9644 -8.7239,0 0,-14.4971 -0.6415,0 q -15.6517,0 -22.1947,22.323 l 0,28.481 13.7274,0 0,8.3391 -35.1523,0 0,-8.3391 10.6483,0 0,-50.9323 -10.6483,0 0,-8.339 18.7308,0 2.0527,16.0366 q 4.1053,-8.7239 9.7502,-13.0859 5.7732,-4.3619 14.4971,-4.3619 z" />
    <path
       id="path8345"
       style="font-style:normal;font-variant:normal;font-weight:normal;font-stretch:normal;font-size:128.29293823px;line-height:1000%;font-family:'Fira Mono';-inkscape-font-specification:'Fira Mono';text-align:center;letter-spacing:0px;word-spacing:0px;writing-mode:lr-tb;text-anchor:middle;fill:#ffffff;fill-opacity:1;stroke:none;stroke-width:1px;stroke-linecap:butt;stroke-linejoin:miter;stroke-opacity:1"
       d="m 3271.3293,1009.7813 q 13.9839,0 21.4249,9.4937 7.5693,9.3653 7.5693,25.6585 0,15.9084 -7.6976,25.6586 -7.5693,9.622 -21.4249,9.622 -13.984,0 -21.5532,-9.3654 -7.5693,-9.4937 -7.5693,-25.7869 0,-16.0366 7.5693,-25.6586 7.6975,-9.6219 21.6815,-9.6219 z m 0,8.8522 q -8.8522,0 -13.2142,6.5429 -4.362,6.543 -4.362,19.8854 0,13.3425 4.2337,19.8854 4.362,6.4147 13.2142,6.4147 8.8522,0 13.0859,-6.4147 4.3619,-6.5429 4.3619,-20.0137 0,-13.3424 -4.3619,-19.7571 -4.2337,-6.5429 -12.9576,-6.5429 z" />
    <path
       id="path8347"
       style="font-style:normal;font-variant:normal;font-weight:normal;font-stretch:normal;font-size:128.29293823px;line-height:1000%;font-family:'Fira Mono';-inkscape-font-specification:'Fira Mono';text-align:center;letter-spacing:0px;word-spacing:0px;writing-mode:lr-tb;text-anchor:middle;fill:#ffffff;fill-opacity:1;stroke:none;stroke-width:1px;stroke-linecap:butt;stroke-linejoin:miter;stroke-opacity:1"
       d="m 3362.418,982.7115 q 9.622,0 18.3459,3.5922 l -3.4639,8.0824 q -6.4146,-2.8224 -14.4971,-2.8224 -14.1122,0 -14.1122,11.1615 l 0,13.7273 22.8361,0 -1.1546,8.5956 -21.6815,0 0,53.7548 -10.9049,0 0,-53.7548 -16.0366,0 0,-8.5956 16.0366,0 0,-13.4707 q 0,-9.1088 6.9278,-14.6254 7.0561,-5.6449 17.7044,-5.6449 z" />
    <path
       id="path8349"
       style="font-style:normal;font-variant:normal;font-weight:normal;font-stretch:normal;font-size:128.29293823px;line-height:1000%;font-family:'Fira Mono';-inkscape-font-specification:'Fira Mono';text-align:center;letter-spacing:0px;word-spacing:0px;writing-mode:lr-tb;text-anchor:middle;fill:#ffffff;fill-opacity:1;stroke:none;stroke-width:1px;stroke-linecap:butt;stroke-linejoin:miter;stroke-opacity:1"
       d="m 3411.0418,1078.8029 -10.7766,0 0,-94.8085 10.7766,-1.2829 0,96.0914 z m 14.7537,-37.0767 33.8694,37.0767 -14.2405,0 -33.2279,-36.9484 30.0205,-30.662 13.8557,0 -30.2772,30.5337 z" />
    <path
       id="path8351"
       style="font-style:normal;font-variant:normal;font-weight:normal;font-stretch:normal;font-size:128.29293823px;line-height:1000%;font-family:'Fira Mono';-inkscape-font-specification:'Fira Mono';text-align:center;letter-spacing:0px;word-spacing:0px;writing-mode:lr-tb;text-anchor:middle;fill:#ffffff;fill-opacity:1;stroke:none;stroke-width:1px;stroke-linecap:butt;stroke-linejoin:miter;stroke-opacity:1"
       d="m 3524.9668,1064.0492 q 0,3.9771 1.2829,5.9015 1.2829,1.7961 4.2337,2.6941 l -2.6942,7.6976 q -9.8785,-1.2829 -12.3161,-9.622 -3.5922,4.6186 -9.1088,7.0561 -5.3883,2.4376 -12.0595,2.4376 -10.1352,0 -16.0367,-5.6449 -5.7731,-5.6449 -5.7731,-15.1386 0,-10.3917 8.0824,-16.0366 8.2108,-5.6449 23.4776,-5.6449 l 10.0069,0 0,-5.5166 q 0,-7.1844 -4.1054,-10.2634 -4.1054,-3.2073 -11.9312,-3.2073 -7.6976,0 -17.5762,3.4639 l -2.9507,-8.2108 q 11.9312,-4.2336 22.1947,-4.2336 12.3161,0 18.7307,5.7732 6.543,5.7731 6.543,16.0366 l 0,32.4581 z m -27.9679,8.0824 q 5.0034,0 9.4937,-2.5658 4.6185,-2.5659 7.5693,-7.0561 l 0,-17.3196 -9.7503,0 q -10.7766,0 -15.5234,3.5922 -4.7469,3.5922 -4.7469,10.5201 0,12.8292 12.9576,12.8292 z" />
    <path
       id="path8353"
       style="font-style:normal;font-variant:normal;font-weight:normal;font-stretch:normal;font-size:128.29293823px;line-height:1000%;font-family:'Fira Mono';-inkscape-font-specification:'Fira Mono';text-align:center;letter-spacing:0px;word-spacing:0px;writing-mode:lr-tb;text-anchor:middle;fill:#ffffff;fill-opacity:1;stroke:none;stroke-width:1px;stroke-linecap:butt;stroke-linejoin:miter;stroke-opacity:1"
       d="m 3599.1209,1009.7813 q 4.1053,0 9.4936,1.4112 l -1.5395,22.9644 -8.7239,0 0,-14.4971 -0.6415,0 q -15.6517,0 -22.1946,22.323 l 0,28.481 13.7273,0 0,8.3391 -35.1523,0 0,-8.3391 10.6484,0 0,-50.9323 -10.6484,0 0,-8.339 18.7308,0 2.0527,16.0366 q 4.1054,-8.7239 9.7503,-13.0859 5.7731,-4.3619 14.4971,-4.3619 z" />
    <path
       id="path8355"
       style="font-style:normal;font-variant:normal;font-weight:normal;font-stretch:normal;font-size:128.29293823px;line-height:1000%;font-family:'Fira Mono';-inkscape-font-specification:'Fira Mono';text-align:center;letter-spacing:0px;word-spacing:0px;writing-mode:lr-tb;text-anchor:middle;fill:#ffffff;fill-opacity:1;stroke:none;stroke-width:1px;stroke-linecap:butt;stroke-linejoin:miter;stroke-opacity:1"
       d="m 3630.4251,1011.1925 9.2371,0 0.898,9.4937 q 3.9771,-5.1317 10.0069,-7.9542 6.1581,-2.9507 12.3161,-2.9507 18.9874,0 18.9874,20.0137 l 0,49.0079 -10.7766,0 0,-41.0538 q 0,-7.5692 -0.8981,-11.5463 -0.7697,-3.9771 -3.2073,-5.9015 -2.4376,-1.9244 -7.441,-1.9244 -5.5166,0 -10.3917,3.3356 -4.8752,3.3356 -7.9542,7.9542 l 0,49.1362 -10.7766,0 0,-67.6104 z" />
    <path
       id="path8357"
       style="font-style:normal;font-variant:normal;font-weight:normal;font-stretch:normal;font-size:128.29293823px;line-height:1000%;font-family:'Fira Mono';-inkscape-font-specification:'Fira Mono';text-align:center;letter-spacing:0px;word-spacing:0px;writing-mode:lr-tb;text-anchor:middle;fill:#ffffff;fill-opacity:1;stroke:none;stroke-width:1px;stroke-linecap:butt;stroke-linejoin:miter;stroke-opacity:1"
       d="m 3733.0603,979.6324 q 3.5922,0 5.7731,2.181 2.181,2.0527 2.181,5.3883 0,3.3356 -2.181,5.5166 -2.1809,2.0527 -5.7731,2.0527 -3.464,0 -5.6449,-2.0527 -2.0527,-2.181 -2.0527,-5.5166 0,-3.3356 2.0527,-5.3883 2.1809,-2.181 5.6449,-2.181 z m 8.5956,90.5749 18.9873,0 0,8.5956 -50.5474,0 0,-8.5956 20.7835,0 0,-50.4192 -20.142,0 0,-8.5956 30.9186,0 0,59.0148 z" />
    <path
       id="path8359"
       style="font-style:normal;font-variant:normal;font-weight:normal;font-stretch:normal;font-size:128.29293823px;line-height:1000%;font-family:'Fira Mono';-inkscape-font-specification:'Fira Mono';text-align:center;letter-spacing:0px;word-spacing:0px;writing-mode:lr-tb;text-anchor:middle;fill:#ffffff;fill-opacity:1;stroke:none;stroke-width:1px;stroke-linecap:butt;stroke-linejoin:miter;stroke-opacity:1"
       d="m 3835.4388,1069.5658 -1.2829,9.2371 -49.5211,0 0,-8.2108 37.4616,-49.9059 -34.5108,0 0,-9.4937 47.4683,0 0,8.4673 -37.2049,49.906 37.5898,0 z" />
    <path
       id="path8361"
       style="font-style:normal;font-variant:normal;font-weight:normal;font-stretch:normal;font-size:128.29293823px;line-height:1000%;font-family:'Fira Mono';-inkscape-font-specification:'Fira Mono';text-align:center;letter-spacing:0px;word-spacing:0px;writing-mode:lr-tb;text-anchor:middle;fill:#ffffff;fill-opacity:1;stroke:none;stroke-width:1px;stroke-linecap:butt;stroke-linejoin:miter;stroke-opacity:1"
       d="m 3875.5953,1068.9243 q 0,-4.7468 3.2073,-7.9541 3.3356,-3.3357 8.0825,-3.3357 4.8751,0 8.0824,3.3357 3.2074,3.2073 3.2074,7.9541 0,4.8752 -3.2074,8.0825 -3.2073,3.2073 -8.0824,3.2073 -4.7469,0 -8.0825,-3.2073 -3.2073,-3.3356 -3.2073,-8.0825 z" />
    <path
       id="path8363"
       style="font-style:normal;font-variant:normal;font-weight:normal;font-stretch:normal;font-size:128.29293823px;line-height:1000%;font-family:'Fira Mono';-inkscape-font-specification:'Fira Mono';text-align:center;letter-spacing:0px;word-spacing:0px;writing-mode:lr-tb;text-anchor:middle;fill:#ffffff;fill-opacity:1;stroke:none;stroke-width:1px;stroke-linecap:butt;stroke-linejoin:miter;stroke-opacity:1"
       d="m 3968.9933,1070.977 q 8.8522,0 17.5761,-5.9015 l 5.1318,7.0561 q -4.2337,3.7205 -10.5201,5.9015 -6.2863,2.181 -12.1878,2.181 -15.0103,0 -23.4776,-9.3654 -8.339,-9.4937 -8.339,-25.5303 0,-10.1351 3.7205,-18.2176 3.8487,-8.0824 11.0331,-12.701 7.1845,-4.6185 17.063,-4.6185 13.0859,0 22.5796,7.9541 l -5.26,7.0562 q -8.8523,-5.9015 -17.4479,-5.9015 -9.1088,0 -14.6254,6.7995 -5.3883,6.6712 -5.3883,19.6288 0,12.9576 5.3883,19.3723 5.5166,6.2863 14.7537,6.2863 z" />
    <path
       id="path8365"
       style="font-style:normal;font-variant:normal;font-weight:normal;font-stretch:normal;font-size:128.29293823px;line-height:1000%;font-family:'Fira Mono';-inkscape-font-specification:'Fira Mono';text-align:center;letter-spacing:0px;word-spacing:0px;writing-mode:lr-tb;text-anchor:middle;fill:#ffffff;fill-opacity:1;stroke:none;stroke-width:1px;stroke-linecap:butt;stroke-linejoin:miter;stroke-opacity:1"
       d="m 4041.0947,1009.7813 q 13.984,0 21.425,9.4937 7.5692,9.3653 7.5692,25.6585 0,15.9084 -7.6975,25.6586 -7.5693,9.622 -21.425,9.622 -13.9839,0 -21.5532,-9.3654 -7.5693,-9.4937 -7.5693,-25.7869 0,-16.0366 7.5693,-25.6586 7.6976,-9.6219 21.6815,-9.6219 z m 0,8.8522 q -8.8522,0 -13.2141,6.5429 -4.362,6.543 -4.362,19.8854 0,13.3425 4.2337,19.8854 4.3619,6.4147 13.2141,6.4147 8.8523,0 13.0859,-6.4147 4.362,-6.5429 4.362,-20.0137 0,-13.3424 -4.362,-19.7571 -4.2336,-6.5429 -12.9576,-6.5429 z" />
    <path
       id="path8367"
       style="font-style:normal;font-variant:normal;font-weight:normal;font-stretch:normal;font-size:128.29293823px;line-height:1000%;font-family:'Fira Mono';-inkscape-font-specification:'Fira Mono';text-align:center;letter-spacing:0px;word-spacing:0px;writing-mode:lr-tb;text-anchor:middle;fill:#ffffff;fill-opacity:1;stroke:none;stroke-width:1px;stroke-linecap:butt;stroke-linejoin:miter;stroke-opacity:1"
       d="m 4136.8021,1009.7813 q 5.7732,0 9.3654,4.1054 3.7204,3.977 3.7204,14.6253 l 0,50.2909 -9.8785,0 0,-48.4948 q 0,-7.0561 -0.8981,-9.4936 -0.898,-2.5659 -4.3619,-2.5659 -6.543,0 -11.803,8.0825 l 0,52.4718 -10.0068,0 0,-48.4948 q 0,-7.0561 -0.8981,-9.4936 -0.898,-2.5659 -4.3619,-2.5659 -6.543,0 -11.803,8.0825 l 0,52.4718 -9.8785,0 0,-67.6104 8.339,0 0.7698,7.9542 q 3.079,-4.4903 6.4146,-6.9279 3.4639,-2.4375 8.2108,-2.4375 9.4936,0 12.1878,8.9805 3.079,-4.362 6.5429,-6.6712 3.4639,-2.3093 8.3391,-2.3093 z" />
  </g>
</svg>
