<?xml version="1.0" encoding="UTF-8" standalone="no"?>
<svg
   xmlns:dc="http://purl.org/dc/elements/1.1/"
   xmlns:cc="http://creativecommons.org/ns#"
   xmlns:rdf="http://www.w3.org/1999/02/22-rdf-syntax-ns#"
   xmlns:svg="http://www.w3.org/2000/svg"
   xmlns="http://www.w3.org/2000/svg"
   xmlns:sodipodi="http://sodipodi.sourceforge.net/DTD/sodipodi-0.dtd"
   xmlns:inkscape="http://www.inkscape.org/namespaces/inkscape"
   width="130cm"
   height="34cm"
   viewBox="0 0 4606.2993 1204.7244"
   id="svg2"
   version="1.1"
   inkscape:version="0.91 r13725"
   sodipodi:docname="p4-2.svg">
  <sodipodi:namedview
     pagecolor="#ffffff"
     bordercolor="#666666"
     borderopacity="1"
     objecttolerance="10"
     gridtolerance="10"
     guidetolerance="10"
     inkscape:pageopacity="0"
     inkscape:pageshadow="2"
     inkscape:window-width="1364"
     inkscape:window-height="750"
     id="namedview4686"
     showgrid="false"
     inkscape:zoom="0.098859572"
     inkscape:cx="4058.8016"
     inkscape:cy="61.632304"
     inkscape:window-x="0"
     inkscape:window-y="16"
     inkscape:window-maximized="0"
     inkscape:current-layer="svg2"
     showguides="true"
     inkscape:snap-bbox="true"
     inkscape:bbox-paths="true"
     inkscape:bbox-nodes="true"
     inkscape:snap-bbox-edge-midpoints="true"
     inkscape:snap-bbox-midpoints="true">
    <sodipodi:guide
       position="0,0"
       orientation="0,4606.2992"
       id="guide8780" />
    <sodipodi:guide
       position="4606.2992,0"
       orientation="-1204.7244,0"
       id="guide8782" />
    <sodipodi:guide
       position="4606.2992,1204.7244"
       orientation="0,-4606.2992"
       id="guide8784" />
    <sodipodi:guide
       position="0,1204.7244"
       orientation="1204.7244,0"
       id="guide8786" />
  </sodipodi:namedview>
  <defs
     id="defs4" />
  <metadata
     id="metadata7">
    <rdf:RDF>
      <cc:Work
         rdf:about="">
        <dc:format>image/svg+xml</dc:format>
        <dc:type
           rdf:resource="http://purl.org/dc/dcmitype/StillImage" />
        <dc:title />
      </cc:Work>
    </rdf:RDF>
  </metadata>
  <flowRoot
     transform="translate(1073.7762,-2528.3927)"
     style="font-style:normal;font-variant:normal;font-weight:normal;font-stretch:normal;font-size:25px;line-height:100%;font-family:Ubuntu;-inkscape-font-specification:'Ubuntu, Normal';text-align:start;letter-spacing:0px;word-spacing:0px;writing-mode:lr-tb;text-anchor:start;fill:#000000;fill-opacity:1;stroke:none;stroke-width:1px;stroke-linecap:butt;stroke-linejoin:miter;stroke-opacity:1"
     id="flowRoot6877"
     xml:space="preserve"><flowRegion
       id="flowRegion6879"><rect
         y="532.03601"
         x="834.28571"
         height="277.14285"
         width="848.57141"
         id="rect6881" /></flowRegion><flowPara
       id="flowPara6883" /></flowRoot>  <g
     style="fill:#1a1a1a"
     transform="matrix(0.95744025,0,0,1,1153.9841,-2529.8207)"
     id="g7438">
    <g
       transform="matrix(0.85913397,0,0,0.85913397,1006.2086,-425.11908)"
       style="font-style:normal;font-variant:normal;font-weight:normal;font-stretch:normal;font-size:20.68664551px;line-height:100%;font-family:Ubuntu;-inkscape-font-specification:'Ubuntu, Normal';text-align:start;letter-spacing:0px;word-spacing:0px;writing-mode:lr-tb;text-anchor:start;fill:#1a1a1a;fill-opacity:1;stroke:none;stroke-width:1px;stroke-linecap:butt;stroke-linejoin:miter;stroke-opacity:1"
       id="flowRoot6995" />
    <g
       style="font-style:normal;font-variant:normal;font-weight:normal;font-stretch:normal;font-size:35.19487px;line-height:100%;font-family:Ubuntu;-inkscape-font-specification:'Ubuntu, Normal';text-align:start;letter-spacing:0px;word-spacing:0px;writing-mode:lr-tb;text-anchor:start;fill:#1a1a1a;fill-opacity:1;stroke:none;stroke-width:1px;stroke-linecap:butt;stroke-linejoin:miter;stroke-opacity:1"
       id="text7363"
       transform="matrix(0.89226377,0,0,0.89226377,210.13123,98.655779)" />
  </g>
  <g
     id="g8731"
     transform="translate(-3.1562184,-1290.2067)">
    <path
       inkscape:connector-curvature="0"
       id="path8281-8"
       d="m 4032.3473,1290.2071 0,0.4355 c 153.0573,-2e-4 299.846,63.3929 408.074,176.2352 108.228,112.8424 169.0299,265.8902 169.0301,425.4736 2e-4,103.7613 -25.7138,204.7539 -73.4462,293.734 -0.01,0.016 -0.017,0.033 -0.026,0.049 -3.1932,5.9512 -6.485,11.848 -9.8741,17.6889 -0.02,0.034 -0.04,0.069 -0.06,0.1035 -5.02,8.6477 -10.2541,17.1704 -15.6978,25.5611 -0.1587,0.2446 -0.3166,0.4897 -0.4756,0.7341 -3.5492,5.4532 -7.1875,10.8496 -10.9134,16.1875 -0.2129,0.305 -0.427,0.6091 -0.6404,0.9137 -1.7778,2.5369 -3.5719,5.0617 -5.3893,7.5715 -0.069,0.095 -0.1369,0.1917 -0.206,0.287 -1.9206,2.6491 -3.8629,5.2831 -5.8275,7.9015 -0.1924,0.2565 -0.3876,0.511 -0.5805,0.7673 -1.7591,2.3368 -3.5371,4.6604 -5.3312,6.9721 -0.2635,0.3396 -0.5259,0.68 -0.7902,1.0191 -3.9183,5.0266 -7.919,9.993 -12.0013,14.8969 -0.3796,0.456 -0.7614,0.9098 -1.1423,1.3649 -1.7196,2.0532 -3.4538,4.0957 -5.202,6.1267 -0.355,0.4125 -0.7057,0.8281 -1.0618,1.2397 -2.0269,2.3416 -4.0734,4.6666 -6.1383,6.978 -0.3559,0.3983 -0.716,0.7935 -1.073,1.1909 -1.7312,1.9275 -3.4762,3.8441 -5.2338,5.75 -0.5238,0.5678 -1.0469,1.1364 -1.573,1.7025 -2.0991,2.2581 -4.2101,4.5068 -6.3462,6.7339 -3.3821,3.5262 -6.8015,7.0043 -10.258,10.4338 -1.7282,1.7146 -3.4649,3.4172 -5.2113,5.1076 -1.7468,1.6904 -3.5029,3.3671 -5.2676,5.0331 -3.5288,3.3315 -7.0932,6.6134 -10.6924,9.8461 -3.5992,3.2329 -7.2327,6.416 -10.9003,9.5493 -1.8338,1.5666 -3.6754,3.1209 -5.526,4.6624 -3e-4,4e-4 0,-3e-4 0,0 -3.7007,3.0828 -7.4356,6.1163 -11.2017,9.0983 -1.8833,1.4911 -3.7747,2.9702 -5.674,4.4359 -3.7985,2.9315 -7.6272,5.812 -11.4882,8.6414 -3.861,2.8294 -7.754,5.6085 -11.6755,8.3349 -3.9216,2.7265 -7.8733,5.3999 -11.8534,8.0225 -11.9404,7.8679 -24.1395,15.2671 -36.5715,22.1854 -6.216,3.4592 -12.4905,6.7984 -18.8194,10.0158 -10.5481,5.3624 -21.2476,10.3867 -32.0847,15.0669 -4.3349,1.8721 -8.6911,3.6897 -13.0687,5.4513 -13.133,5.2844 -26.4539,10.0687 -39.9365,14.3424 -6e-4,1e-4 0,-2e-4 0,0 -40.4474,12.8204 -82.3488,21.04 -124.9852,24.3486 -4.7374,0.3675 -9.4845,0.6755 -14.2391,0.9215 -9.5092,0.4919 -19.0506,0.74 -28.6167,0.74 l 0,0.8688 -864.5315,0 -0.1012,0 -2384.09438,0 -58.1418,-100.6414 -722.3262044,-1103.649 186.5256044,-0.061 -1.0167,-0.373 1167.14938,0 2676.5368,0 z"
       style="color:#000000;clip-rule:nonzero;display:inline;overflow:visible;visibility:visible;opacity:1;isolation:auto;mix-blend-mode:normal;color-interpolation:sRGB;color-interpolation-filters:linearRGB;solid-color:#000000;solid-opacity:1;fill:#333333;fill-opacity:1;fill-rule:evenodd;stroke:none;stroke-width:1px;stroke-linecap:butt;stroke-linejoin:miter;stroke-miterlimit:4;stroke-dasharray:none;stroke-dashoffset:0;stroke-opacity:1;color-rendering:auto;image-rendering:auto;shape-rendering:auto;text-rendering:auto;enable-background:accumulate" />
    <path
       inkscape:connector-curvature="0"
       id="path8283-7"
       d="m 4028.7941,1298.3839 0,0.4289 c 152.55,-2e-4 298.852,62.4485 406.7213,173.6081 107.8694,111.1597 168.4699,261.9247 168.4701,419.1284 2e-4,157.2041 -60.6,307.9696 -168.4694,419.1296 -107.8694,111.1601 -254.1717,173.609 -406.722,173.6087 l 0,0.8559 -3237.96058,0 -693.418504,-1186.3307 101.612804,0 -1.1816,-0.4289 z"
       style="color:#000000;clip-rule:nonzero;display:inline;overflow:visible;visibility:visible;opacity:1;isolation:auto;mix-blend-mode:normal;color-interpolation:sRGB;color-interpolation-filters:linearRGB;solid-color:#000000;solid-opacity:1;fill:#ffffff;fill-opacity:1;fill-rule:evenodd;stroke:none;stroke-width:1px;stroke-linecap:butt;stroke-linejoin:miter;stroke-miterlimit:4;stroke-dasharray:none;stroke-dashoffset:0;stroke-opacity:1;color-rendering:auto;image-rendering:auto;shape-rendering:auto;text-rendering:auto;enable-background:accumulate" />
    <path
       inkscape:connector-curvature="0"
       style="color:#000000;clip-rule:nonzero;display:inline;overflow:visible;visibility:visible;opacity:1;isolation:auto;mix-blend-mode:normal;color-interpolation:sRGB;color-interpolation-filters:linearRGB;solid-color:#000000;solid-opacity:1;fill:#ff372d;fill-opacity:1;fill-rule:evenodd;stroke:none;stroke-width:1px;stroke-linecap:butt;stroke-linejoin:miter;stroke-miterlimit:4;stroke-dasharray:none;stroke-dashoffset:0;stroke-opacity:1;color-rendering:auto;image-rendering:auto;shape-rendering:auto;text-rendering:auto;enable-background:accumulate"
       d="m 1379.1782,1298.3839 -64.6579,125.4505 1852.6076,1061.3092 -2002.18,-2.1812 -329.08288,-191.2066 c -27.14,50.367 -81.6015,126.5325 -81.6015,126.5325 L 12.952216,1298.8113 Z"
       id="path8285-6" />
    <path
       inkscape:connector-curvature="0"
       id="path8287-5"
       style="fill:#ff2c28;fill-opacity:1;fill-rule:evenodd;stroke:none"
       d="m 1391.3756,2146.3964 c -37.5572,137.3313 -22.0002,264.5519 40.9818,297.8015 71.0649,37.4979 175.5661,-58.8172 233.4238,-215.1437 57.8511,-156.3246 47.1527,-313.4539 -23.9066,-350.9586 -43.858,-23.1508 -100.4418,4.697 -150.9485,66.135 103.6438,36.8806 188.314,68.4371 119.1179,255.4024 -32.7967,88.6079 -92.0314,143.2087 -132.3092,121.9435 -31.994,-16.8922 -42.3993,-76.5847 -28.8745,-144.8431 z M 255.42452,1423.9945 c 217.9635,19.4676 487.4577,14.9478 677.4757,-5.7391 190.01358,-20.692 169.82338,250.6988 108.35348,417.8476 -61.46278,167.1556 -215.12798,368.544 -330.95148,187.4612 -115.8183,-181.071 -295.3892,-421.0958 -454.8777,-599.5697 z m 97.4354,65.9448 505.7844,366.2046 c 70.7699,51.2346 35.8089,124.0449 -47.8727,48.3102 z m 17.6064,-25.5156 553.1619,238.4379 c 115.59858,49.8315 122.99168,-175.1529 -32.8849,-174.5611 -189.8556,0.7119 -322.045,-38.3612 -520.277,-63.8768 z m 712.67838,391.931 c -37.1851,100.459 -26.3381,203.5286 24.2177,230.2092 50.5573,26.6943 121.6821,-33.118 158.8616,-133.5837 37.1797,-100.4539 26.3385,-203.5219 -24.2187,-230.2161 -50.5559,-26.6806 -121.6811,33.1316 -158.8606,133.5906 z m 273.8758,215.5771 215.6202,114.1703 c 0.6663,-1.6932 1.3164,-3.4135 1.9557,-5.1388 13.7273,-37.0966 19.3775,-73.5085 17.4147,-102.3715 -0.7596,-11.1259 -2.3824,-20.3226 -4.8081,-26.6604 l -191.3314,-101.309 c -82.6588,-43.7651 -121.0525,77.7905 -38.8511,121.3094 z m 732.8971,368.3009 192.7406,5.8675 -549.3541,-316.8203 c -6.6768,38.5724 -17.332,78.6136 -32.0693,118.4457 l -2.0285,5.3952 z" />
    <g
       transform="matrix(-0.40858957,-0.79145555,-0.79145555,0.40858957,3448.9196,2236.5756)"
       id="g8724">
      <path
         d="m 1367.046,2312.6582 q -18.9812,-12.1676 -38.1484,-6.1946 -19.3396,5.8625 -33.7195,28.2948 -14.3799,22.4323 -11.6324,42.4533 2.8581,19.8486 23.5648,33.1223 17.0831,10.9508 36.5511,9.066 l -1.491,-19.7025 q -7.1544,0.5265 -12.4639,-0.6858 -5.4819,-1.323 -11.3489,-5.0839 -18.636,-11.9463 -4.1633,-38.7014 l 34.6839,22.2335 8.9598,-13.9771 -34.6839,-22.2335 q 9.0616,-11.4772 17.3709,-14.1849 8.1367,-2.8184 16.9371,2.8229 5.5218,3.5397 9.5304,8.3005 3.836,4.6502 6.7384,11.1366 l 17.5656,-6.5128 q -3.0662,-9.2695 -8.8269,-16.6142 -5.9332,-7.4554 -15.4238,-13.5392 z"
         style="font-style:normal;font-variant:normal;font-weight:500;font-stretch:normal;font-size:medium;line-height:1000%;font-family:'Fira Sans';-inkscape-font-specification:'Fira Sans Medium';text-align:start;letter-spacing:0px;word-spacing:0px;writing-mode:lr-tb;text-anchor:start;fill:#ffffff;fill-opacity:1;stroke:none;stroke-width:1px;stroke-linecap:butt;stroke-linejoin:miter;stroke-opacity:1"
         id="path8289"
         inkscape:connector-curvature="0" />
      <path
         d="m 1230.3085,2252.5163 26.7463,17.1452 -47.6749,74.3718 22.0872,14.1587 47.6749,-74.3718 28.2992,18.1407 10.8402,-16.9105 -79.8935,-51.2144 -8.0794,18.6803 z"
         style="font-style:normal;font-variant:normal;font-weight:500;font-stretch:normal;font-size:medium;line-height:1000%;font-family:'Fira Sans';-inkscape-font-specification:'Fira Sans Medium';text-align:start;letter-spacing:0px;word-spacing:0px;writing-mode:lr-tb;text-anchor:start;fill:#ffffff;fill-opacity:1;stroke:none;stroke-width:1px;stroke-linecap:butt;stroke-linejoin:miter;stroke-opacity:1"
         id="path8291"
         inkscape:connector-curvature="0" />
      <path
         d="m 1118.5692,2251.7356 q -3.4291,5.3492 -6.6413,6.942 -3.2742,1.3096 -7.7827,0.3672 l -4.7433,17.6538 q 8.2075,4.2875 15.0922,4.5619 6.8225,-0.01 13.6142,-4.9068 0.2344,9.8889 5.097,17.8752 4.8006,7.7032 13.4283,13.2339 13.632,8.7386 26.5472,6.0618 12.9153,-2.6768 20.9902,-15.2734 9.5128,-14.8399 3.792,-29.463 -5.7828,-14.9063 -25.7993,-27.7375 l -11.3887,-7.3006 3.3184,-5.1767 q 5.6413,-8.8004 11.995,-9.5967 6.2916,-1.0796 15.2646,4.6724 10.0082,6.4156 21.0607,20.3175 l 14.8001,-11.694 q -12.8797,-17.5079 -28.9274,-27.7951 -35.029,-22.4547 -55.1608,8.9505 l -24.5564,38.3076 z m 32.4847,35.9186 q -11.2162,-7.19 -10.4108,-22.4988 l 11.8358,-18.4636 9.1454,5.8626 q 21.397,13.7162 11.2204,29.5913 -4.2033,6.5572 -9.8047,8.0792 -5.6015,1.522 -11.9861,-2.5707 z"
         style="font-style:normal;font-variant:normal;font-weight:500;font-stretch:normal;font-size:medium;line-height:1000%;font-family:'Fira Sans';-inkscape-font-specification:'Fira Sans Medium';text-align:start;letter-spacing:0px;word-spacing:0px;writing-mode:lr-tb;text-anchor:start;fill:#ffffff;fill-opacity:1;stroke:none;stroke-width:1px;stroke-linecap:butt;stroke-linejoin:miter;stroke-opacity:1"
         id="path8293-1"
         inkscape:connector-curvature="0" />
      <path
         d="m 1021.2539,2154.7812 -55.69638,32.9536 23.1225,14.8224 44.64388,-27.8655 10.0082,6.4156 -25.6626,40.0331 19.844,12.7207 25.6626,-40.0332 9.8357,6.3051 -6.5089,52.3113 22.7775,14.6011 6.8629,-64.2576 49.0639,-28.6839 -21.5696,-13.8268 -40.8784,25.4099 -10.1809,-6.5263 23.4503,-36.582 -19.844,-12.7206 -23.4503,36.5819 -10.3534,-6.6368 5.8496,-47.8647 -21.397,-13.7162 -5.5796,56.5589 z"
         style="font-style:normal;font-variant:normal;font-weight:500;font-stretch:normal;font-size:medium;line-height:1000%;font-family:'Fira Sans';-inkscape-font-specification:'Fira Sans Medium';text-align:start;letter-spacing:0px;word-spacing:0px;writing-mode:lr-tb;text-anchor:start;fill:#ffffff;fill-opacity:1;stroke:none;stroke-width:1px;stroke-linecap:butt;stroke-linejoin:miter;stroke-opacity:1"
         id="path8295-1"
         inkscape:connector-curvature="0" />
      <path
         d="m 1547.2683,1684.3758 q -45.5313,-29.1871 -89.5005,-32.81 -44.6387,-4.0521 -80.9335,14.2496 -36.2949,18.3016 -59.9022,55.1285 -26.1825,40.8443 -32.3293,91.6981 -5.7174,50.1841 6.4204,124.0957 12.5671,73.242 44.9294,192.2388 l -209.5781,-134.3468 -30.5951,65.4128 287.2492,184.1366 36.4839,-56.9142 q -33.3922,-139.4963 -46.1997,-213.8371 -12.3782,-75.0103 -8.3261,-119.649 4.052,-44.6387 25.9424,-78.7873 22.3196,-34.8181 55.2837,-42.0287 32.964,-7.2107 67.7821,15.1089 30.131,19.315 44.2607,44.4329 13.8894,24.0192 18.5762,63.8679 l 72.2462,-6.5923 q -4.7039,-53.0858 -29.0318,-93.2437 -23.8987,-40.8274 -72.7779,-72.1607 z"
         style="font-style:normal;font-variant:normal;font-weight:500;font-stretch:normal;font-size:795.34130859px;line-height:1000%;font-family:'Fira Mono';-inkscape-font-specification:'Fira Mono Medium';text-align:start;letter-spacing:0px;word-spacing:0px;writing-mode:lr-tb;text-anchor:start;fill:#ffffff;fill-opacity:1;stroke:none;stroke-width:1px;stroke-linecap:butt;stroke-linejoin:miter;stroke-opacity:1"
         id="path8297"
         inkscape:connector-curvature="0" />
    </g>
    <path
       inkscape:connector-curvature="0"
       id="path8299"
       d="m 4530.783,2180.9032 c -25.5944,47.1565 -57.5343,90.8914 -95.2671,129.7752 -107.8693,111.1601 -254.1712,173.6096 -406.7215,173.6093 l 0,0.8558 -861.7672,0 -568.2429,-304.2403 1931.9987,0 z"
       style="color:#000000;clip-rule:nonzero;display:inline;overflow:visible;visibility:visible;opacity:1;isolation:auto;mix-blend-mode:normal;color-interpolation:sRGB;color-interpolation-filters:linearRGB;solid-color:#000000;solid-opacity:1;fill:#5e890a;fill-opacity:1;fill-rule:evenodd;stroke:none;stroke-width:1px;stroke-linecap:butt;stroke-linejoin:miter;stroke-miterlimit:4;stroke-dasharray:none;stroke-dashoffset:0;stroke-opacity:1;color-rendering:auto;image-rendering:auto;shape-rendering:auto;text-rendering:auto;enable-background:accumulate" />
    <g
       transform="matrix(-1,0,0,1,6510.4238,-2.7580083e-5)"
       id="g8686">
      <path
         id="path8301-4"
         style="fill:#5e890a;fill-opacity:1;fill-rule:evenodd;stroke:none"
         d="m 4149.9477,1449.9048 c -68.3612,-11.5012 -134.881,4.9439 -188.6083,41.1852 7.0401,5.1425 13.4253,10.9923 19.1114,17.4024 50.3322,-34.4319 112.8969,-50.145 177.2122,-39.3246 116.4598,19.5924 200.6815,119.7492 207.8354,236.2112 -11.2505,130.5221 -113.8878,214.3228 -222.0994,117.4589 -78.6349,67.5827 -188.0281,-16.4393 -222.5984,54.875 -4.1755,-5.602 -8.1288,-11.3782 -11.842,-17.3172 -2.7143,-4.3426 -5.291,-8.7283 -7.7374,-13.1561 49.0251,-46.5659 177.6637,23.6512 234.6363,-25.9583 -75.9426,22.0302 -207.521,-44.2719 -260.32,-40.9131 -7.7694,-34.5714 -7.7013,-70.6089 1.2625,-107.0395 l -25.0301,-27.2161 c -24.588,73.3889 -6.6441,165.7766 35.121,229.0733 39.6451,60.0896 102.2206,103.9299 177.2859,116.5583 60.4725,10.1737 119.4969,-1.5262 169.5078,-29.4438 -18.0745,-11.3593 -35.5209,-32.334 -44.3436,-69.5838 30.5804,46.2769 79.8719,46.1917 105.5062,22.7245 38.432,-39.3396 65.6206,-91.0862 75.01,-150.404 6.0896,-38.4695 4.0876,-76.3715 -4.6891,-111.8739 l -0.029,-0.2248 0.01,0.1359 c -25.3828,-102.5457 -107.408,-185.0358 -215.1987,-203.1697 z"
         inkscape:connector-curvature="0" />
      <path
         id="path8303-8"
         style="fill:#ff352d;fill-opacity:1;fill-rule:evenodd;stroke:none"
         d="m 4155.2903,1702.425 c -12.6144,39.4262 -7.3892,75.9498 13.7646,85.4954 23.8687,10.7652 58.9676,-16.8858 78.4004,-61.7653 19.4304,-44.879 15.8371,-89.989 -8.0296,-100.7562 -14.7307,-6.6463 -33.7355,1.3484 -50.6993,18.9866 34.8109,10.588 63.2493,19.6475 40.0083,73.3231 -11.0155,25.4383 -30.9106,41.1136 -44.4389,35.0086 -10.7458,-4.8495 -14.2406,-21.9866 -9.6981,-41.5828 z m -381.5331,-207.3933 c 73.2076,5.5889 163.7229,4.2913 227.5444,-1.6477 63.8202,-5.9404 57.0389,71.9728 36.3929,119.9593 -20.6436,47.9885 -72.2553,105.8048 -111.1571,53.818 -38.8999,-51.9834 -99.2126,-120.8918 -152.7802,-172.1296 z m 32.7257,18.9319 169.8784,105.1332 c 23.7695,14.7089 12.0271,35.6119 -16.0791,13.8693 z m 5.9135,-7.3251 185.7911,68.4527 c 38.8262,14.3061 41.3093,-50.2844 -11.0451,-50.1145 -63.767,0.2045 -108.1656,-11.0131 -174.746,-18.3382 z m 239.3681,112.5188 c -12.4894,28.8407 -8.8463,58.4308 8.134,66.0905 16.9807,7.6636 40.8695,-9.5078 53.357,-38.3504 12.4876,-28.8392 8.8463,-58.4288 -8.1343,-66.0924 -16.9803,-7.6597 -40.8692,9.5117 -53.3567,38.3523 z m 91.9869,61.8897 72.4206,32.7771 c 0.2238,-0.4861 0.4422,-0.98 0.6568,-1.4753 4.6107,-10.6501 6.5084,-21.1035 5.8492,-29.3897 -0.2551,-3.1941 -0.8002,-5.8344 -1.6149,-7.6539 l -64.2627,-29.0847 c -27.7627,-12.5644 -40.6581,22.3328 -13.049,34.8265 z m 201.461,91.0654 c 4.5335,-9.6647 9.3071,-25.5912 11.1588,-35.6268 l -86.237,-38.9745 c -2.2425,11.0736 -5.8213,22.569 -10.7712,34.0044 l -0.6812,1.5489 z"
         inkscape:connector-curvature="0" />
      <path
         id="path8305-5"
         style="fill:#ff352d;fill-opacity:1;fill-rule:nonzero;stroke:none"
         d="m 3755.0037,1598.3339 0,189.6144 24.1826,0 0,-210.7687 -24.1826,0 0,0.1298 -94.191,0 0,-0.1298 -24.1839,0 0,210.7687 24.1839,0 0,-189.6144 z"
         inkscape:connector-curvature="0" />
      <path
         id="path8307-7"
         style="fill:#ff352d;fill-opacity:1;fill-rule:nonzero;stroke:none"
         d="m 3570.183,1696.7532 0,91.1951 25.032,0 0,-210.7687 -45.9635,0 c -53.9311,0 -80.896,19.9068 -80.896,59.7219 0,39.901 27.3418,59.8517 82.0269,59.8517 z m 0,-98.2899 0,76.4898 -19.5174,0 c -38.2789,0 -57.4193,-12.6826 -57.4193,-38.0516 0,-25.6258 19.1404,-38.4382 57.4193,-38.4382 z"
         inkscape:connector-curvature="0" />
      <path
         id="path8309"
         style="fill:#ff352d;fill-opacity:1;fill-rule:nonzero;stroke:none"
         d="m 3419.7832,1681.7907 c -0.7539,58.2172 -21.9208,87.3251 -63.5004,87.3251 -41.2026,0 -62.4633,-29.1079 -63.7836,-87.3251 1.3203,-58.1316 22.581,-87.1975 63.7836,-87.1975 41.5796,0 62.7465,29.0659 63.5004,87.1975 z m 26.5898,0 c -2.5467,-72.8369 -32.6708,-109.2544 -90.3734,-109.2544 -57.4193,0 -87.2603,36.4175 -89.522,109.2544 2.2617,72.6637 32.1027,108.9954 89.522,108.9954 57.7026,0 87.8267,-36.3317 90.3734,-108.9954 z"
         inkscape:connector-curvature="0" />
      <path
         id="path8311-6"
         style="fill:#ff352d;fill-opacity:1;fill-rule:nonzero;stroke:none"
         d="m 3152.0599,1629.8071 c 46.484,2.9236 69.7251,20.4227 69.7251,52.4996 0,32.1608 -23.2411,49.8336 -69.7251,53.0141 z m -24.1826,-0.1293 0,105.643 c -46.578,-2.4073 -69.8666,-20.0796 -69.8666,-53.0141 0,-32.6786 23.2886,-50.2197 69.8666,-52.6289 z m 24.1826,-21.541 0,-30.9572 -24.1826,0 0,30.8279 c -63.5486,3.2682 -95.3232,28.1209 -95.3232,74.5565 0,46.7806 31.7746,71.6752 95.3232,74.6843 l 0,30.7 24.1826,0 0,-30.8274 c 63.4546,-4.3005 95.1817,-29.1517 95.1817,-74.5569 0,-45.232 -31.7271,-70.0407 -95.1817,-74.4272 z"
         inkscape:connector-curvature="0" />
      <path
         id="path8313-6"
         d="m 2866.9304,1576.2399 c 20.353,0.085 37.9613,9.2885 52.8297,27.6159 l -0.26,0.1262 66.8893,89.3413 0,-116.0464 15.262,0 0,210.3239 -15.262,0 0,-68.9862 -41.8133,-55.754 -53.4233,96.2136 c -10.364,16.9524 -23.7237,26.1923 -39.9855,27.8955 l -0.7595,-15.8401 c 7.3199,-0.057 18.9415,-6.3593 27.0773,-18.7996 l 57.0093,-102.954 -28.6752,-38.3837 c -10.4418,-12.276 -23.4027,-18.4598 -38.8888,-18.5471 l 0,-16.2053 z m -91.3283,2.142 65.9679,209.2209 -16.0609,0 -24.1564,-76.8781 -70.0853,0 -24.2901,76.8781 -15.9271,0 65.9677,-209.2209 18.5842,0 z m -116.8717,0 0,209.2209 -16.0609,0 0,-93.5164 -23.0973,0 c -49.9971,0 -74.9961,-19.3058 -74.9961,-57.9154 0,-38.526 24.6445,-57.7891 73.9352,-57.7891 l 40.2191,0 z m -140.2629,0 0,209.2209 -15.2656,0 0,-99.4508 -90.3937,0 0,99.4508 -15.2657,0 0,-209.2209 15.2657,0 0,94.9378 90.3937,0 0,-94.9378 15.2656,0 z m -163.1944,0 0,209.2209 -12.4767,0 -116.0124,-179.1641 0,179.1641 -15.2657,0 0,-209.2209 15.2657,0 113.2253,176.8454 0,-176.8454 15.2638,0 z m -242.2533,1.6797 c 21.0608,0 40.6144,5.5531 58.6732,16.6072 l 0,16.4829 -0.3919,0.6971 c -16.1935,-11.6083 -34.3839,-17.4033 -54.5596,-17.4033 -6.8136,0 -13.6663,0.6892 -20.5684,2.0642 -28.6711,5.6756 -43.0175,19.607 -43.0175,41.7937 0,16.9393 10.1883,29.2299 30.5407,36.8846 l 54.5465,0 0,14.8361 -56.9416,0 c -18.76,7.6528 -28.1456,19.5995 -28.1456,35.8515 0,22.2721 14.3464,36.2575 43.0175,41.9335 6.9021,1.375 13.7548,2.0623 20.5684,2.0623 20.1757,0 38.3661,-5.8068 54.5596,-17.417 l 0.3919,0.6991 0,16.481 c -18.0588,11.0536 -37.6124,16.6091 -58.6732,16.6091 -8.9373,0 -18.0895,-1.0711 -27.4692,-3.2216 -33.0956,-7.481 -49.6488,-26.3599 -49.6488,-56.6299 l 0,-1.1574 c 0.2655,-18.3161 8.9903,-32.6706 26.1576,-43.0753 -17.1673,-10.4065 -25.8921,-24.8131 -26.1576,-43.2152 l 0,-1.1573 c 0,-30.1836 16.5532,-49.0227 49.6488,-56.5037 9.3797,-2.1505 18.5319,-3.2216 27.4692,-3.2216 z m 529.6497,13.4128 -22.8315,0 c -39.5553,0 -59.3328,14.2326 -59.3328,42.6966 0,28.2049 19.7775,42.3083 59.3328,42.3083 l 22.8315,0 0,-85.0049 z m 123.6406,5.9344 -30.3957,96.4836 60.7914,0 -30.3957,-96.4836 z"
         style="fill:#5e890a;fill-opacity:1;fill-rule:nonzero;stroke:none"
         inkscape:connector-curvature="0" />
      <path
         d="m 3643.5737,1918.9772 -37.585,62.5842 11.8962,0 34.4816,-57.9292 18.6201,0 0,57.9292 10.3445,0 0,-118.0997 -10.3445,0 0,51.5501 -18.7925,0 -32.4127,-51.5501 -10.8618,0 34.6541,55.5155 z"
         style="font-style:normal;font-variant:normal;font-weight:300;font-stretch:normal;font-size:medium;line-height:1000%;font-family:'Fira Sans';-inkscape-font-specification:'Fira Sans Light';text-align:center;letter-spacing:0px;word-spacing:0px;writing-mode:lr-tb;text-anchor:middle;fill:#333333;fill-opacity:1;stroke:none;stroke-width:1px;stroke-linecap:butt;stroke-linejoin:miter;stroke-opacity:1"
         id="path8315-9"
         inkscape:connector-curvature="0" />
      <path
         d="m 3530.3005,1961.562 q 0,7.0688 -1.7241,10.1721 -1.8965,3.1034 -5.8619,4.6551 l 2.2413,7.0687 q 6.2067,-1.3793 9.6549,-4.8274 3.2758,-3.4482 4.3102,-10.1721 9.8273,14.9995 28.1026,14.9995 12.9306,0 20.5166,-7.2412 7.4135,-7.4135 7.4135,-19.6545 0,-13.9651 -9.8273,-21.551 -9.9996,-7.586 -27.5853,-7.586 l -17.2408,0 0,-8.7928 q 0,-10.8618 4.8274,-15.6892 4.8275,-4.9998 16.034,-4.9998 10.3445,0 24.482,5.1722 l 2.5861,-7.586 q -15.1719,-6.0342 -28.4474,-6.0342 -29.4818,0 -29.4818,28.6197 l 0,43.4469 z m 34.9989,13.7927 q -16.5512,0 -24.9992,-16.2064 l 0,-24.482 15.6891,0 q 13.7927,0 21.0339,5.3447 7.2411,5.3447 7.2411,16.034 0,9.31 -4.9998,14.3099 -4.9999,4.9998 -13.9651,4.9998 z"
         style="font-style:normal;font-variant:normal;font-weight:300;font-stretch:normal;font-size:medium;line-height:1000%;font-family:'Fira Sans';-inkscape-font-specification:'Fira Sans Light';text-align:center;letter-spacing:0px;word-spacing:0px;writing-mode:lr-tb;text-anchor:middle;fill:#333333;fill-opacity:1;stroke:none;stroke-width:1px;stroke-linecap:butt;stroke-linejoin:miter;stroke-opacity:1"
         id="path8317"
         inkscape:connector-curvature="0" />
      <path
         d="m 3456.6803,1889.4954 q -16.3788,0 -24.482,12.2409 -8.2756,12.0686 -8.2756,34.3093 0,21.7234 8.9653,34.6541 8.7928,12.7582 25.344,12.7582 8.1032,0 14.6547,-3.2758 6.5515,-3.4481 11.0341,-9.1376 l 0,44.4813 9.9997,1.3793 0,-125.5133 -8.6204,0 -0.8621,13.1031 q -4.9998,-7.0688 -12.0685,-11.0342 -7.0688,-3.9653 -15.6892,-3.9653 z m 3.4482,85.5145 q -12.4134,0 -18.9649,-9.8273 -6.5516,-9.8273 -6.5516,-29.137 0,-38.2746 23.9648,-38.2746 8.1032,0 14.1375,4.1378 5.8619,4.1378 11.2065,11.3789 l 0,47.9295 q -4.3102,6.5515 -10.3445,10.1721 -6.0343,3.6206 -13.4478,3.6206 z"
         style="font-style:normal;font-variant:normal;font-weight:300;font-stretch:normal;font-size:medium;line-height:1000%;font-family:'Fira Sans';-inkscape-font-specification:'Fira Sans Light';text-align:center;letter-spacing:0px;word-spacing:0px;writing-mode:lr-tb;text-anchor:middle;fill:#333333;fill-opacity:1;stroke:none;stroke-width:1px;stroke-linecap:butt;stroke-linejoin:miter;stroke-opacity:1"
         id="path8319-1"
         inkscape:connector-curvature="0" />
      <path
         d="m 3338.9265,1939.149 44.8262,0 0,42.4124 9.9997,0 0,-90.1696 -9.9997,0 0,39.3091 -44.8262,0 0,-39.3091 -9.9997,0 0,90.1696 9.9997,0 0,-42.4124 z"
         style="font-style:normal;font-variant:normal;font-weight:300;font-stretch:normal;font-size:medium;line-height:1000%;font-family:'Fira Sans';-inkscape-font-specification:'Fira Sans Light';text-align:center;letter-spacing:0px;word-spacing:0px;writing-mode:lr-tb;text-anchor:middle;fill:#333333;fill-opacity:1;stroke:none;stroke-width:1px;stroke-linecap:butt;stroke-linejoin:miter;stroke-opacity:1"
         id="path8321"
         inkscape:connector-curvature="0" />
      <path
         d="m 3226.8589,1981.5614 9.8273,0 0,-55.8603 q 0,-10.8617 -1.0345,-22.7579 l 44.9986,78.6182 11.7238,0 0,-90.1696 -9.9997,0 0,52.9294 q 0,8.7928 1.0345,25.344 l -44.8262,-78.2734 -11.7238,0 0,90.1696 z"
         style="font-style:normal;font-variant:normal;font-weight:300;font-stretch:normal;font-size:medium;line-height:1000%;font-family:'Fira Sans';-inkscape-font-specification:'Fira Sans Light';text-align:center;letter-spacing:0px;word-spacing:0px;writing-mode:lr-tb;text-anchor:middle;fill:#333333;fill-opacity:1;stroke:none;stroke-width:1px;stroke-linecap:butt;stroke-linejoin:miter;stroke-opacity:1"
         id="path8323-4"
         inkscape:connector-curvature="0" />
      <path
         d="m 3170.4796,1889.4954 q -12.5858,0 -20.8614,6.3791 -8.4481,6.3791 -8.4481,17.4132 0,16.2064 18.7926,20.1718 -11.5514,1.2068 -17.4133,6.5515 -6.0343,5.1722 -6.0343,15.5167 0,13.4479 9.6549,20.689 9.4824,7.2412 24.8268,7.2412 10.6893,0 18.7925,-3.1034 8.1032,-3.1033 14.8271,-8.6204 l -5.5171,-6.2067 q -6.0342,4.6551 -12.4134,7.0688 -6.5515,2.4137 -15.3443,2.4137 -11.0341,0 -17.5856,-4.655 -6.724,-4.6551 -6.724,-14.9996 0,-9.1376 6.8964,-13.103 6.8963,-3.9654 19.6545,-3.9654 l 10.6893,0 -0.6896,-8.1032 -8.6204,0 q -11.2066,0 -17.4133,-4.3102 -6.2067,-4.3102 -6.2067,-12.4134 0,-7.586 5.5171,-11.5513 5.3447,-4.1378 14.4823,-4.1378 7.7584,0 13.4479,1.8964 5.517,1.7241 11.8961,5.6895 l 4.8275,-6.2067 q -6.8964,-4.8274 -14.3099,-7.2411 -7.4136,-2.4137 -16.7236,-2.4137 z"
         style="font-style:normal;font-variant:normal;font-weight:300;font-stretch:normal;font-size:medium;line-height:1000%;font-family:'Fira Sans';-inkscape-font-specification:'Fira Sans Light';text-align:center;letter-spacing:0px;word-spacing:0px;writing-mode:lr-tb;text-anchor:middle;fill:#333333;fill-opacity:1;stroke:none;stroke-width:1px;stroke-linecap:butt;stroke-linejoin:miter;stroke-opacity:1"
         id="path8325-3"
         inkscape:connector-curvature="0" />
      <path
         d="m 3083.0695,1921.7357 q -36.0333,0 -36.0333,29.3094 0,15.172 9.4824,22.9303 9.4825,7.586 24.6544,7.586 l 26.0337,0 0,-90.1696 -9.9997,0 0,30.3439 -14.1375,0 z m -62.4118,-30.3439 0,90.1696 9.9997,0 0,-90.1696 -9.9997,0 z m 61.3774,81.894 q -11.7238,0 -17.9305,-5.1722 -6.3791,-5.3447 -6.3791,-17.0685 0,-10.5169 5.8619,-15.8615 5.6894,-5.3447 19.3097,-5.3447 l 14.3099,0 0,43.4469 -15.1719,0 z"
         style="font-style:normal;font-variant:normal;font-weight:300;font-stretch:normal;font-size:medium;line-height:1000%;font-family:'Fira Sans';-inkscape-font-specification:'Fira Sans Light';text-align:center;letter-spacing:0px;word-spacing:0px;writing-mode:lr-tb;text-anchor:middle;fill:#333333;fill-opacity:1;stroke:none;stroke-width:1px;stroke-linecap:butt;stroke-linejoin:miter;stroke-opacity:1"
         id="path8327-6"
         inkscape:connector-curvature="0" />
      <path
         d="m 2870.4933,1981.5614 9.8273,0 0,-55.8603 q 0,-10.8617 -1.0345,-22.7579 l 44.9986,78.6182 11.7238,0 0,-90.1696 -9.9997,0 0,52.9294 q 0,8.7928 1.0345,25.344 l -44.8262,-78.2734 -11.7238,0 0,90.1696 z"
         style="font-style:normal;font-variant:normal;font-weight:300;font-stretch:normal;font-size:medium;line-height:1000%;font-family:'Fira Sans';-inkscape-font-specification:'Fira Sans Light';text-align:center;letter-spacing:0px;word-spacing:0px;writing-mode:lr-tb;text-anchor:middle;fill:#333333;fill-opacity:1;stroke:none;stroke-width:1px;stroke-linecap:butt;stroke-linejoin:miter;stroke-opacity:1"
         id="path8329-7"
         inkscape:connector-curvature="0" />
      <path
         d="m 2685.154,1981.5614 100.6865,0 0,-90.1696 -9.8273,0 0,81.7216 -35.6885,0 0,-81.7216 -9.6549,0 0,81.7216 -35.6885,0 0,-81.7216 -9.8273,0 0,90.1696 z"
         style="font-style:normal;font-variant:normal;font-weight:300;font-stretch:normal;font-size:medium;line-height:1000%;font-family:'Fira Sans';-inkscape-font-specification:'Fira Sans Light';text-align:center;letter-spacing:0px;word-spacing:0px;writing-mode:lr-tb;text-anchor:middle;fill:#333333;fill-opacity:1;stroke:none;stroke-width:1px;stroke-linecap:butt;stroke-linejoin:miter;stroke-opacity:1"
         id="path8331-6"
         inkscape:connector-curvature="0" />
      <path
         d="m 2594.469,1900.0123 29.999,0 0,81.5491 9.9997,0 0,-81.5491 31.0335,0 0,-8.6205 -72.2391,0 1.2069,8.6205 z"
         style="font-style:normal;font-variant:normal;font-weight:300;font-stretch:normal;font-size:medium;line-height:1000%;font-family:'Fira Sans';-inkscape-font-specification:'Fira Sans Light';text-align:center;letter-spacing:0px;word-spacing:0px;writing-mode:lr-tb;text-anchor:middle;fill:#333333;fill-opacity:1;stroke:none;stroke-width:1px;stroke-linecap:butt;stroke-linejoin:miter;stroke-opacity:1"
         id="path8333"
         inkscape:connector-curvature="0" />
      <path
         d="m 2544.6405,1889.4954 q -17.9305,0 -27.9301,12.4134 -10.1721,12.2409 -10.1721,34.3092 0,21.8959 10.3445,34.6541 10.1721,12.5858 27.9301,12.5858 17.9305,0 28.1026,-12.4134 9.9997,-12.5858 9.9997,-34.4817 0,-14.3099 -4.6551,-24.9992 -4.655,-10.6893 -13.2754,-16.3788 -8.6204,-5.6894 -20.3442,-5.6894 z m 0,8.448 q 13.103,0 20.3442,9.8272 7.2411,9.8273 7.2411,28.7922 0,18.7925 -7.0687,28.6198 -7.2411,9.8273 -20.3442,9.8273 -13.103,0 -20.3442,-9.8273 -7.4135,-9.8273 -7.4135,-28.9646 0,-18.7925 7.2411,-28.4474 7.0688,-9.8272 20.3442,-9.8272 z"
         style="font-style:normal;font-variant:normal;font-weight:300;font-stretch:normal;font-size:medium;line-height:1000%;font-family:'Fira Sans';-inkscape-font-specification:'Fira Sans Light';text-align:center;letter-spacing:0px;word-spacing:0px;writing-mode:lr-tb;text-anchor:middle;fill:#333333;fill-opacity:1;stroke:none;stroke-width:1px;stroke-linecap:butt;stroke-linejoin:miter;stroke-opacity:1"
         id="path8335"
         inkscape:connector-curvature="0" />
      <path
         d="m 2439.9862,1889.4954 q -16.3788,0 -24.482,12.2409 -8.2756,12.0686 -8.2756,34.3093 0,21.7234 8.9652,34.6541 8.7929,12.7582 25.3441,12.7582 8.1031,0 14.6547,-3.2758 6.5515,-3.4481 11.0341,-9.1376 l 0,44.4813 9.9997,1.3793 0,-125.5133 -8.6204,0 -0.8621,13.1031 q -4.9998,-7.0688 -12.0686,-11.0342 -7.0687,-3.9653 -15.6891,-3.9653 z m 3.4481,85.5145 q -12.4133,0 -18.9649,-9.8273 -6.5515,-9.8273 -6.5515,-29.137 0,-38.2746 23.9648,-38.2746 8.1032,0 14.1375,4.1378 5.8618,4.1378 11.2065,11.3789 l 0,47.9295 q -4.3102,6.5515 -10.3445,10.1721 -6.0343,3.6206 -13.4479,3.6206 z"
         style="font-style:normal;font-variant:normal;font-weight:300;font-stretch:normal;font-size:medium;line-height:1000%;font-family:'Fira Sans';-inkscape-font-specification:'Fira Sans Light';text-align:center;letter-spacing:0px;word-spacing:0px;writing-mode:lr-tb;text-anchor:middle;fill:#333333;fill-opacity:1;stroke:none;stroke-width:1px;stroke-linecap:butt;stroke-linejoin:miter;stroke-opacity:1"
         id="path8337"
         inkscape:connector-curvature="0" />
      <path
         d="m 2352.9211,1921.7357 q -36.0333,0 -36.0333,29.3094 0,15.172 9.4824,22.9303 9.4825,7.586 24.6544,7.586 l 26.0337,0 0,-90.1696 -9.9997,0 0,30.3439 -14.1375,0 z m -62.4118,-30.3439 0,90.1696 9.9997,0 0,-90.1696 -9.9997,0 z m 61.3774,81.894 q -11.7238,0 -17.9305,-5.1722 -6.3791,-5.3447 -6.3791,-17.0685 0,-10.5169 5.8619,-15.8615 5.6895,-5.3447 19.3097,-5.3447 l 14.3099,0 0,43.4469 -15.1719,0 z"
         style="font-style:normal;font-variant:normal;font-weight:300;font-stretch:normal;font-size:medium;line-height:1000%;font-family:'Fira Sans';-inkscape-font-specification:'Fira Sans Light';text-align:center;letter-spacing:0px;word-spacing:0px;writing-mode:lr-tb;text-anchor:middle;fill:#333333;fill-opacity:1;stroke:none;stroke-width:1px;stroke-linecap:butt;stroke-linejoin:miter;stroke-opacity:1"
         id="path8339"
         inkscape:connector-curvature="0" />
    </g>
    <g
       transform="matrix(-1,0,0,1,7247.7896,0)"
       id="g8708">
      <path
         d="m 4122.767,2299.988 q -24.504,0 -24.504,35.1522 0,16.0367 6.6713,25.6586 6.6712,9.622 19.3722,9.622 11.0332,0 17.961,-7.6976 l 0,32.2016 10.7766,1.2829 0,-94.8085 -9.2371,0 -0.898,9.4937 q -3.7205,-5.26 -8.8523,-8.0825 -5.26,-2.8224 -11.2897,-2.8224 z m 2.5658,8.7239 q 5.1317,0 9.4937,3.079 4.2337,3.0791 7.441,7.6976 l 0,33.4845 q -2.6942,3.977 -6.6712,6.2863 -4.1054,2.181 -8.8522,2.181 -8.4674,0 -12.5728,-6.4147 -4.2336,-6.5429 -4.2336,-19.8854 0,-13.3424 3.7205,-19.8854 3.7205,-6.5429 11.6746,-6.5429 z"
         style="font-style:normal;font-variant:normal;font-weight:normal;font-stretch:normal;font-size:128.29293823px;line-height:1000%;font-family:'Fira Mono';-inkscape-font-specification:'Fira Mono';text-align:center;letter-spacing:0px;word-spacing:0px;writing-mode:lr-tb;text-anchor:middle;fill:#ffffff;fill-opacity:1;stroke:none;stroke-width:1px;stroke-linecap:butt;stroke-linejoin:miter;stroke-opacity:1"
         id="path8341"
         inkscape:connector-curvature="0" />
      <path
         d="m 4030.3953,2299.988 q -4.1054,0 -9.4937,1.4112 l 1.5395,22.9644 8.7239,0 0,-14.4971 0.6415,0 q 15.6517,0 22.1947,22.323 l 0,28.481 -13.7274,0 0,8.3391 35.1523,0 0,-8.3391 -10.6483,0 0,-50.9323 10.6483,0 0,-8.339 -18.7308,0 -2.0527,16.0366 q -4.1053,-8.7239 -9.7502,-13.0859 -5.7732,-4.3619 -14.4971,-4.3619 z"
         style="font-style:normal;font-variant:normal;font-weight:normal;font-stretch:normal;font-size:128.29293823px;line-height:1000%;font-family:'Fira Mono';-inkscape-font-specification:'Fira Mono';text-align:center;letter-spacing:0px;word-spacing:0px;writing-mode:lr-tb;text-anchor:middle;fill:#ffffff;fill-opacity:1;stroke:none;stroke-width:1px;stroke-linecap:butt;stroke-linejoin:miter;stroke-opacity:1"
         id="path8343"
         inkscape:connector-curvature="0" />
      <path
         d="m 3973.3041,2299.988 q -13.9839,0 -21.4249,9.4937 -7.5693,9.3653 -7.5693,25.6585 0,15.9084 7.6976,25.6586 7.5693,9.622 21.4249,9.622 13.984,0 21.5532,-9.3654 7.5693,-9.4937 7.5693,-25.7869 0,-16.0366 -7.5693,-25.6586 -7.6975,-9.6219 -21.6815,-9.6219 z m 0,8.8522 q 8.8522,0 13.2142,6.5429 4.362,6.543 4.362,19.8854 0,13.3425 -4.2337,19.8854 -4.362,6.4147 -13.2142,6.4147 -8.8522,0 -13.0859,-6.4147 -4.3619,-6.5429 -4.3619,-20.0137 0,-13.3424 4.3619,-19.7571 4.2337,-6.5429 12.9576,-6.5429 z"
         style="font-style:normal;font-variant:normal;font-weight:normal;font-stretch:normal;font-size:128.29293823px;line-height:1000%;font-family:'Fira Mono';-inkscape-font-specification:'Fira Mono';text-align:center;letter-spacing:0px;word-spacing:0px;writing-mode:lr-tb;text-anchor:middle;fill:#ffffff;fill-opacity:1;stroke:none;stroke-width:1px;stroke-linecap:butt;stroke-linejoin:miter;stroke-opacity:1"
         id="path8345"
         inkscape:connector-curvature="0" />
      <path
         d="m 3882.2154,2272.9182 q -9.622,0 -18.3459,3.5922 l 3.4639,8.0824 q 6.4146,-2.8224 14.4971,-2.8224 14.1122,0 14.1122,11.1615 l 0,13.7273 -22.8361,0 1.1546,8.5956 21.6815,0 0,53.7548 10.9049,0 0,-53.7548 16.0366,0 0,-8.5956 -16.0366,0 0,-13.4707 q 0,-9.1088 -6.9278,-14.6254 -7.0561,-5.6449 -17.7044,-5.6449 z"
         style="font-style:normal;font-variant:normal;font-weight:normal;font-stretch:normal;font-size:128.29293823px;line-height:1000%;font-family:'Fira Mono';-inkscape-font-specification:'Fira Mono';text-align:center;letter-spacing:0px;word-spacing:0px;writing-mode:lr-tb;text-anchor:middle;fill:#ffffff;fill-opacity:1;stroke:none;stroke-width:1px;stroke-linecap:butt;stroke-linejoin:miter;stroke-opacity:1"
         id="path8347"
         inkscape:connector-curvature="0" />
      <path
         d="m 3833.5916,2369.0096 10.7766,0 0,-94.8085 -10.7766,-1.2829 0,96.0914 z m -14.7537,-37.0767 -33.8694,37.0767 14.2405,0 33.2279,-36.9484 -30.0205,-30.662 -13.8557,0 30.2772,30.5337 z"
         style="font-style:normal;font-variant:normal;font-weight:normal;font-stretch:normal;font-size:128.29293823px;line-height:1000%;font-family:'Fira Mono';-inkscape-font-specification:'Fira Mono';text-align:center;letter-spacing:0px;word-spacing:0px;writing-mode:lr-tb;text-anchor:middle;fill:#ffffff;fill-opacity:1;stroke:none;stroke-width:1px;stroke-linecap:butt;stroke-linejoin:miter;stroke-opacity:1"
         id="path8349"
         inkscape:connector-curvature="0" />
      <path
         d="m 3719.6666,2354.2559 q 0,3.9771 -1.2829,5.9015 -1.2829,1.7961 -4.2337,2.6941 l 2.6942,7.6976 q 9.8785,-1.2829 12.3161,-9.622 3.5922,4.6186 9.1088,7.0561 5.3883,2.4376 12.0595,2.4376 10.1352,0 16.0367,-5.6449 5.7731,-5.6449 5.7731,-15.1386 0,-10.3917 -8.0824,-16.0366 -8.2108,-5.6449 -23.4776,-5.6449 l -10.0069,0 0,-5.5166 q 0,-7.1844 4.1054,-10.2634 4.1054,-3.2073 11.9312,-3.2073 7.6976,0 17.5762,3.4639 l 2.9507,-8.2108 q -11.9312,-4.2336 -22.1947,-4.2336 -12.3161,0 -18.7307,5.7732 -6.543,5.7731 -6.543,16.0366 l 0,32.4581 z m 27.9679,8.0824 q -5.0034,0 -9.4937,-2.5658 -4.6185,-2.5659 -7.5693,-7.0561 l 0,-17.3196 9.7503,0 q 10.7766,0 15.5234,3.5922 4.7469,3.5922 4.7469,10.5201 0,12.8292 -12.9576,12.8292 z"
         style="font-style:normal;font-variant:normal;font-weight:normal;font-stretch:normal;font-size:128.29293823px;line-height:1000%;font-family:'Fira Mono';-inkscape-font-specification:'Fira Mono';text-align:center;letter-spacing:0px;word-spacing:0px;writing-mode:lr-tb;text-anchor:middle;fill:#ffffff;fill-opacity:1;stroke:none;stroke-width:1px;stroke-linecap:butt;stroke-linejoin:miter;stroke-opacity:1"
         id="path8351"
         inkscape:connector-curvature="0" />
      <path
         d="m 3645.5125,2299.988 q -4.1053,0 -9.4936,1.4112 l 1.5395,22.9644 8.7239,0 0,-14.4971 0.6415,0 q 15.6517,0 22.1946,22.323 l 0,28.481 -13.7273,0 0,8.3391 35.1523,0 0,-8.3391 -10.6484,0 0,-50.9323 10.6484,0 0,-8.339 -18.7308,0 -2.0527,16.0366 q -4.1054,-8.7239 -9.7503,-13.0859 -5.7731,-4.3619 -14.4971,-4.3619 z"
         style="font-style:normal;font-variant:normal;font-weight:normal;font-stretch:normal;font-size:128.29293823px;line-height:1000%;font-family:'Fira Mono';-inkscape-font-specification:'Fira Mono';text-align:center;letter-spacing:0px;word-spacing:0px;writing-mode:lr-tb;text-anchor:middle;fill:#ffffff;fill-opacity:1;stroke:none;stroke-width:1px;stroke-linecap:butt;stroke-linejoin:miter;stroke-opacity:1"
         id="path8353"
         inkscape:connector-curvature="0" />
      <path
         d="m 3614.2083,2301.3992 -9.2371,0 -0.898,9.4937 q -3.9771,-5.1317 -10.0069,-7.9542 -6.1581,-2.9507 -12.3161,-2.9507 -18.9874,0 -18.9874,20.0137 l 0,49.0079 10.7766,0 0,-41.0538 q 0,-7.5692 0.8981,-11.5463 0.7697,-3.9771 3.2073,-5.9015 2.4376,-1.9244 7.441,-1.9244 5.5166,0 10.3917,3.3356 4.8752,3.3356 7.9542,7.9542 l 0,49.1362 10.7766,0 0,-67.6104 z"
         style="font-style:normal;font-variant:normal;font-weight:normal;font-stretch:normal;font-size:128.29293823px;line-height:1000%;font-family:'Fira Mono';-inkscape-font-specification:'Fira Mono';text-align:center;letter-spacing:0px;word-spacing:0px;writing-mode:lr-tb;text-anchor:middle;fill:#ffffff;fill-opacity:1;stroke:none;stroke-width:1px;stroke-linecap:butt;stroke-linejoin:miter;stroke-opacity:1"
         id="path8355"
         inkscape:connector-curvature="0" />
      <path
         d="m 3511.5731,2269.8391 q -3.5922,0 -5.7731,2.181 -2.181,2.0527 -2.181,5.3883 0,3.3356 2.181,5.5166 2.1809,2.0527 5.7731,2.0527 3.464,0 5.6449,-2.0527 2.0527,-2.181 2.0527,-5.5166 0,-3.3356 -2.0527,-5.3883 -2.1809,-2.181 -5.6449,-2.181 z m -8.5956,90.5749 -18.9873,0 0,8.5956 50.5474,0 0,-8.5956 -20.7835,0 0,-50.4192 20.142,0 0,-8.5956 -30.9186,0 0,59.0148 z"
         style="font-style:normal;font-variant:normal;font-weight:normal;font-stretch:normal;font-size:128.29293823px;line-height:1000%;font-family:'Fira Mono';-inkscape-font-specification:'Fira Mono';text-align:center;letter-spacing:0px;word-spacing:0px;writing-mode:lr-tb;text-anchor:middle;fill:#ffffff;fill-opacity:1;stroke:none;stroke-width:1px;stroke-linecap:butt;stroke-linejoin:miter;stroke-opacity:1"
         id="path8357"
         inkscape:connector-curvature="0" />
      <path
         d="m 3409.1946,2359.7725 1.2829,9.2371 49.5211,0 0,-8.2108 -37.4616,-49.9059 34.5108,0 0,-9.4937 -47.4683,0 0,8.4673 37.2049,49.906 -37.5898,0 z"
         style="font-style:normal;font-variant:normal;font-weight:normal;font-stretch:normal;font-size:128.29293823px;line-height:1000%;font-family:'Fira Mono';-inkscape-font-specification:'Fira Mono';text-align:center;letter-spacing:0px;word-spacing:0px;writing-mode:lr-tb;text-anchor:middle;fill:#ffffff;fill-opacity:1;stroke:none;stroke-width:1px;stroke-linecap:butt;stroke-linejoin:miter;stroke-opacity:1"
         id="path8359"
         inkscape:connector-curvature="0" />
      <path
         d="m 3369.0381,2359.131 q 0,-4.7468 -3.2073,-7.9541 -3.3356,-3.3357 -8.0825,-3.3357 -4.8751,0 -8.0824,3.3357 -3.2074,3.2073 -3.2074,7.9541 0,4.8752 3.2074,8.0825 3.2073,3.2073 8.0824,3.2073 4.7469,0 8.0825,-3.2073 3.2073,-3.3356 3.2073,-8.0825 z"
         style="font-style:normal;font-variant:normal;font-weight:normal;font-stretch:normal;font-size:128.29293823px;line-height:1000%;font-family:'Fira Mono';-inkscape-font-specification:'Fira Mono';text-align:center;letter-spacing:0px;word-spacing:0px;writing-mode:lr-tb;text-anchor:middle;fill:#ffffff;fill-opacity:1;stroke:none;stroke-width:1px;stroke-linecap:butt;stroke-linejoin:miter;stroke-opacity:1"
         id="path8361"
         inkscape:connector-curvature="0" />
      <path
         d="m 3275.6401,2361.1837 q -8.8522,0 -17.5761,-5.9015 l -5.1318,7.0561 q 4.2337,3.7205 10.5201,5.9015 6.2863,2.181 12.1878,2.181 15.0103,0 23.4776,-9.3654 8.339,-9.4937 8.339,-25.5303 0,-10.1351 -3.7205,-18.2176 -3.8487,-8.0824 -11.0331,-12.701 -7.1845,-4.6185 -17.063,-4.6185 -13.0859,0 -22.5796,7.9541 l 5.26,7.0562 q 8.8523,-5.9015 17.4479,-5.9015 9.1088,0 14.6254,6.7995 5.3883,6.6712 5.3883,19.6288 0,12.9576 -5.3883,19.3723 -5.5166,6.2863 -14.7537,6.2863 z"
         style="font-style:normal;font-variant:normal;font-weight:normal;font-stretch:normal;font-size:128.29293823px;line-height:1000%;font-family:'Fira Mono';-inkscape-font-specification:'Fira Mono';text-align:center;letter-spacing:0px;word-spacing:0px;writing-mode:lr-tb;text-anchor:middle;fill:#ffffff;fill-opacity:1;stroke:none;stroke-width:1px;stroke-linecap:butt;stroke-linejoin:miter;stroke-opacity:1"
         id="path8363"
         inkscape:connector-curvature="0" />
      <path
         d="m 3203.5387,2299.988 q -13.984,0 -21.425,9.4937 -7.5692,9.3653 -7.5692,25.6585 0,15.9084 7.6975,25.6586 7.5693,9.622 21.425,9.622 13.9839,0 21.5532,-9.3654 7.5693,-9.4937 7.5693,-25.7869 0,-16.0366 -7.5693,-25.6586 -7.6976,-9.6219 -21.6815,-9.6219 z m 0,8.8522 q 8.8522,0 13.2141,6.5429 4.362,6.543 4.362,19.8854 0,13.3425 -4.2337,19.8854 -4.3619,6.4147 -13.2141,6.4147 -8.8523,0 -13.0859,-6.4147 -4.362,-6.5429 -4.362,-20.0137 0,-13.3424 4.362,-19.7571 4.2336,-6.5429 12.9576,-6.5429 z"
         style="font-style:normal;font-variant:normal;font-weight:normal;font-stretch:normal;font-size:128.29293823px;line-height:1000%;font-family:'Fira Mono';-inkscape-font-specification:'Fira Mono';text-align:center;letter-spacing:0px;word-spacing:0px;writing-mode:lr-tb;text-anchor:middle;fill:#ffffff;fill-opacity:1;stroke:none;stroke-width:1px;stroke-linecap:butt;stroke-linejoin:miter;stroke-opacity:1"
         id="path8365"
         inkscape:connector-curvature="0" />
      <path
         d="m 3107.8313,2299.988 q -5.7732,0 -9.3654,4.1054 -3.7204,3.977 -3.7204,14.6253 l 0,50.2909 9.8785,0 0,-48.4948 q 0,-7.0561 0.8981,-9.4936 0.898,-2.5659 4.3619,-2.5659 6.543,0 11.803,8.0825 l 0,52.4718 10.0068,0 0,-48.4948 q 0,-7.0561 0.8981,-9.4936 0.898,-2.5659 4.3619,-2.5659 6.543,0 11.803,8.0825 l 0,52.4718 9.8785,0 0,-67.6104 -8.339,0 -0.7698,7.9542 q -3.079,-4.4903 -6.4146,-6.9279 -3.4639,-2.4375 -8.2108,-2.4375 -9.4936,0 -12.1878,8.9805 -3.079,-4.362 -6.5429,-6.6712 -3.4639,-2.3093 -8.3391,-2.3093 z"
         style="font-style:normal;font-variant:normal;font-weight:normal;font-stretch:normal;font-size:128.29293823px;line-height:1000%;font-family:'Fira Mono';-inkscape-font-specification:'Fira Mono';text-align:center;letter-spacing:0px;word-spacing:0px;writing-mode:lr-tb;text-anchor:middle;fill:#ffffff;fill-opacity:1;stroke:none;stroke-width:1px;stroke-linecap:butt;stroke-linejoin:miter;stroke-opacity:1"
         id="path8367"
         inkscape:connector-curvature="0" />
    </g>
  </g>
</svg>
