<?xml version="1.0" encoding="UTF-8" standalone="no"?>
<!-- Created with Inkscape (http://www.inkscape.org/) -->

<svg
   xmlns:dc="http://purl.org/dc/elements/1.1/"
   xmlns:cc="http://creativecommons.org/ns#"
   xmlns:rdf="http://www.w3.org/1999/02/22-rdf-syntax-ns#"
   xmlns:svg="http://www.w3.org/2000/svg"
   xmlns="http://www.w3.org/2000/svg"
   xmlns:sodipodi="http://sodipodi.sourceforge.net/DTD/sodipodi-0.dtd"
   xmlns:inkscape="http://www.inkscape.org/namespaces/inkscape"
   width="75cm"
   height="54cm"
   viewBox="0 0 2657.4803 1913.3858"
   id="svg8387"
   version="1.1"
   inkscape:version="0.91 r13725"
   sodipodi:docname="p5.svg">
  <defs
     id="defs8389" />
  <sodipodi:namedview
     id="base"
     pagecolor="#ffffff"
     bordercolor="#666666"
     borderopacity="1.0"
     inkscape:pageopacity="0.0"
     inkscape:pageshadow="2"
     inkscape:zoom="0.11313709"
     inkscape:cx="1000.7774"
     inkscape:cy="226.3434"
     inkscape:document-units="px"
     inkscape:current-layer="layer1"
     showgrid="false"
     units="cm"
     inkscape:window-width="1364"
     inkscape:window-height="750"
     inkscape:window-x="0"
     inkscape:window-y="16"
     inkscape:window-maximized="1"
     inkscape:snap-bbox="true"
     inkscape:object-paths="true"
     inkscape:snap-bbox-midpoints="true"
     inkscape:snap-bbox-edge-midpoints="true"
     inkscape:bbox-nodes="true"
     inkscape:snap-global="true">
    <sodipodi:guide
       position="0,0"
       orientation="0,2657.4803"
       id="guide4070" />
    <sodipodi:guide
       position="2687.0058,-1378.8582"
       orientation="-1913.3858,0"
       id="guide4072" />
    <sodipodi:guide
       position="2657.4804,1913.3858"
       orientation="0,-2657.4803"
       id="guide4074" />
    <sodipodi:guide
       position="3252.6913,1458.4077"
       orientation="1913.3858,0"
       id="guide4076" />
  </sodipodi:namedview>
  <metadata
     id="metadata8392">
    <rdf:RDF>
      <cc:Work
         rdf:about="">
        <dc:format>image/svg+xml</dc:format>
        <dc:type
           rdf:resource="http://purl.org/dc/dcmitype/StillImage" />
        <dc:title></dc:title>
      </cc:Work>
    </rdf:RDF>
  </metadata>
  <g
     inkscape:label="Layer 1"
     inkscape:groupmode="layer"
     id="layer1"
     transform="translate(0,861.02357)">
    <path
       sodipodi:nodetypes="cccccccccccccc"
       style="color:#000000;clip-rule:nonzero;display:inline;overflow:visible;visibility:visible;opacity:1;isolation:auto;mix-blend-mode:normal;color-interpolation:sRGB;color-interpolation-filters:linearRGB;solid-color:#000000;solid-opacity:1;fill:#ff372d;fill-opacity:1;fill-rule:evenodd;stroke:#ff372d;stroke-width:3;stroke-linecap:butt;stroke-linejoin:miter;stroke-miterlimit:4;stroke-dasharray:none;stroke-dashoffset:0;stroke-opacity:1;color-rendering:auto;image-rendering:auto;shape-rendering:auto;text-rendering:auto;enable-background:accumulate"
       d="m 2187.7993,302.59516 c -93.0038,4.65265 -140.3081,55.73067 -141.8923,153.23085 -0.078,4.78138 0.044,12.26872 0.3331,22.45419 l 56.7187,-0.17644 c 3.5773,-80.04416 30.5461,-121.50069 80.9287,-124.35832 45.0992,-0.13948 70.0654,26.71388 74.8853,80.53981 -0.7636,46.98245 -33.9717,93.43792 -99.6316,139.37299 -76.7172,53.66182 -117.4464,135.06365 -122.1817,244.21428 l 305.4524,-0.94073 0.8496,-52.07752 -242.929,0.75064 c 5.9794,-59.6794 42.1735,-113.94927 108.5634,-162.79777 71.6796,-51.98257 108.6843,-108.00852 111.0275,-168.09214 -8.3821,-86.8674 -52.4253,-130.91068 -132.1241,-132.11984 z"
       id="path6202"
       inkscape:connector-curvature="0" />
    <flowRoot
       xml:space="preserve"
       id="flowRoot6877"
       style="font-style:normal;font-variant:normal;font-weight:normal;font-stretch:normal;font-size:11.04881573px;line-height:100%;font-family:Ubuntu;-inkscape-font-specification:'Ubuntu, Normal';text-align:start;letter-spacing:0px;word-spacing:0px;writing-mode:lr-tb;text-anchor:start;fill:#000000;fill-opacity:1;stroke:none;stroke-width:1px;stroke-linecap:butt;stroke-linejoin:miter;stroke-opacity:1"><flowRegion
         id="flowRegion6879"><rect
           id="rect6881"
           width="375.02835"
           height="122.48401"
           x="-4841.2109"
           y="5752.687" /></flowRegion><flowPara
         id="flowPara6883" /></flowRoot>    <g
       id="g7438"
       transform="matrix(0.42314323,0,0,0.44195262,-5174.4778,5516.9212)"
       style="fill:#1a1a1a">
      <g
         id="flowRoot6995"
         style="font-style:normal;font-variant:normal;font-weight:normal;font-stretch:normal;font-size:20.68664551px;line-height:100%;font-family:Ubuntu;-inkscape-font-specification:'Ubuntu, Normal';text-align:start;letter-spacing:0px;word-spacing:0px;writing-mode:lr-tb;text-anchor:start;fill:#1a1a1a;fill-opacity:1;stroke:none;stroke-width:1px;stroke-linecap:butt;stroke-linejoin:miter;stroke-opacity:1"
         transform="matrix(0.85913397,0,0,0.85913397,1006.2086,-425.11908)" />
      <g
         transform="matrix(0.89226377,0,0,0.89226377,210.13123,98.655779)"
         id="text7363"
         style="font-style:normal;font-variant:normal;font-weight:normal;font-stretch:normal;font-size:35.19487px;line-height:100%;font-family:Ubuntu;-inkscape-font-specification:'Ubuntu, Normal';text-align:start;letter-spacing:0px;word-spacing:0px;writing-mode:lr-tb;text-anchor:start;fill:#1a1a1a;fill-opacity:1;stroke:none;stroke-width:1px;stroke-linecap:butt;stroke-linejoin:miter;stroke-opacity:1" />
    </g>
    <path
       inkscape:connector-curvature="0"
       style="color:#000000;clip-rule:nonzero;display:inline;overflow:visible;visibility:visible;opacity:1;isolation:auto;mix-blend-mode:normal;color-interpolation:sRGB;color-interpolation-filters:linearRGB;solid-color:#000000;solid-opacity:1;fill:#ffffff;fill-opacity:1;fill-rule:evenodd;stroke:none;stroke-width:1px;stroke-linecap:butt;stroke-linejoin:miter;stroke-miterlimit:4;stroke-dasharray:none;stroke-dashoffset:0;stroke-opacity:1;color-rendering:auto;image-rendering:auto;shape-rendering:auto;text-rendering:auto;enable-background:accumulate"
       d="m 0,-861.02368 2657.4802,0 0,1913.38588 -2657.4802,0 z"
       id="rect4113" />
    <path
       inkscape:connector-curvature="0"
       style="color:#000000;clip-rule:nonzero;display:inline;overflow:visible;visibility:visible;opacity:1;isolation:auto;mix-blend-mode:normal;color-interpolation:sRGB;color-interpolation-filters:linearRGB;solid-color:#000000;solid-opacity:1;fill:#5e890a;fill-opacity:1;fill-rule:evenodd;stroke:none;stroke-width:1px;stroke-linecap:butt;stroke-linejoin:miter;stroke-miterlimit:4;stroke-dasharray:none;stroke-dashoffset:0;stroke-opacity:1;color-rendering:auto;image-rendering:auto;shape-rendering:auto;text-rendering:auto;enable-background:accumulate"
       d="m 0,850.86853 2657.4802,0 0,200.71237 -2657.4802,0 z"
       id="rect10530" />
    <path
       id="path10266"
       style="fill:#5e890a;fill-opacity:1;fill-rule:evenodd;stroke:none"
       d="m 383.43689,-729.4004 c 91.90476,-15.00447 181.33399,6.44985 253.56496,53.73031 -9.46475,6.70885 -18.049,14.34057 -25.69336,22.70313 -67.66664,-44.91993 -151.77859,-65.41921 -238.24405,-51.30289 -156.56845,25.5602 -269.79609,156.22488 -279.413768,308.16135 15.125118,170.27926 153.110678,279.6058 298.590348,153.23705 105.71662,88.16844 252.78487,-21.44678 299.2612,71.58989 5.6135,-7.30834 10.92836,-14.84402 15.92037,-22.59199 3.6491,-5.66535 7.11312,-11.38693 10.40215,-17.16347 -65.90936,-60.74996 -238.85101,30.85535 -315.44494,-33.86522 102.09718,28.74056 278.99118,-57.75715 349.97405,-53.37533 10.44514,-45.10181 10.35358,-92.11633 -1.69728,-139.64371 l 33.65046,-35.50629 c 33.05607,95.74332 8.93234,216.27239 -47.21668,298.84935 -53.29882,78.392885 -137.42527,135.587058 -238.34313,152.062035 -81.29916,13.2726585 -160.6515,-1.991018 -227.88608,-38.412387 24.29932,-14.819404 47.75416,-42.182928 59.61543,-90.779108 -41.11225,60.372859 -107.37975,60.261694 -141.84252,29.64637 -51.66789,-51.32244 -88.22019,-118.83116 -100.843341,-196.21716 -8.186925,-50.1873 -5.495401,-99.63434 6.304047,-145.95084 l 0.03963,-0.29325 -0.01,0.17734 C 128.24827,-598.1265 238.52293,-705.74315 383.43661,-729.4007 Z"
       inkscape:connector-curvature="0" />
    <path
       id="path10268"
       style="fill:#ff352d;fill-opacity:1;fill-rule:evenodd;stroke:none"
       d="m 376.25432,-399.96221 c 16.9588,51.43549 9.93411,99.08416 -18.50513,111.53736 -32.08902,14.04433 -79.27598,-22.02917 -105.40141,-80.57904 -26.12227,-58.54925 -21.29138,-117.39982 10.79504,-131.44666 19.80387,-8.67082 45.35387,1.75917 68.16,24.76993 -46.79975,13.81312 -85.03225,25.63215 -53.78715,95.6574 14.80926,33.18683 41.5563,53.63684 59.74367,45.67222 14.44671,-6.3267 19.14505,-28.6837 13.03814,-54.24892 z m 512.933,-270.56552 c -98.42032,7.29126 -220.10905,5.59843 -305.9107,-2.14953 -85.79972,-7.74988 -76.68298,93.89571 -48.92653,156.49896 27.75324,62.60578 97.13994,138.033 149.43952,70.21098 52.29709,-67.8176 133.38146,-157.71552 205.39771,-224.56041 z m -43.99644,24.69858 -228.38444,137.15688 c -31.9557,19.18922 -16.16928,46.45929 21.61665,18.09392 z m -7.95007,-9.5564 -249.77753,89.30354 c -52.19789,18.66369 -55.53623,-65.6011 14.84905,-65.37941 85.72837,0.2667 145.41774,-14.36773 234.92848,-23.92413 z M 515.43442,-508.5933 c 16.79075,37.6255 11.8929,76.22881 -10.93533,86.22165 -22.82886,9.99794 -54.94499,-12.40391 -71.73323,-50.03192 -16.78829,-37.62362 -11.89292,-76.22628 10.93587,-86.22422 22.82826,-9.99286 54.94443,12.40898 71.73269,50.03449 z m -123.66717,80.74136 -97.36226,42.76092 c -0.30083,-0.63418 -0.5944,-1.27848 -0.88302,-1.92468 -6.19853,-13.894 -8.74982,-27.53157 -7.86359,-38.34179 0.34294,-4.16708 1.07572,-7.61153 2.17105,-9.98529 l 86.3947,-37.94386 c 37.32422,-16.3916 54.66074,29.13534 17.54312,45.4347 z M 120.9232,-309.04796 c -6.09485,-12.60856 -12.51251,-33.3864 -15.00192,-46.47881 l 115.93692,-50.84618 c 3.01493,14.4467 7.82627,29.4436 14.48081,44.36216 l 0.91591,2.02069 z"
       inkscape:connector-curvature="0" />
    <g
       id="g6221"
       transform="translate(-3.2393799e-5,6.7533373e-5)">
      <path
         inkscape:connector-curvature="0"
         d="m 898.31288,-507.71982 0,175.95519 -23.12516,0 0,-195.58567 23.12516,0 0,0.12046 90.0722,0 0,-0.12046 23.12642,0 0,195.58567 -23.12642,0 0,-175.95519 z"
         style="fill:#ff372d;fill-opacity:1;fill-rule:nonzero;stroke:none"
         id="path10272" />
      <path
         inkscape:connector-curvature="0"
         d="m 1075.0519,-416.39032 0,84.62569 -23.9375,0 0,-195.58567 43.9535,0 c 51.5729,0 77.3587,18.47282 77.3587,55.41977 0,37.02665 -26.1463,55.54021 -78.4401,55.54021 z m 0,-91.20947 0,70.97978 18.6638,0 c 36.6051,0 54.9086,-11.76901 54.9086,-35.31052 0,-23.77981 -18.3035,-35.66926 -54.9086,-35.66926 z"
         style="fill:#ff372d;fill-opacity:1;fill-rule:nonzero;stroke:none"
         id="path10274" />
      <path
         inkscape:connector-curvature="0"
         d="m 1218.8749,-430.27496 c 0.7209,54.02338 20.9623,81.03444 60.7237,81.03444 39.4009,0 59.732,-27.01106 60.9945,-81.03444 -1.2625,-53.94407 -21.5936,-80.91612 -60.9945,-80.91612 -39.7614,0 -60.0028,26.97205 -60.7237,80.91612 z m -25.4271,0 c 2.4354,-67.58998 31.2423,-101.38409 86.4216,-101.38409 54.9085,0 83.4446,33.79411 85.6075,101.38409 -2.1629,67.42928 -30.699,101.14368 -85.6075,101.14368 -55.1793,0 -83.9862,-33.7144 -86.4216,-101.14368 z"
         style="fill:#ff372d;fill-opacity:1;fill-rule:nonzero;stroke:none"
         id="path10276" />
      <path
         inkscape:connector-curvature="0"
         d="m 1474.8914,-478.51389 c -44.4514,2.71305 -66.6762,18.95156 -66.6762,48.71771 0,29.84409 22.2248,46.24378 66.6762,49.19515 z m 23.1251,-0.11997 0,98.03287 c 44.5412,-2.23387 66.8114,-18.63313 66.8114,-49.19515 0,-30.32459 -22.2702,-46.6021 -66.8114,-48.83772 z m -23.1251,-19.98923 0,-28.72716 23.1251,0 0,28.60716 c 60.7697,3.0328 91.1549,26.09511 91.1549,69.18568 0,43.41071 -30.3852,66.51203 -91.1549,69.30437 l 0,28.48846 -23.1251,0 0,-28.60673 c -60.6799,-3.99074 -91.0197,-27.05176 -91.0197,-69.1861 0,-41.97361 30.3398,-64.99522 91.0197,-69.06568 z"
         style="fill:#ff372d;fill-opacity:1;fill-rule:nonzero;stroke:none"
         id="path10278" />
      <path
         inkscape:connector-curvature="0"
         d="m 1747.5529,-528.22158 c -19.4629,0.0792 -36.3006,8.61922 -50.5188,25.62633 l 0.2474,0.1169 -63.9633,82.90608 0,-107.68846 -14.5955,0 0,195.17454 14.5955,0 0,-64.01736 39.985,-51.73706 51.0872,89.28148 c 9.9108,15.73116 22.6768,24.30664 38.2368,25.88716 l 0.7261,-14.7 c -6.9997,-0.0526 -18.114,-5.90141 -25.8941,-17.44559 l -54.516,-95.53685 27.4205,-35.61857 c 9.9852,-11.39167 22.3803,-17.1306 37.1892,-17.21163 z"
         style="fill:#5e890a;fill-opacity:1;fill-rule:nonzero;stroke:none"
         id="path10280" />
      <path
         inkscape:connector-curvature="0"
         d="m 1810.2635,-403.42465 -23.1013,71.34027 -15.3586,0 63.0845,-194.15028 17.7705,0 63.0846,194.15028 -15.2316,0 -23.2283,-71.34027 z m 4.4426,-13.76461 58.1346,0 -29.0674,-89.53362 z"
         style="fill:#5e890a;fill-opacity:1;fill-rule:nonzero;stroke:none"
         id="path10282" />
      <path
         inkscape:connector-curvature="0"
         d="m 1962.0069,-418.86467 0,86.78029 -15.3586,0 0,-194.15028 38.4603,0 c 47.1355,0 70.7021,17.87492 70.7021,53.62564 0,35.82828 -23.905,53.74435 -71.7159,53.74435 z m 0,-93.36536 0,78.88156 21.834,0 c 37.8256,0 56.7382,-13.08743 56.7382,-39.26055 0,-26.41357 -18.9126,-39.62101 -56.7382,-39.62101 z"
         style="fill:#5e890a;fill-opacity:1;fill-rule:nonzero;stroke:none"
         id="path10284" />
      <path
         inkscape:connector-curvature="0"
         d="m 2080.7789,-526.23466 14.5974,0 0,88.09826 86.4415,0 0,-88.09826 14.5973,0 0,194.15028 -14.5973,0 0,-92.28743 -86.4415,0 0,92.28743 -14.5974,0 z"
         style="fill:#5e890a;fill-opacity:1;fill-rule:nonzero;stroke:none"
         id="path10286" />
      <path
         inkscape:connector-curvature="0"
         d="m 2374.3047,-526.23466 0,194.15028 -14.5972,0 0,-166.25931 -110.9392,166.25931 -11.9315,0 0,-194.15028 14.5969,0 0,164.10644 108.2738,-164.10644 z"
         style="fill:#5e890a;fill-opacity:1;fill-rule:nonzero;stroke:none"
         id="path10288" />
      <path
         inkscape:connector-curvature="0"
         d="m 2468.4975,-524.67624 c -20.1399,0 -38.8393,5.1536 -56.1085,15.41142 l 0,15.29574 0.3757,0.64643 c 15.4854,-10.77209 32.8803,-16.14882 52.1738,-16.14882 6.5156,0 13.0686,0.63816 19.669,1.91412 27.4173,5.26668 41.136,18.1951 41.136,38.78354 0,15.71902 -9.7434,27.12411 -29.2058,34.22737 l -52.1603,0 0,13.76764 54.4516,0 c 17.9397,7.10153 26.9145,18.18819 26.9145,33.26945 0,20.66772 -13.7187,33.64511 -41.136,38.91221 -6.6004,1.27596 -13.1534,1.91369 -19.669,1.91369 -19.2935,0 -36.6884,-5.38842 -52.1738,-16.16223 l -0.3757,0.64815 0,15.29443 c 17.2692,10.25739 35.9686,15.41272 56.1085,15.41272 8.5465,0 17.2984,-0.99347 26.268,-2.98905 31.6484,-6.9421 47.4775,-24.46175 47.4775,-52.55117 l 0,-1.07446 c -0.2539,-16.99673 -8.5976,-30.31638 -25.0143,-39.97154 16.4167,-9.65688 24.7604,-23.02507 25.0143,-40.10149 l 0,-1.07492 c 0,-28.00926 -15.8291,-45.49209 -47.4775,-52.43417 -8.9696,-1.99561 -17.7215,-2.98906 -26.268,-2.98906 z"
         style="fill:#5e890a;fill-opacity:1;fill-rule:nonzero;stroke:none"
         id="path10290" />
    </g>
    <path
       sodipodi:nodetypes="cccccccc"
       style="color:#000000;clip-rule:nonzero;display:inline;overflow:visible;visibility:visible;opacity:1;isolation:auto;mix-blend-mode:normal;color-interpolation:sRGB;color-interpolation-filters:linearRGB;solid-color:#000000;solid-opacity:1;fill:#ff372d;fill-opacity:1;fill-rule:evenodd;stroke:none;stroke-width:1px;stroke-linecap:butt;stroke-linejoin:miter;stroke-miterlimit:4;stroke-dasharray:none;stroke-dashoffset:0;stroke-opacity:1;color-rendering:auto;image-rendering:auto;shape-rendering:auto;text-rendering:auto;enable-background:accumulate"
       d="M 1119.1339,310.74536 1030.736,359.01431 1772.1933,1008.16 987.0056,1055.2313 608.41245,645.87564 c -24.18874,16.75593 -81.10343,56.88489 -81.10343,56.88489 L 404.80975,83.670123 Z"
       id="path10581"
       inkscape:connector-curvature="0"
       inkscape:transform-center-x="-142.79345"
       inkscape:transform-center-y="-0.77610108" />
    <flowRoot
       xml:space="preserve"
       id="flowRoot6209"
       style="fill:black;stroke:none;stroke-opacity:1;stroke-width:1px;stroke-linejoin:miter;stroke-linecap:butt;fill-opacity:1;font-family:Ubuntu;font-style:normal;font-weight:normal;font-size:25px;line-height:1000%;letter-spacing:0px;word-spacing:0px;-inkscape-font-specification:'Ubuntu, Normal';font-stretch:normal;font-variant:normal;text-anchor:start;text-align:start;writing-mode:lr"><flowRegion
         id="flowRegion6211"><rect
           id="rect6213"
           width="0"
           height="53.033009"
           x="2657.4802"
           y="569.88293" /></flowRegion><flowPara
         id="flowPara6215"></flowPara></flowRoot>    <text
       xml:space="preserve"
       style="font-style:normal;font-variant:normal;font-weight:300;font-stretch:normal;font-size:192.5px;line-height:1000%;font-family:'Fira Sans';-inkscape-font-specification:'Fira Sans Light';text-align:center;letter-spacing:0px;word-spacing:0px;writing-mode:lr-tb;text-anchor:middle;fill:#333333;fill-opacity:1;stroke:none;stroke-width:1px;stroke-linecap:butt;stroke-linejoin:miter;stroke-opacity:1"
       x="1708.233"
       y="-103.85006"
       id="text6217"
       sodipodi:linespacing="1000%"><tspan
         sodipodi:role="line"
         id="tspan6219"
         x="1708.233"
         y="-103.85006"
         style="font-style:normal;font-variant:normal;font-weight:300;font-stretch:normal;font-family:'Fira Sans';-inkscape-font-specification:'Fira Sans Light'">Карнизы и шторы</tspan></text>
    <text
       sodipodi:linespacing="1000%"
       id="text6233"
       y="115.879"
       x="1705.963"
       style="font-style:normal;font-variant:normal;font-weight:300;font-stretch:normal;font-size:112.35180664px;line-height:1000%;font-family:'Fira Sans';-inkscape-font-specification:'Fira Sans Light';text-align:center;letter-spacing:0px;word-spacing:0px;writing-mode:lr-tb;text-anchor:middle;fill:#5e890a;fill-opacity:1;stroke:none;stroke-width:1px;stroke-linecap:butt;stroke-linejoin:miter;stroke-opacity:1"
       xml:space="preserve"><tspan
         style="font-style:normal;font-variant:normal;font-weight:normal;font-stretch:normal;font-size:112.35180664px;font-family:'Fira Mono';-inkscape-font-specification:'Fira Mono';fill:#5e890a;fill-opacity:1"
         y="115.879"
         x="1705.963"
         id="tspan6235"
         sodipodi:role="line">profkarniz.com</tspan></text>
    <text
       xml:space="preserve"
       style="font-style:normal;font-variant:normal;font-weight:normal;font-stretch:normal;font-size:193.70341492px;line-height:1000%;font-family:Ubuntu;-inkscape-font-specification:'Ubuntu, Normal';text-align:start;letter-spacing:0px;word-spacing:0px;writing-mode:lr-tb;text-anchor:start;fill:#ffffff;fill-opacity:1;stroke:none;stroke-width:1px;stroke-linecap:butt;stroke-linejoin:miter;stroke-opacity:1"
       x="1982.2826"
       y="1002.4593"
       id="text7722"
       sodipodi:linespacing="1000%"><tspan
         style="font-style:normal;font-variant:normal;font-weight:500;font-stretch:normal;font-family:'Fira Sans';-inkscape-font-specification:'Fira Sans Medium'"
         sodipodi:role="line"
         id="tspan7724"
         x="1982.2826"
         y="1002.4593">этаж</tspan></text>
    <text
       xml:space="preserve"
       style="font-style:normal;font-variant:normal;font-weight:normal;font-stretch:normal;font-size:75.16368866px;line-height:1000%;font-family:Ubuntu;-inkscape-font-specification:'Ubuntu, Normal';text-align:start;letter-spacing:0px;word-spacing:0px;writing-mode:lr-tb;text-anchor:start;fill:#ff2921;fill-opacity:1;stroke:none;stroke-width:1px;stroke-linecap:butt;stroke-linejoin:miter;stroke-opacity:1;"
       x="2007.8721"
       y="800.48199"
       id="text7726"
       sodipodi:linespacing="1000%"><tspan
         sodipodi:role="line"
         id="tspan7728"
         x="2007.8721"
         y="800.48199"
         style="font-style:normal;font-variant:normal;font-weight:500;font-stretch:normal;font-size:751.63684082px;font-family:'Fira Mono';-inkscape-font-specification:'Fira Mono Medium';fill:#ff2921;fill-opacity:1;">2</tspan></text>
    <path
       style="fill:#ff2921;fill-opacity:1;fill-rule:evenodd;stroke:none"
       d="m 489.5625,1022.543 c 54.06632,112.5232 108.30597,256.5967 138.83203,361.2109 30.52293,104.6128 146.00002,46.9063 206.89063,-14.707 60.89506,-61.6108 117.6494,-178.1709 13.61914,-208.4141 -104.0239,-30.2423 -247.35092,-84.1781 -359.3418,-138.0898 z m 49.41406,40.3925 278.36133,171.7325 c 50.86213,31.3861 26.04441,62.5776 -11.31836,33.8164 z m -7.58008,13.7774 220.58204,252.8535 c 46.09799,52.8398 -51.5832,95.7096 -83.84766,12.7266 -39.3016,-101.0708 -84.11794,-164.5948 -136.73438,-265.5801 z m 397.60938,272.9726 c -23.26991,0.1636 -52.0636,13.7456 -76.04688,38.1309 -36.54709,37.1556 -48.08548,85.3248 -25.76953,107.5879 22.32218,22.2614 70.03913,10.188 106.58399,-26.9668 36.55006,-37.1568 48.08782,-85.3264 25.76562,-107.5879 -7.6711,-7.6529 -18.3442,-11.2497 -30.5332,-11.1641 z m 215.64454,107.7051 c -29.1812,0.3824 -65.6808,16.0936 -99.4609,44.1133 l 25.375,25.3145 c 27.2817,-19.005 55.7784,-23.8027 69.9043,-9.7149 17.783,17.7356 6.063,58.6809 -26.1719,91.4551 -68.0181,69.1511 -99.6024,29.592 -137.49417,-19.1328 -16.55695,37.4882 -17.03153,72.3943 2.33008,91.707 31.36789,31.2915 102.89739,9.7845 159.76949,-48.0312 56.8714,-57.8197 77.5439,-130.052 46.1778,-161.3477 -9.9928,-9.9666 -24.0598,-14.5778 -40.4297,-14.3633 z m -168.67774,24.7891 c -25.56495,-0.566 -43.02646,28.8863 -16.18555,55.5996 l 84.60349,84.1973 c 3.3013,0.1928 7.6963,-0.5349 12.7617,-2.0567 13.1388,-3.9519 28.0175,-13.2591 41.5137,-26.9785 0.6275,-0.6385 1.2516,-1.2824 1.8594,-1.9297 l -95.3457,-94.8847 c -9.65422,-9.609 -19.96015,-13.7426 -29.20704,-13.9473 z m 180.51754,164.5293 -1.955,2.0117 c -14.492,14.7299 -29.9288,27.3267 -45.5469,37.5527 l 113.4492,113.0215 97.91,94.5234 c 28.363,0.3163 96.0642,6.467 78.9192,-3.1098 l -129.0323,-130.5562 z"
       transform="translate(0,-861.02363)"
       id="path7742"
       inkscape:connector-curvature="0"
       sodipodi:nodetypes="cccscccccccccsccccssccccccccssccccccscccccccc" />
  </g>
</svg>
