<?xml version="1.0" encoding="UTF-8" standalone="no"?>
<svg
   xmlns:dc="http://purl.org/dc/elements/1.1/"
   xmlns:cc="http://creativecommons.org/ns#"
   xmlns:rdf="http://www.w3.org/1999/02/22-rdf-syntax-ns#"
   xmlns:svg="http://www.w3.org/2000/svg"
   xmlns="http://www.w3.org/2000/svg"
   version="1.1"
   id="svg8387"
   viewBox="0 0 2657.4803 1913.3858"
   height="54cm"
   width="75cm">
  <defs
     id="defs8389" />
  <metadata
     id="metadata8392">
    <rdf:RDF>
      <cc:Work
         rdf:about="">
        <dc:format>image/svg+xml</dc:format>
        <dc:type
           rdf:resource="http://purl.org/dc/dcmitype/StillImage" />
        <dc:title></dc:title>
      </cc:Work>
    </rdf:RDF>
  </metadata>
  <g
     transform="translate(0,861.02357)"
     id="layer1">
    <flowRoot
       style="font-style:normal;font-variant:normal;font-weight:normal;font-stretch:normal;font-size:11.04881573px;line-height:100%;font-family:Ubuntu;-inkscape-font-specification:'Ubuntu, Normal';text-align:start;letter-spacing:0px;word-spacing:0px;writing-mode:lr-tb;text-anchor:start;fill:#000000;fill-opacity:1;stroke:none;stroke-width:1px;stroke-linecap:butt;stroke-linejoin:miter;stroke-opacity:1"
       id="flowRoot6877"
       xml:space="preserve"><flowRegion
         id="flowRegion6879"><rect
           y="5752.687"
           x="-4841.2109"
           height="122.48401"
           width="375.02835"
           id="rect6881" /></flowRegion><flowPara
         id="flowPara6883" /></flowRoot>    <g
       style="fill:#1a1a1a"
       transform="matrix(0.42314323,0,0,0.44195262,-5174.4778,5516.9212)"
       id="g7438">
      <g
         transform="matrix(0.85913397,0,0,0.85913397,1006.2086,-425.11908)"
         style="font-style:normal;font-variant:normal;font-weight:normal;font-stretch:normal;font-size:20.68664551px;line-height:100%;font-family:Ubuntu;-inkscape-font-specification:'Ubuntu, Normal';text-align:start;letter-spacing:0px;word-spacing:0px;writing-mode:lr-tb;text-anchor:start;fill:#1a1a1a;fill-opacity:1;stroke:none;stroke-width:1px;stroke-linecap:butt;stroke-linejoin:miter;stroke-opacity:1"
         id="flowRoot6995" />
      <g
         style="font-style:normal;font-variant:normal;font-weight:normal;font-stretch:normal;font-size:35.19487px;line-height:100%;font-family:Ubuntu;-inkscape-font-specification:'Ubuntu, Normal';text-align:start;letter-spacing:0px;word-spacing:0px;writing-mode:lr-tb;text-anchor:start;fill:#1a1a1a;fill-opacity:1;stroke:none;stroke-width:1px;stroke-linecap:butt;stroke-linejoin:miter;stroke-opacity:1"
         id="text7363"
         transform="matrix(0.89226377,0,0,0.89226377,210.13123,98.655779)" />
    </g>
    <flowRoot
       style="fill:black;stroke:none;stroke-opacity:1;stroke-width:1px;stroke-linejoin:miter;stroke-linecap:butt;fill-opacity:1;font-family:Ubuntu;font-style:normal;font-weight:normal;font-size:25px;line-height:1000%;letter-spacing:0px;word-spacing:0px;-inkscape-font-specification:'Ubuntu, Normal';font-stretch:normal;font-variant:normal;text-anchor:start;text-align:start;writing-mode:lr"
       id="flowRoot6209"
       xml:space="preserve"><flowRegion
         id="flowRegion6211"><rect
           y="569.88293"
           x="2657.4802"
           height="53.033009"
           width="0"
           id="rect6213" /></flowRegion><flowPara
         id="flowPara6215" /></flowRoot>    <g
       id="g3801">
      <path
         style="color:#000000;clip-rule:nonzero;display:inline;overflow:visible;visibility:visible;opacity:1;isolation:auto;mix-blend-mode:normal;color-interpolation:sRGB;color-interpolation-filters:linearRGB;solid-color:#000000;solid-opacity:1;fill:#ff372d;fill-opacity:1;fill-rule:evenodd;stroke:#ff372d;stroke-width:3;stroke-linecap:butt;stroke-linejoin:miter;stroke-miterlimit:4;stroke-dasharray:none;stroke-dashoffset:0;stroke-opacity:1;color-rendering:auto;image-rendering:auto;shape-rendering:auto;text-rendering:auto;enable-background:accumulate"
         d="m 2187.7993,302.59516 c -93.0038,4.65265 -140.3081,55.73067 -141.8923,153.23085 -0.078,4.78138 0.044,12.26872 0.3331,22.45419 l 56.7187,-0.17644 c 3.5773,-80.04416 30.5461,-121.50069 80.9287,-124.35832 45.0992,-0.13948 70.0654,26.71388 74.8853,80.53981 -0.7636,46.98245 -33.9717,93.43792 -99.6316,139.37299 -76.7172,53.66182 -117.4464,135.06365 -122.1817,244.21428 l 305.4524,-0.94073 0.8496,-52.07752 -242.929,0.75064 c 5.9794,-59.6794 42.1735,-113.94927 108.5634,-162.79777 71.6796,-51.98257 108.6843,-108.00852 111.0275,-168.09214 -8.3821,-86.8674 -52.4253,-130.91068 -132.1241,-132.11984 z"
         id="path6202" />
      <path
         style="color:#000000;clip-rule:nonzero;display:inline;overflow:visible;visibility:visible;opacity:1;isolation:auto;mix-blend-mode:normal;color-interpolation:sRGB;color-interpolation-filters:linearRGB;solid-color:#000000;solid-opacity:1;fill:#ffffff;fill-opacity:1;fill-rule:evenodd;stroke:none;stroke-width:1px;stroke-linecap:butt;stroke-linejoin:miter;stroke-miterlimit:4;stroke-dasharray:none;stroke-dashoffset:0;stroke-opacity:1;color-rendering:auto;image-rendering:auto;shape-rendering:auto;text-rendering:auto;enable-background:accumulate"
         d="m 0,-861.02368 2657.4802,0 0,1913.38588 -2657.4802,0 z"
         id="rect4113" />
      <path
         style="color:#000000;clip-rule:nonzero;display:inline;overflow:visible;visibility:visible;opacity:1;isolation:auto;mix-blend-mode:normal;color-interpolation:sRGB;color-interpolation-filters:linearRGB;solid-color:#000000;solid-opacity:1;fill:#5e890a;fill-opacity:1;fill-rule:evenodd;stroke:none;stroke-width:1px;stroke-linecap:butt;stroke-linejoin:miter;stroke-miterlimit:4;stroke-dasharray:none;stroke-dashoffset:0;stroke-opacity:1;color-rendering:auto;image-rendering:auto;shape-rendering:auto;text-rendering:auto;enable-background:accumulate"
         d="m 0,850.86853 2657.4802,0 0,200.71237 -2657.4802,0 z"
         id="rect10530" />
      <path
         id="path10266"
         style="fill:#5e890a;fill-opacity:1;fill-rule:evenodd;stroke:none"
         d="m 383.43689,-729.4004 c 91.90476,-15.00447 181.33399,6.44985 253.56496,53.73031 -9.46475,6.70885 -18.049,14.34057 -25.69336,22.70313 -67.66664,-44.91993 -151.77859,-65.41921 -238.24405,-51.30289 -156.56845,25.5602 -269.79609,156.22488 -279.413768,308.16135 15.125118,170.27926 153.110678,279.6058 298.590348,153.23705 105.71662,88.16844 252.78487,-21.44678 299.2612,71.58989 5.6135,-7.30834 10.92836,-14.84402 15.92037,-22.59199 3.6491,-5.66535 7.11312,-11.38693 10.40215,-17.16347 -65.90936,-60.74996 -238.85101,30.85535 -315.44494,-33.86522 102.09718,28.74056 278.99118,-57.75715 349.97405,-53.37533 10.44514,-45.10181 10.35358,-92.11633 -1.69728,-139.64371 l 33.65046,-35.50629 c 33.05607,95.74332 8.93234,216.27239 -47.21668,298.84935 -53.29882,78.392885 -137.42527,135.587058 -238.34313,152.062035 -81.29916,13.2726585 -160.6515,-1.991018 -227.88608,-38.412387 24.29932,-14.819404 47.75416,-42.182928 59.61543,-90.779108 -41.11225,60.372859 -107.37975,60.261694 -141.84252,29.64637 -51.66789,-51.32244 -88.22019,-118.83116 -100.843341,-196.21716 -8.186925,-50.1873 -5.495401,-99.63434 6.304047,-145.95084 l 0.03963,-0.29325 -0.01,0.17734 C 128.24827,-598.1265 238.52293,-705.74315 383.43661,-729.4007 Z" />
      <path
         id="path10268"
         style="fill:#ff352d;fill-opacity:1;fill-rule:evenodd;stroke:none"
         d="m 376.25432,-399.96221 c 16.9588,51.43549 9.93411,99.08416 -18.50513,111.53736 -32.08902,14.04433 -79.27598,-22.02917 -105.40141,-80.57904 -26.12227,-58.54925 -21.29138,-117.39982 10.79504,-131.44666 19.80387,-8.67082 45.35387,1.75917 68.16,24.76993 -46.79975,13.81312 -85.03225,25.63215 -53.78715,95.6574 14.80926,33.18683 41.5563,53.63684 59.74367,45.67222 14.44671,-6.3267 19.14505,-28.6837 13.03814,-54.24892 z m 512.933,-270.56552 c -98.42032,7.29126 -220.10905,5.59843 -305.9107,-2.14953 -85.79972,-7.74988 -76.68298,93.89571 -48.92653,156.49896 27.75324,62.60578 97.13994,138.033 149.43952,70.21098 52.29709,-67.8176 133.38146,-157.71552 205.39771,-224.56041 z m -43.99644,24.69858 -228.38444,137.15688 c -31.9557,19.18922 -16.16928,46.45929 21.61665,18.09392 z m -7.95007,-9.5564 -249.77753,89.30354 c -52.19789,18.66369 -55.53623,-65.6011 14.84905,-65.37941 85.72837,0.2667 145.41774,-14.36773 234.92848,-23.92413 z M 515.43442,-508.5933 c 16.79075,37.6255 11.8929,76.22881 -10.93533,86.22165 -22.82886,9.99794 -54.94499,-12.40391 -71.73323,-50.03192 -16.78829,-37.62362 -11.89292,-76.22628 10.93587,-86.22422 22.82826,-9.99286 54.94443,12.40898 71.73269,50.03449 z m -123.66717,80.74136 -97.36226,42.76092 c -0.30083,-0.63418 -0.5944,-1.27848 -0.88302,-1.92468 -6.19853,-13.894 -8.74982,-27.53157 -7.86359,-38.34179 0.34294,-4.16708 1.07572,-7.61153 2.17105,-9.98529 l 86.3947,-37.94386 c 37.32422,-16.3916 54.66074,29.13534 17.54312,45.4347 z M 120.9232,-309.04796 c -6.09485,-12.60856 -12.51251,-33.3864 -15.00192,-46.47881 l 115.93692,-50.84618 c 3.01493,14.4467 7.82627,29.4436 14.48081,44.36216 l 0.91591,2.02069 z" />
      <path
         id="path10272"
         style="fill:#ff372d;fill-opacity:1;fill-rule:nonzero;stroke:none"
         d="m 898.31285,-507.71975 0,175.95519 -23.12516,0 0,-195.58567 23.12516,0 0,0.12046 90.0722,0 0,-0.12046 23.12645,0 0,195.58567 -23.12645,0 0,-175.95519 z" />
      <path
         id="path10274"
         style="fill:#ff372d;fill-opacity:1;fill-rule:nonzero;stroke:none"
         d="m 1075.0519,-416.39025 0,84.62569 -23.9375,0 0,-195.58567 43.9535,0 c 51.5729,0 77.3587,18.47282 77.3587,55.41977 0,37.02665 -26.1463,55.54021 -78.4401,55.54021 z m 0,-91.20947 0,70.97978 18.6638,0 c 36.6051,0 54.9086,-11.76901 54.9086,-35.31052 0,-23.77981 -18.3035,-35.66926 -54.9086,-35.66926 z" />
      <path
         id="path10276"
         style="fill:#ff372d;fill-opacity:1;fill-rule:nonzero;stroke:none"
         d="m 1218.8749,-430.27489 c 0.7209,54.02338 20.9623,81.03444 60.7237,81.03444 39.4009,0 59.732,-27.01106 60.9945,-81.03444 -1.2625,-53.94407 -21.5936,-80.91612 -60.9945,-80.91612 -39.7614,0 -60.0028,26.97205 -60.7237,80.91612 z m -25.4271,0 c 2.4354,-67.58998 31.2423,-101.38409 86.4216,-101.38409 54.9085,0 83.4446,33.79411 85.6075,101.38409 -2.1629,67.42928 -30.699,101.14368 -85.6075,101.14368 -55.1793,0 -83.9862,-33.7144 -86.4216,-101.14368 z" />
      <path
         id="path10278"
         style="fill:#ff372d;fill-opacity:1;fill-rule:nonzero;stroke:none"
         d="m 1474.8914,-478.51382 c -44.4514,2.71305 -66.6762,18.95156 -66.6762,48.71771 0,29.84409 22.2248,46.24378 66.6762,49.19515 z m 23.1251,-0.11997 0,98.03287 c 44.5412,-2.23387 66.8114,-18.63313 66.8114,-49.19515 0,-30.32459 -22.2702,-46.6021 -66.8114,-48.83772 z m -23.1251,-19.98923 0,-28.72716 23.1251,0 0,28.60716 c 60.7697,3.0328 91.1549,26.09511 91.1549,69.18568 0,43.41071 -30.3852,66.51203 -91.1549,69.30437 l 0,28.48846 -23.1251,0 0,-28.60673 c -60.6799,-3.99074 -91.0197,-27.05176 -91.0197,-69.1861 0,-41.97361 30.3398,-64.99522 91.0197,-69.06568 z" />
      <path
         id="path10280"
         style="fill:#5e890a;fill-opacity:1;fill-rule:nonzero;stroke:none"
         d="m 1747.5529,-528.22151 c -19.4629,0.0792 -36.3006,8.61922 -50.5188,25.62633 l 0.2474,0.1169 -63.9633,82.90608 0,-107.68846 -14.5955,0 0,195.17454 14.5955,0 0,-64.01736 39.985,-51.73706 51.0872,89.28148 c 9.9108,15.73116 22.6768,24.30664 38.2368,25.88716 l 0.7261,-14.7 c -6.9997,-0.0526 -18.114,-5.90141 -25.8941,-17.44559 l -54.516,-95.53685 27.4205,-35.61857 c 9.9852,-11.39167 22.3803,-17.1306 37.1892,-17.21163 z" />
      <path
         id="path10282"
         style="fill:#5e890a;fill-opacity:1;fill-rule:nonzero;stroke:none"
         d="m 1810.2635,-403.42458 -23.1013,71.34027 -15.3586,0 63.0845,-194.15028 17.7705,0 63.0846,194.15028 -15.2316,0 -23.2283,-71.34027 z m 4.4426,-13.76461 58.1346,0 -29.0674,-89.53362 z" />
      <path
         id="path10284"
         style="fill:#5e890a;fill-opacity:1;fill-rule:nonzero;stroke:none"
         d="m 1962.0069,-418.8646 0,86.78029 -15.3586,0 0,-194.15028 38.4603,0 c 47.1355,0 70.7021,17.87492 70.7021,53.62564 0,35.82828 -23.905,53.74435 -71.7159,53.74435 z m 0,-93.36536 0,78.88156 21.834,0 c 37.8256,0 56.7382,-13.08743 56.7382,-39.26055 0,-26.41357 -18.9126,-39.62101 -56.7382,-39.62101 z" />
      <path
         id="path10286"
         style="fill:#5e890a;fill-opacity:1;fill-rule:nonzero;stroke:none"
         d="m 2080.7789,-526.23459 14.5974,0 0,88.09826 86.4415,0 0,-88.09826 14.5973,0 0,194.15028 -14.5973,0 0,-92.28743 -86.4415,0 0,92.28743 -14.5974,0 z" />
      <path
         id="path10288"
         style="fill:#5e890a;fill-opacity:1;fill-rule:nonzero;stroke:none"
         d="m 2374.3047,-526.23459 0,194.15028 -14.5972,0 0,-166.25931 -110.9392,166.25931 -11.9315,0 0,-194.15028 14.5969,0 0,164.10644 108.2738,-164.10644 z" />
      <path
         id="path10290"
         style="fill:#5e890a;fill-opacity:1;fill-rule:nonzero;stroke:none"
         d="m 2468.4975,-524.67617 c -20.1399,0 -38.8393,5.1536 -56.1085,15.41142 l 0,15.29574 0.3757,0.64643 c 15.4854,-10.77209 32.8803,-16.14882 52.1738,-16.14882 6.5156,0 13.0686,0.63816 19.669,1.91412 27.4173,5.26668 41.136,18.1951 41.136,38.78354 0,15.71902 -9.7434,27.12411 -29.2058,34.22737 l -52.1603,0 0,13.76764 54.4516,0 c 17.9397,7.10153 26.9145,18.18819 26.9145,33.26945 0,20.66772 -13.7187,33.64511 -41.136,38.91221 -6.6004,1.27596 -13.1534,1.91369 -19.669,1.91369 -19.2935,0 -36.6884,-5.38842 -52.1738,-16.16223 l -0.3757,0.64815 0,15.29443 c 17.2692,10.25739 35.9686,15.41272 56.1085,15.41272 8.5465,0 17.2984,-0.99347 26.268,-2.98905 31.6484,-6.9421 47.4775,-24.46175 47.4775,-52.55117 l 0,-1.07446 c -0.2539,-16.99673 -8.5976,-30.31638 -25.0143,-39.97154 16.4167,-9.65688 24.7604,-23.02507 25.0143,-40.10149 l 0,-1.07492 c 0,-28.00926 -15.8291,-45.49209 -47.4775,-52.43417 -8.9696,-1.99561 -17.7215,-2.98906 -26.268,-2.98906 z" />
      <path
         style="color:#000000;clip-rule:nonzero;display:inline;overflow:visible;visibility:visible;opacity:1;isolation:auto;mix-blend-mode:normal;color-interpolation:sRGB;color-interpolation-filters:linearRGB;solid-color:#000000;solid-opacity:1;fill:#ff372d;fill-opacity:1;fill-rule:evenodd;stroke:none;stroke-width:1px;stroke-linecap:butt;stroke-linejoin:miter;stroke-miterlimit:4;stroke-dasharray:none;stroke-dashoffset:0;stroke-opacity:1;color-rendering:auto;image-rendering:auto;shape-rendering:auto;text-rendering:auto;enable-background:accumulate"
         d="M 1119.1339,310.74536 1030.736,359.01431 1772.1933,1008.16 987.0056,1055.2313 608.41245,645.87564 c -24.18874,16.75593 -81.10343,56.88489 -81.10343,56.88489 L 404.80975,83.670123 Z"
         id="path10581" />
      <path
         id="path3702"
         style="font-style:normal;font-variant:normal;font-weight:300;font-stretch:normal;font-size:medium;line-height:1000%;font-family:'Fira Sans';-inkscape-font-specification:'Fira Sans Light';text-align:center;letter-spacing:0px;word-spacing:0px;writing-mode:lr-tb;text-anchor:middle;fill:#333333;fill-opacity:1;stroke:none;stroke-width:1px;stroke-linecap:butt;stroke-linejoin:miter;stroke-opacity:1"
         d="m 974.42189,-173.72756 41.96501,69.8775 -13.2825,0 -38.50001,-64.68 -20.79,0 0,64.68 -11.55,0 0,-131.8625 11.55,0 0,57.5575 20.9825,0 36.19001,-57.5575 12.1275,0 -38.69251,61.985 z" />
      <path
         id="path3704"
         style="font-style:normal;font-variant:normal;font-weight:300;font-stretch:normal;font-size:medium;line-height:1000%;font-family:'Fira Sans';-inkscape-font-specification:'Fira Sans Light';text-align:center;letter-spacing:0px;word-spacing:0px;writing-mode:lr-tb;text-anchor:middle;fill:#333333;fill-opacity:1;stroke:none;stroke-width:1px;stroke-linecap:butt;stroke-linejoin:miter;stroke-opacity:1"
         d="m 1100.8954,-126.18006 q 0,7.8925 1.925,11.3575 2.1175,3.465 6.545,5.1975 l -2.5025,7.8925 q -6.93,-1.54 -10.78,-5.39 -3.6575,-3.85 -4.8125,-11.3575 -10.9725,16.7475 -31.3775,16.7475 -14.4375,0 -22.9075,-8.085 -8.2775,-8.2775 -8.2775,-21.945 0,-15.5925 10.9725,-24.0625 11.165,-8.47 30.8,-8.47 l 19.25,0 0,-9.8175 q 0,-12.1275 -5.39,-17.5175 -5.39,-5.5825 -17.9025,-5.5825 -11.55,0 -27.335,5.775 l -2.8875,-8.47 q 16.94,-6.7375 31.7625,-6.7375 32.9175,0 32.9175,31.955 l 0,48.51 z m -39.0775,15.4 q 18.48,0 27.9125,-18.095 l 0,-27.335 -17.5175,0 q -15.4,0 -23.485,5.9675 -8.085,5.9675 -8.085,17.9025 0,10.395 5.5825,15.9775 5.5825,5.5825 15.5925,5.5825 z" />
      <path
         id="path3706"
         style="font-style:normal;font-variant:normal;font-weight:300;font-stretch:normal;font-size:medium;line-height:1000%;font-family:'Fira Sans';-inkscape-font-specification:'Fira Sans Light';text-align:center;letter-spacing:0px;word-spacing:0px;writing-mode:lr-tb;text-anchor:middle;fill:#333333;fill-opacity:1;stroke:none;stroke-width:1px;stroke-linecap:butt;stroke-linejoin:miter;stroke-opacity:1"
         d="m 1183.095,-206.64506 q 18.2875,0 27.335,13.6675 9.24,13.475 9.24,38.3075 0,24.255 -10.01,38.6925 -9.8175,14.245 -28.2975,14.245 -9.0475,0 -16.3625,-3.6575 -7.315,-3.85 -12.32,-10.2025 l 0,49.665 -11.165,1.54 0,-140.14 9.625,0 0.9625,14.63 q 5.5825,-7.8925 13.475,-12.32 7.8925,-4.4275 17.5175,-4.4275 z m -3.85,95.48 q 13.86,0 21.175,-10.9725 7.315,-10.9725 7.315,-32.5325 0,-42.735 -26.7575,-42.735 -9.0475,0 -15.785,4.62 -6.545,4.62 -12.5125,12.705 l 0,53.515 q 4.8125,7.315 11.55,11.3575 6.7375,4.0425 15.015,4.0425 z" />
      <path
         id="path3708"
         style="font-style:normal;font-variant:normal;font-weight:300;font-stretch:normal;font-size:medium;line-height:1000%;font-family:'Fira Sans';-inkscape-font-specification:'Fira Sans Light';text-align:center;letter-spacing:0px;word-spacing:0px;writing-mode:lr-tb;text-anchor:middle;fill:#333333;fill-opacity:1;stroke:none;stroke-width:1px;stroke-linecap:butt;stroke-linejoin:miter;stroke-opacity:1"
         d="m 1314.5713,-151.20506 -50.05,0 0,47.355 -11.165,0 0,-100.6775 11.165,0 0,43.89 50.05,0 0,-43.89 11.165,0 0,100.6775 -11.165,0 0,-47.355 z" />
      <path
         id="path3710"
         style="font-style:normal;font-variant:normal;font-weight:300;font-stretch:normal;font-size:medium;line-height:1000%;font-family:'Fira Sans';-inkscape-font-specification:'Fira Sans Light';text-align:center;letter-spacing:0px;word-spacing:0px;writing-mode:lr-tb;text-anchor:middle;fill:#333333;fill-opacity:1;stroke:none;stroke-width:1px;stroke-linecap:butt;stroke-linejoin:miter;stroke-opacity:1"
         d="m 1439.6987,-103.85006 -10.9725,0 0,-62.37 q 0,-12.1275 1.155,-25.41 l -50.2425,87.78 -13.09,0 0,-100.6775 11.165,0 0,59.0975 q 0,9.8175 -1.155,28.2975 l 50.05,-87.395 13.09,0 0,100.6775 z" />
      <path
         id="path3712"
         style="font-style:normal;font-variant:normal;font-weight:300;font-stretch:normal;font-size:medium;line-height:1000%;font-family:'Fira Sans';-inkscape-font-specification:'Fira Sans Light';text-align:center;letter-spacing:0px;word-spacing:0px;writing-mode:lr-tb;text-anchor:middle;fill:#333333;fill-opacity:1;stroke:none;stroke-width:1px;stroke-linecap:butt;stroke-linejoin:miter;stroke-opacity:1"
         d="m 1502.6483,-206.64506 q 14.0525,0 23.2925,7.1225 9.4325,7.1225 9.4325,19.4425 0,18.095 -20.9825,22.5225 12.8975,1.3475 19.4425,7.315 6.7375,5.775 6.7375,17.325 0,15.015 -10.78,23.1 -10.5875,8.085 -27.72,8.085 -11.935,0 -20.9825,-3.465 -9.0475,-3.465 -16.555,-9.625 l 6.16,-6.93 q 6.7375,5.1975 13.86,7.8925 7.315,2.695 17.1325,2.695 12.32,0 19.635,-5.1975 7.5075,-5.1975 7.5075,-16.7475 0,-10.2025 -7.7,-14.63 -7.7,-4.4275 -21.945,-4.4275 l -11.935,0 0.77,-9.0475 9.625,0 q 12.5125,0 19.4425,-4.8125 6.93,-4.8125 6.93,-13.86 0,-8.47 -6.16,-12.8975 -5.9675,-4.62 -16.17,-4.62 -8.6625,0 -15.015,2.1175 -6.16,1.925 -13.2825,6.3525 l -5.39,-6.93 q 7.7,-5.39 15.9775,-8.085 8.2775,-2.695 18.6725,-2.695 z" />
      <path
         id="path3714"
         style="font-style:normal;font-variant:normal;font-weight:300;font-stretch:normal;font-size:medium;line-height:1000%;font-family:'Fira Sans';-inkscape-font-specification:'Fira Sans Light';text-align:center;letter-spacing:0px;word-spacing:0px;writing-mode:lr-tb;text-anchor:middle;fill:#333333;fill-opacity:1;stroke:none;stroke-width:1px;stroke-linecap:butt;stroke-linejoin:miter;stroke-opacity:1"
         d="m 1600.2447,-170.64756 q 40.2325,0 40.2325,32.725 0,16.94 -10.5875,25.6025 -10.5875,8.47 -27.5275,8.47 l -29.0675,0 0,-100.6775 11.165,0 0,33.88 15.785,0 z m 69.685,-33.88 0,100.6775 -11.165,0 0,-100.6775 11.165,0 z m -68.53,91.4375 q 13.09,0 20.02,-5.775 7.1225,-5.9675 7.1225,-19.0575 0,-11.7425 -6.545,-17.71 -6.3525,-5.9675 -21.56,-5.9675 l -15.9775,0 0,48.51 16.94,0 z" />
      <path
         id="path3716"
         style="font-style:normal;font-variant:normal;font-weight:300;font-stretch:normal;font-size:medium;line-height:1000%;font-family:'Fira Sans';-inkscape-font-specification:'Fira Sans Light';text-align:center;letter-spacing:0px;word-spacing:0px;writing-mode:lr-tb;text-anchor:middle;fill:#333333;fill-opacity:1;stroke:none;stroke-width:1px;stroke-linecap:butt;stroke-linejoin:miter;stroke-opacity:1"
         d="m 1837.5936,-103.85006 -10.9725,0 0,-62.37 q 0,-12.1275 1.155,-25.41 l -50.2425,87.78 -13.09,0 0,-100.6775 11.165,0 0,59.0975 q 0,9.8175 -1.155,28.2975 l 50.05,-87.395 13.09,0 0,100.6775 z" />
      <path
         id="path3718"
         style="font-style:normal;font-variant:normal;font-weight:300;font-stretch:normal;font-size:medium;line-height:1000%;font-family:'Fira Sans';-inkscape-font-specification:'Fira Sans Light';text-align:center;letter-spacing:0px;word-spacing:0px;writing-mode:lr-tb;text-anchor:middle;fill:#333333;fill-opacity:1;stroke:none;stroke-width:1px;stroke-linecap:butt;stroke-linejoin:miter;stroke-opacity:1"
         d="m 2044.5315,-103.85006 -112.42,0 0,-100.6775 10.9725,0 0,91.245 39.8475,0 0,-91.245 10.78,0 0,91.245 39.8475,0 0,-91.245 10.9725,0 0,100.6775 z" />
      <path
         id="path3720"
         style="font-style:normal;font-variant:normal;font-weight:300;font-stretch:normal;font-size:medium;line-height:1000%;font-family:'Fira Sans';-inkscape-font-specification:'Fira Sans Light';text-align:center;letter-spacing:0px;word-spacing:0px;writing-mode:lr-tb;text-anchor:middle;fill:#333333;fill-opacity:1;stroke:none;stroke-width:1px;stroke-linecap:butt;stroke-linejoin:miter;stroke-opacity:1"
         d="m 2145.7845,-194.90256 -33.495,0 0,91.0525 -11.165,0 0,-91.0525 -34.65,0 0,-9.625 80.6575,0 -1.3475,9.625 z" />
      <path
         id="path3722"
         style="font-style:normal;font-variant:normal;font-weight:300;font-stretch:normal;font-size:medium;line-height:1000%;font-family:'Fira Sans';-inkscape-font-specification:'Fira Sans Light';text-align:center;letter-spacing:0px;word-spacing:0px;writing-mode:lr-tb;text-anchor:middle;fill:#333333;fill-opacity:1;stroke:none;stroke-width:1px;stroke-linecap:butt;stroke-linejoin:miter;stroke-opacity:1"
         d="m 2201.4197,-206.64506 q 20.02,0 31.185,13.86 11.3575,13.6675 11.3575,38.3075 0,24.4475 -11.55,38.6925 -11.3575,14.0525 -31.185,14.0525 -20.02,0 -31.3775,-13.86 -11.165,-14.0525 -11.165,-38.5 0,-15.9775 5.1975,-27.9125 5.1975,-11.935 14.8225,-18.2875 9.625,-6.3525 22.715,-6.3525 z m 0,9.4325 q -14.63,0 -22.715,10.9725 -8.085,10.9725 -8.085,32.1475 0,20.9825 7.8925,31.955 8.085,10.9725 22.715,10.9725 14.63,0 22.715,-10.9725 8.2775,-10.9725 8.2775,-32.34 0,-20.9825 -8.085,-31.7625 -7.8925,-10.9725 -22.715,-10.9725 z" />
      <path
         id="path3724"
         style="font-style:normal;font-variant:normal;font-weight:300;font-stretch:normal;font-size:medium;line-height:1000%;font-family:'Fira Sans';-inkscape-font-specification:'Fira Sans Light';text-align:center;letter-spacing:0px;word-spacing:0px;writing-mode:lr-tb;text-anchor:middle;fill:#333333;fill-opacity:1;stroke:none;stroke-width:1px;stroke-linecap:butt;stroke-linejoin:miter;stroke-opacity:1"
         d="m 2318.27,-206.64506 q 18.2875,0 27.335,13.6675 9.24,13.475 9.24,38.3075 0,24.255 -10.01,38.6925 -9.8175,14.245 -28.2975,14.245 -9.0475,0 -16.3625,-3.6575 -7.315,-3.85 -12.32,-10.2025 l 0,49.665 -11.165,1.54 0,-140.14 9.625,0 0.9625,14.63 q 5.5825,-7.8925 13.475,-12.32 7.8925,-4.4275 17.5175,-4.4275 z m -3.85,95.48 q 13.86,0 21.175,-10.9725 7.315,-10.9725 7.315,-32.5325 0,-42.735 -26.7575,-42.735 -9.0475,0 -15.785,4.62 -6.545,4.62 -12.5125,12.705 l 0,53.515 q 4.8125,7.315 11.55,11.3575 6.7375,4.0425 15.015,4.0425 z" />
      <path
         id="path3726"
         style="font-style:normal;font-variant:normal;font-weight:300;font-stretch:normal;font-size:medium;line-height:1000%;font-family:'Fira Sans';-inkscape-font-specification:'Fira Sans Light';text-align:center;letter-spacing:0px;word-spacing:0px;writing-mode:lr-tb;text-anchor:middle;fill:#333333;fill-opacity:1;stroke:none;stroke-width:1px;stroke-linecap:butt;stroke-linejoin:miter;stroke-opacity:1"
         d="m 2415.4813,-170.64756 q 40.2325,0 40.2325,32.725 0,16.94 -10.5875,25.6025 -10.5875,8.47 -27.5275,8.47 l -29.0675,0 0,-100.6775 11.165,0 0,33.88 15.785,0 z m 69.685,-33.88 0,100.6775 -11.165,0 0,-100.6775 11.165,0 z m -68.53,91.4375 q 13.09,0 20.02,-5.775 7.1225,-5.9675 7.1225,-19.0575 0,-11.7425 -6.545,-17.71 -6.3525,-5.9675 -21.56,-5.9675 l -15.9775,0 0,48.51 16.94,0 z" />
      <path
         id="path3729"
         style="font-style:normal;font-variant:normal;font-weight:normal;font-stretch:normal;font-size:112.35180664px;line-height:1000%;font-family:'Fira Mono';-inkscape-font-specification:'Fira Mono';text-align:center;letter-spacing:0px;word-spacing:0px;writing-mode:lr-tb;text-anchor:middle;fill:#5e890a;fill-opacity:1;stroke:none;stroke-width:1px;stroke-linecap:butt;stroke-linejoin:miter;stroke-opacity:1"
         d="m 1271.8308,55.433726 q 21.4592,0 21.4592,30.784395 0,14.043979 -5.8423,22.470359 -5.8423,8.42639 -16.9651,8.42639 -9.6622,0 -15.7292,-6.74111 l 0,28.2003 -9.4376,1.12352 0,-83.027984 8.0893,0 0.7865,8.314033 q 3.2582,-4.606424 7.7523,-7.078163 4.6064,-2.47174 9.8869,-2.47174 z m -2.247,7.639923 q -4.4941,0 -8.314,2.696443 -3.7076,2.696443 -6.5164,6.741108 l 0,29.32382 q 2.3593,3.48291 5.8423,5.50524 3.5952,1.90998 7.7522,1.90998 7.4152,0 11.0105,-5.61759 3.7076,-5.729941 3.7076,-17.414529 0,-11.684588 -3.2582,-17.41453 -3.2582,-5.729942 -10.224,-5.729942 z" />
      <path
         id="path3731"
         style="font-style:normal;font-variant:normal;font-weight:normal;font-stretch:normal;font-size:112.35180664px;line-height:1000%;font-family:'Fira Mono';-inkscape-font-specification:'Fira Mono';text-align:center;letter-spacing:0px;word-spacing:0px;writing-mode:lr-tb;text-anchor:middle;fill:#5e890a;fill-opacity:1;stroke:none;stroke-width:1px;stroke-linecap:butt;stroke-linejoin:miter;stroke-opacity:1"
         d="m 1352.7248,55.433726 q 3.5953,0 8.314,1.23587 l -1.3482,20.110973 -7.6399,0 0,-12.695754 -0.5618,0 q -13.7069,0 -19.4368,19.549214 l 0,24.942101 12.0216,0 0,7.30287 -30.7844,0 0,-7.30287 9.3252,0 0,-44.603667 -9.3252,0 0,-7.302867 16.4034,0 1.7976,14.043976 q 3.5953,-7.639923 8.5388,-11.459885 5.0558,-3.819961 12.6957,-3.819961 z" />
      <path
         id="path3733"
         style="font-style:normal;font-variant:normal;font-weight:normal;font-stretch:normal;font-size:112.35180664px;line-height:1000%;font-family:'Fira Mono';-inkscape-font-specification:'Fira Mono';text-align:center;letter-spacing:0px;word-spacing:0px;writing-mode:lr-tb;text-anchor:middle;fill:#5e890a;fill-opacity:1;stroke:none;stroke-width:1px;stroke-linecap:butt;stroke-linejoin:miter;stroke-opacity:1"
         d="m 1402.7221,55.433726 q 12.2463,0 18.7627,8.314034 6.6288,8.201681 6.6288,22.470361 0,13.931619 -6.7411,22.470359 -6.6288,8.42639 -18.7628,8.42639 -12.2463,0 -18.8751,-8.20168 -6.6288,-8.31404 -6.6288,-22.582717 0,-14.043976 6.6288,-22.470362 6.7411,-8.426385 18.9875,-8.426385 z m 0,7.752274 q -7.7523,0 -11.5723,5.729943 -3.8199,5.729942 -3.8199,17.41453 0,11.684588 3.7076,17.414527 3.8199,5.61759 11.5722,5.61759 7.7523,0 11.4599,-5.61759 3.8199,-5.729939 3.8199,-17.526879 0,-11.684588 -3.8199,-17.302178 Q 1410.362,63.186 1402.7221,63.186 Z" />
      <path
         id="path3735"
         style="font-style:normal;font-variant:normal;font-weight:normal;font-stretch:normal;font-size:112.35180664px;line-height:1000%;font-family:'Fira Mono';-inkscape-font-specification:'Fira Mono';text-align:center;letter-spacing:0px;word-spacing:0px;writing-mode:lr-tb;text-anchor:middle;fill:#5e890a;fill-opacity:1;stroke:none;stroke-width:1px;stroke-linecap:butt;stroke-linejoin:miter;stroke-opacity:1"
         d="m 1482.4925,31.727495 q 8.4264,0 16.0663,3.14585 l -3.0335,7.078164 q -5.6176,-2.47174 -12.6957,-2.47174 -12.3587,0 -12.3587,9.774607 l 0,12.021644 19.9986,0 -1.0112,7.527571 -18.9874,0 0,47.075409 -9.5499,0 0,-47.075409 -14.044,0 0,-7.527571 14.044,0 0,-11.79694 q 0,-7.976978 6.067,-12.808106 6.1793,-4.943479 15.5045,-4.943479 z" />
      <path
         id="path3737"
         style="font-style:normal;font-variant:normal;font-weight:normal;font-stretch:normal;font-size:112.35180664px;line-height:1000%;font-family:'Fira Mono';-inkscape-font-specification:'Fira Mono';text-align:center;letter-spacing:0px;word-spacing:0px;writing-mode:lr-tb;text-anchor:middle;fill:#5e890a;fill-opacity:1;stroke:none;stroke-width:1px;stroke-linecap:butt;stroke-linejoin:miter;stroke-opacity:1"
         d="m 1525.0745,115.879 -9.4375,0 0,-83.027987 9.4375,-1.123518 0,84.151505 z m 12.9205,-32.469674 29.6609,32.469674 -12.4711,0 -29.0991,-32.357323 26.2903,-26.852081 12.134,0 -26.515,26.73973 z" />
      <path
         id="path3739"
         style="font-style:normal;font-variant:normal;font-weight:normal;font-stretch:normal;font-size:112.35180664px;line-height:1000%;font-family:'Fira Mono';-inkscape-font-specification:'Fira Mono';text-align:center;letter-spacing:0px;word-spacing:0px;writing-mode:lr-tb;text-anchor:middle;fill:#5e890a;fill-opacity:1;stroke:none;stroke-width:1px;stroke-linecap:butt;stroke-linejoin:miter;stroke-opacity:1"
         d="m 1624.8436,102.95854 q 0,3.48291 1.1235,5.16818 1.1236,1.57293 3.7077,2.35939 l -2.3594,6.74111 q -8.6511,-1.12352 -10.7858,-8.42639 -3.1459,4.04467 -7.977,6.17935 -4.7188,2.13469 -10.5611,2.13469 -8.8757,0 -14.0439,-4.94348 -5.0559,-4.94348 -5.0559,-13.257515 0,-9.100496 7.0782,-14.043976 7.1905,-4.943479 20.5604,-4.943479 l 8.7634,0 0,-4.831128 q 0,-6.291701 -3.5952,-8.988145 -3.5953,-2.808795 -10.4488,-2.808795 -6.7411,0 -15.3922,3.033499 l -2.584,-7.190516 q 10.4487,-3.707609 19.4368,-3.707609 10.7858,0 16.4034,5.055831 5.7299,5.055831 5.7299,14.043976 l 0,28.425007 z m -24.4927,7.07816 q 4.3818,0 8.3141,-2.24703 4.0446,-2.24704 6.6287,-6.17935 l 0,-15.167496 -8.5387,0 q -9.4376,0 -13.5946,3.145851 -4.157,3.145851 -4.157,9.212848 0,11.235177 11.3475,11.235177 z" />
      <path
         id="path3741"
         style="font-style:normal;font-variant:normal;font-weight:normal;font-stretch:normal;font-size:112.35180664px;line-height:1000%;font-family:'Fira Mono';-inkscape-font-specification:'Fira Mono';text-align:center;letter-spacing:0px;word-spacing:0px;writing-mode:lr-tb;text-anchor:middle;fill:#5e890a;fill-opacity:1;stroke:none;stroke-width:1px;stroke-linecap:butt;stroke-linejoin:miter;stroke-opacity:1"
         d="m 1689.7836,55.433726 q 3.5953,0 8.3141,1.23587 l -1.3483,20.110973 -7.6399,0 0,-12.695754 -0.5617,0 q -13.707,0 -19.4369,19.549214 l 0,24.942101 12.0216,0 0,7.30287 -30.7844,0 0,-7.30287 9.3252,0 0,-44.603667 -9.3252,0 0,-7.302867 16.4034,0 1.7976,14.043976 q 3.5953,-7.639923 8.5388,-11.459885 5.0558,-3.819961 12.6957,-3.819961 z" />
      <path
         id="path3743"
         style="font-style:normal;font-variant:normal;font-weight:normal;font-stretch:normal;font-size:112.35180664px;line-height:1000%;font-family:'Fira Mono';-inkscape-font-specification:'Fira Mono';text-align:center;letter-spacing:0px;word-spacing:0px;writing-mode:lr-tb;text-anchor:middle;fill:#5e890a;fill-opacity:1;stroke:none;stroke-width:1px;stroke-linecap:butt;stroke-linejoin:miter;stroke-opacity:1"
         d="m 1717.1982,56.669596 8.0893,0 0.7865,8.314033 q 3.4829,-4.494072 8.7634,-6.965812 5.3929,-2.584091 10.7858,-2.584091 16.628,0 16.628,17.526882 l 0,42.918392 -9.4375,0 0,-35.95258 q 0,-6.628757 -0.7865,-10.111663 -0.6741,-3.482906 -2.8088,-5.168183 -2.1347,-1.685277 -6.5164,-1.685277 -4.8311,0 -9.1005,2.921147 -4.2693,2.921147 -6.9658,6.965812 l 0,43.030744 -9.4375,0 0,-59.209404 z" />
      <path
         id="path3745"
         style="font-style:normal;font-variant:normal;font-weight:normal;font-stretch:normal;font-size:112.35180664px;line-height:1000%;font-family:'Fira Mono';-inkscape-font-specification:'Fira Mono';text-align:center;letter-spacing:0px;word-spacing:0px;writing-mode:lr-tb;text-anchor:middle;fill:#5e890a;fill-opacity:1;stroke:none;stroke-width:1px;stroke-linecap:butt;stroke-linejoin:miter;stroke-opacity:1"
         d="m 1807.0803,29.031051 q 3.1458,0 5.0558,1.909981 1.91,1.797629 1.91,4.718776 0,2.921147 -1.91,4.831128 -1.91,1.797628 -5.0558,1.797628 -3.0335,0 -4.9435,-1.797628 -1.7976,-1.909981 -1.7976,-4.831128 0,-2.921147 1.7976,-4.718776 1.91,-1.909981 4.9435,-1.909981 z m 7.5276,79.320379 16.628,0 0,7.52757 -44.2666,0 0,-7.52757 18.201,0 0,-44.154263 -17.6392,0 0,-7.527571 27.0768,0 0,51.681834 z" />
      <path
         id="path3747"
         style="font-style:normal;font-variant:normal;font-weight:normal;font-stretch:normal;font-size:112.35180664px;line-height:1000%;font-family:'Fira Mono';-inkscape-font-specification:'Fira Mono';text-align:center;letter-spacing:0px;word-spacing:0px;writing-mode:lr-tb;text-anchor:middle;fill:#5e890a;fill-opacity:1;stroke:none;stroke-width:1px;stroke-linecap:butt;stroke-linejoin:miter;stroke-opacity:1"
         d="m 1896.7377,107.78967 -1.1235,8.08933 -43.3678,0 0,-7.19052 32.8067,-43.704851 -30.2226,0 0,-8.314033 41.5701,0 0,7.415219 -32.582,43.704855 32.9191,0 z" />
      <path
         id="path3749"
         style="font-style:normal;font-variant:normal;font-weight:normal;font-stretch:normal;font-size:112.35180664px;line-height:1000%;font-family:'Fira Mono';-inkscape-font-specification:'Fira Mono';text-align:center;letter-spacing:0px;word-spacing:0px;writing-mode:lr-tb;text-anchor:middle;fill:#5e890a;fill-opacity:1;stroke:none;stroke-width:1px;stroke-linecap:butt;stroke-linejoin:miter;stroke-opacity:1"
         d="m 1931.9045,107.22791 q 0,-4.15702 2.8088,-6.96581 2.9212,-2.92115 7.0782,-2.92115 4.2694,0 7.0782,2.92115 2.8087,2.80879 2.8087,6.96581 0,4.26937 -2.8087,7.07816 -2.8088,2.8088 -7.0782,2.8088 -4.157,0 -7.0782,-2.8088 -2.8088,-2.92114 -2.8088,-7.07816 z" />
      <path
         id="path3751"
         style="font-style:normal;font-variant:normal;font-weight:normal;font-stretch:normal;font-size:112.35180664px;line-height:1000%;font-family:'Fira Mono';-inkscape-font-specification:'Fira Mono';text-align:center;letter-spacing:0px;word-spacing:0px;writing-mode:lr-tb;text-anchor:middle;fill:#5e890a;fill-opacity:1;stroke:none;stroke-width:1px;stroke-linecap:butt;stroke-linejoin:miter;stroke-opacity:1"
         d="m 2013.6973,109.02554 q 7.7523,0 15.3922,-5.16819 l 4.4941,6.17935 q -3.7076,3.25821 -9.2129,5.16819 -5.5052,1.90998 -10.6734,1.90998 -13.1452,0 -20.5604,-8.20168 -7.3028,-8.31404 -7.3028,-22.358014 0,-8.875792 3.2582,-15.953956 3.3705,-7.078164 9.6622,-11.122829 6.2917,-4.044665 14.9428,-4.044665 11.4599,0 19.7739,6.965812 l -4.6064,6.179349 q -7.7523,-5.168183 -15.2798,-5.168183 -7.977,0 -12.8082,5.954646 -4.7187,5.842294 -4.7187,17.189826 0,11.347533 4.7187,16.965124 4.8312,5.50524 12.9205,5.50524 z" />
      <path
         id="path3753"
         style="font-style:normal;font-variant:normal;font-weight:normal;font-stretch:normal;font-size:112.35180664px;line-height:1000%;font-family:'Fira Mono';-inkscape-font-specification:'Fira Mono';text-align:center;letter-spacing:0px;word-spacing:0px;writing-mode:lr-tb;text-anchor:middle;fill:#5e890a;fill-opacity:1;stroke:none;stroke-width:1px;stroke-linecap:butt;stroke-linejoin:miter;stroke-opacity:1"
         d="m 2076.8397,55.433726 q 12.2463,0 18.7627,8.314034 6.6288,8.201681 6.6288,22.470361 0,13.931619 -6.7411,22.470359 -6.6288,8.42639 -18.7628,8.42639 -12.2463,0 -18.8751,-8.20168 -6.6287,-8.31404 -6.6287,-22.582717 0,-14.043976 6.6287,-22.470362 6.7411,-8.426385 18.9875,-8.426385 z m 0,7.752274 q -7.7523,0 -11.5723,5.729943 -3.8199,5.729942 -3.8199,17.41453 0,11.684588 3.7076,17.414527 3.82,5.61759 11.5722,5.61759 7.7523,0 11.4599,-5.61759 3.82,-5.729939 3.82,-17.526879 0,-11.684588 -3.82,-17.302178 Q 2084.4796,63.186 2076.8397,63.186 Z" />
      <path
         id="path3755"
         style="font-style:normal;font-variant:normal;font-weight:normal;font-stretch:normal;font-size:112.35180664px;line-height:1000%;font-family:'Fira Mono';-inkscape-font-specification:'Fira Mono';text-align:center;letter-spacing:0px;word-spacing:0px;writing-mode:lr-tb;text-anchor:middle;fill:#5e890a;fill-opacity:1;stroke:none;stroke-width:1px;stroke-linecap:butt;stroke-linejoin:miter;stroke-opacity:1"
         d="m 2160.6548,55.433726 q 5.0559,0 8.2017,3.595258 3.2582,3.482906 3.2582,12.808106 l 0,44.04191 -8.6511,0 0,-42.468985 q 0,-6.179349 -0.7864,-8.314034 -0.7865,-2.247036 -3.82,-2.247036 -5.7299,0 -10.3363,7.078164 l 0,45.951891 -8.7635,0 0,-42.468985 q 0,-6.179349 -0.7865,-8.314034 -0.7864,-2.247036 -3.8199,-2.247036 -5.73,0 -10.3364,7.078164 l 0,45.951891 -8.6511,0 0,-59.209404 7.3029,0 0.6741,6.965812 q 2.6965,-3.932314 5.6176,-6.066998 3.0335,-2.134684 7.1905,-2.134684 8.3141,0 10.6734,7.864626 2.6965,-3.819961 5.73,-5.842294 3.0335,-2.022332 7.3028,-2.022332 z" />
      <path
         id="path3758"
         style="font-style:normal;font-variant:normal;font-weight:500;font-stretch:normal;font-size:medium;line-height:1000%;font-family:'Fira Sans';-inkscape-font-specification:'Fira Sans Medium';text-align:start;letter-spacing:0px;word-spacing:0px;writing-mode:lr-tb;text-anchor:start;fill:#ffffff;fill-opacity:1;stroke:none;stroke-width:1px;stroke-linecap:butt;stroke-linejoin:miter;stroke-opacity:1"
         d="m 2021.9918,897.08463 q 21.3074,0 33.5107,14.52776 12.397,14.52775 12.397,39.7092 0,25.18144 -12.397,39.7092 -12.397,14.33401 -35.6414,14.33401 -19.1767,0 -33.7044,-11.42846 l 11.2348,-14.91516 q 5.4237,4.06777 10.2662,5.8111 5.0363,1.74333 11.6222,1.74333 20.92,0 23.0508,-28.66811 l -38.9344,0 0,-15.68997 38.9344,0 q -1.356,-13.75294 -6.586,-20.14516 -5.0363,-6.39221 -14.9151,-6.39221 -6.1985,0 -11.8159,1.74333 -5.4237,1.74333 -11.0411,5.4237 l -10.6537,-14.14035 q 7.167,-5.81111 15.4963,-8.71666 8.5229,-2.90555 19.1766,-2.90555 z" />
      <path
         id="path3760"
         style="font-style:normal;font-variant:normal;font-weight:500;font-stretch:normal;font-size:medium;line-height:1000%;font-family:'Fira Sans';-inkscape-font-specification:'Fira Sans Medium';text-align:start;letter-spacing:0px;word-spacing:0px;writing-mode:lr-tb;text-anchor:start;fill:#ffffff;fill-opacity:1;stroke:none;stroke-width:1px;stroke-linecap:butt;stroke-linejoin:miter;stroke-opacity:1"
         d="m 2161.4554,918.97312 -30.0241,0 0,83.48618 -24.794,0 0,-83.48618 -31.7674,0 0,-18.98294 89.6847,0 -3.0992,18.98294 z" />
      <path
         id="path3762"
         style="font-style:normal;font-variant:normal;font-weight:500;font-stretch:normal;font-size:medium;line-height:1000%;font-family:'Fira Sans';-inkscape-font-specification:'Fira Sans Medium';text-align:start;letter-spacing:0px;word-spacing:0px;writing-mode:lr-tb;text-anchor:start;fill:#ffffff;fill-opacity:1;stroke:none;stroke-width:1px;stroke-linecap:butt;stroke-linejoin:miter;stroke-opacity:1"
         d="m 2250.755,975.34081 q 0,6.00481 1.7433,8.91036 1.9371,2.71185 6.0048,4.26147 l -5.23,16.46476 q -8.7166,-0.7748 -14.334,-4.0677 -5.4237,-3.4867 -8.3293,-10.84743 -5.2299,7.74814 -13.1718,11.62223 -7.7481,3.6803 -17.4333,3.6803 -15.3026,0 -24.2129,-8.71661 -8.9104,-8.71666 -8.9104,-22.85701 0,-16.65849 12.0096,-25.37514 12.2034,-8.91036 34.6729,-8.91036 l 12.7845,0 0,-5.8111 q 0,-9.87888 -4.6489,-13.75295 -4.4552,-4.06777 -14.5278,-4.06777 -11.2348,0 -27.1184,5.4237 l -5.8111,-16.8522 q 19.1766,-7.36073 37.191,-7.36073 39.3218,0 39.3218,35.25402 l 0,43.00216 z m -44.1644,12.00961 q 12.5907,0 19.7578,-12.59072 l 0,-20.72626 -10.2663,0 q -24.0192,0 -24.0192,17.82071 0,7.36073 3.6803,11.4285 3.6804,4.06777 10.8474,4.06777 z" />
      <path
         id="path3764"
         style="font-style:normal;font-variant:normal;font-weight:500;font-stretch:normal;font-size:medium;line-height:1000%;font-family:'Fira Sans';-inkscape-font-specification:'Fira Sans Medium';text-align:start;letter-spacing:0px;word-spacing:0px;writing-mode:lr-tb;text-anchor:start;fill:#ffffff;fill-opacity:1;stroke:none;stroke-width:1px;stroke-linecap:butt;stroke-linejoin:miter;stroke-opacity:1"
         d="m 2377.6288,947.83493 27.5059,54.62437 -25.9563,0 -21.3074,-44.9392 -11.2348,0 0,44.9392 -22.2759,0 0,-44.9392 -11.0411,0 -21.501,44.9392 -25.5689,0 27.3122,-54.62437 -24.4066,-47.84475 24.2129,0 19.564,41.06513 11.4285,0 0,-41.06513 22.2759,0 0,41.06513 11.6222,0 19.7578,-41.06513 24.0192,0 -24.4066,47.84475 z" />
      <path
         id="path3767"
         style="font-style:normal;font-variant:normal;font-weight:500;font-stretch:normal;font-size:751.63684082px;line-height:1000%;font-family:'Fira Mono';-inkscape-font-specification:'Fira Mono Medium';text-align:start;letter-spacing:0px;word-spacing:0px;writing-mode:lr-tb;text-anchor:start;fill:#ff2921;fill-opacity:1;stroke:none;stroke-width:1px;stroke-linecap:butt;stroke-linejoin:miter;stroke-opacity:1"
         d="m 2212.3173,271.32966 q 51.1113,0 87.9415,19.54256 37.5818,19.54255 57.1244,52.61458 19.5426,33.07202 19.5426,74.41204 0,45.84985 -21.0459,89.44479 -21.0458,42.8433 -68.3989,95.45788 -47.3531,51.86294 -133.7914,130.03317 l 235.2623,0 -9.0196,67.64731 -322.4522,0 0,-63.88913 q 97.7128,-93.9546 145.8175,-146.56918 48.1048,-53.36622 67.6474,-90.94806 19.5425,-37.58184 19.5425,-75.91532 0,-39.08512 -22.5491,-61.63422 -22.5491,-22.54911 -61.6342,-22.54911 -33.8237,0 -57.876,12.77783 -23.3008,12.02619 -47.3532,41.34003 l -54.1178,-42.09167 q 30.8171,-39.83675 70.6538,-59.37931 39.8368,-20.29419 94.7063,-20.29419 z" />
      <path
         style="fill:#ff2921;fill-opacity:1;fill-rule:evenodd;stroke:none"
         d="m 489.5625,1022.543 c 54.06632,112.5232 108.30597,256.5967 138.83203,361.2109 30.52293,104.6128 146.00002,46.9063 206.89063,-14.707 60.89506,-61.6108 117.6494,-178.1709 13.61914,-208.4141 -104.0239,-30.2423 -247.35092,-84.1781 -359.3418,-138.0898 z m 49.41406,40.3925 278.36133,171.7325 c 50.86213,31.3861 26.04441,62.5776 -11.31836,33.8164 z m -7.58008,13.7774 220.58204,252.8535 c 46.09799,52.8398 -51.5832,95.7096 -83.84766,12.7266 -39.3016,-101.0708 -84.11794,-164.5948 -136.73438,-265.5801 z m 397.60938,272.9726 c -23.26991,0.1636 -52.0636,13.7456 -76.04688,38.1309 -36.54709,37.1556 -48.08548,85.3248 -25.76953,107.5879 22.32218,22.2614 70.03913,10.188 106.58399,-26.9668 36.55006,-37.1568 48.08782,-85.3264 25.76562,-107.5879 -7.6711,-7.6529 -18.3442,-11.2497 -30.5332,-11.1641 z m 215.64454,107.7051 c -29.1812,0.3824 -65.6808,16.0936 -99.4609,44.1133 l 25.375,25.3145 c 27.2817,-19.005 55.7784,-23.8027 69.9043,-9.7149 17.783,17.7356 6.063,58.6809 -26.1719,91.4551 -68.0181,69.1511 -99.6024,29.592 -137.49417,-19.1328 -16.55695,37.4882 -17.03153,72.3943 2.33008,91.707 31.36789,31.2915 102.89739,9.7845 159.76949,-48.0312 56.8714,-57.8197 77.5439,-130.052 46.1778,-161.3477 -9.9928,-9.9666 -24.0598,-14.5778 -40.4297,-14.3633 z m -168.67774,24.7891 c -25.56495,-0.566 -43.02646,28.8863 -16.18555,55.5996 l 84.60349,84.1973 c 3.3013,0.1928 7.6963,-0.5349 12.7617,-2.0567 13.1388,-3.9519 28.0175,-13.2591 41.5137,-26.9785 0.6275,-0.6385 1.2516,-1.2824 1.8594,-1.9297 l -95.3457,-94.8847 c -9.65422,-9.609 -19.96015,-13.7426 -29.20704,-13.9473 z m 180.51754,164.5293 -1.955,2.0117 c -14.492,14.7299 -29.9288,27.3267 -45.5469,37.5527 l 113.4492,113.0215 97.91,94.5234 c 28.363,0.3163 96.0642,6.467 78.9192,-3.1098 l -129.0323,-130.5562 z"
         transform="translate(0,-861.02363)"
         id="path7742" />
    </g>
  </g>
</svg>
