<?xml version="1.0" encoding="UTF-8" standalone="no"?>
<svg
   xmlns:dc="http://purl.org/dc/elements/1.1/"
   xmlns:cc="http://creativecommons.org/ns#"
   xmlns:rdf="http://www.w3.org/1999/02/22-rdf-syntax-ns#"
   xmlns:svg="http://www.w3.org/2000/svg"
   xmlns="http://www.w3.org/2000/svg"
   version="1.1"
   id="svg8387"
   viewBox="0 0 21259.842 1807.0866"
   height="51cm"
   width="600cm">
  <defs
     id="defs8389" />
  <metadata
     id="metadata8392">
    <rdf:RDF>
      <cc:Work
         rdf:about="">
        <dc:format>image/svg+xml</dc:format>
        <dc:type
           rdf:resource="http://purl.org/dc/dcmitype/StillImage" />
        <dc:title></dc:title>
      </cc:Work>
    </rdf:RDF>
  </metadata>
  <flowRoot
     transform="translate(0,754.72436)"
     xml:space="preserve"
     id="flowRoot6877"
     style="font-style:normal;font-variant:normal;font-weight:normal;font-stretch:normal;font-size:11.04881573px;line-height:100%;font-family:Ubuntu;-inkscape-font-specification:'Ubuntu, Normal';text-align:start;letter-spacing:0px;word-spacing:0px;writing-mode:lr-tb;text-anchor:start;fill:#000000;fill-opacity:1;stroke:none;stroke-width:1px;stroke-linecap:butt;stroke-linejoin:miter;stroke-opacity:1"><flowRegion
       id="flowRegion6879"><rect
         id="rect6881"
         width="375.02835"
         height="122.48401"
         x="-4841.2109"
         y="5752.687" /></flowRegion><flowPara
       id="flowPara6883" /></flowRoot>  <g
     id="g7438"
     transform="matrix(0.42314323,0,0,0.44195262,-5174.4778,6271.6456)"
     style="fill:#1a1a1a">
    <g
       id="flowRoot6995"
       style="font-style:normal;font-variant:normal;font-weight:normal;font-stretch:normal;font-size:20.68664551px;line-height:100%;font-family:Ubuntu;-inkscape-font-specification:'Ubuntu, Normal';text-align:start;letter-spacing:0px;word-spacing:0px;writing-mode:lr-tb;text-anchor:start;fill:#1a1a1a;fill-opacity:1;stroke:none;stroke-width:1px;stroke-linecap:butt;stroke-linejoin:miter;stroke-opacity:1"
       transform="matrix(0.85913397,0,0,0.85913397,1006.2086,-425.11908)" />
    <g
       transform="matrix(0.89226377,0,0,0.89226377,210.13123,98.655779)"
       id="text7363"
       style="font-style:normal;font-variant:normal;font-weight:normal;font-stretch:normal;font-size:35.19487px;line-height:100%;font-family:Ubuntu;-inkscape-font-specification:'Ubuntu, Normal';text-align:start;letter-spacing:0px;word-spacing:0px;writing-mode:lr-tb;text-anchor:start;fill:#1a1a1a;fill-opacity:1;stroke:none;stroke-width:1px;stroke-linecap:butt;stroke-linejoin:miter;stroke-opacity:1" />
  </g>
  <path
     id="rect5767"
     d="m 0,-1e-5 21259.844,0 0,1807.08661 -21259.844,0 z"
     style="color:#000000;clip-rule:nonzero;display:inline;overflow:visible;visibility:visible;opacity:1;isolation:auto;mix-blend-mode:normal;color-interpolation:sRGB;color-interpolation-filters:linearRGB;solid-color:#000000;solid-opacity:1;fill:#ffffff;fill-opacity:1;fill-rule:evenodd;stroke:none;stroke-width:1px;stroke-linecap:butt;stroke-linejoin:miter;stroke-miterlimit:4;stroke-dasharray:none;stroke-dashoffset:0;stroke-opacity:1;color-rendering:auto;image-rendering:auto;shape-rendering:auto;text-rendering:auto;enable-background:accumulate" />
  <g
     id="g10961">
    <path
       id="path6903"
       style="fill:#ff372d;fill-opacity:1;fill-rule:nonzero;stroke:none"
       d="m 9465.6655,713.28606 0,446.96294 -58.7428,0 0,-496.82847 58.7428,0 0,0.30598 228.8022,0 0,-0.30598 58.746,0 0,496.82847 -58.746,0 0,-446.96294 z" />
    <path
       id="path6905"
       style="fill:#ff372d;fill-opacity:1;fill-rule:nonzero;stroke:none"
       d="m 9914.6195,945.28206 0,214.96694 -60.8063,0 0,-496.82847 111.6512,0 c 131.0056,0 196.5066,46.9248 196.5066,140.77779 0,94.05543 -66.417,141.08374 -199.2535,141.08374 z m 0,-231.69111 0,180.30347 47.4101,0 c 92.9844,0 139.4784,-29.89574 139.4784,-89.6961 0,-60.40569 -46.494,-90.60737 -139.4784,-90.60737 z" />
    <path
       id="path6907"
       style="fill:#ff372d;fill-opacity:1;fill-rule:nonzero;stroke:none"
       d="m 10279.96,910.01219 c 1.831,137.23071 53.249,205.84441 154.251,205.84441 100.087,0 151.732,-68.6137 154.938,-205.84441 -3.206,-137.02923 -54.851,-205.54387 -154.938,-205.54387 -101.002,0 -152.42,68.51464 -154.251,205.54387 z m -64.59,0 c 6.186,-171.69269 79.362,-257.5368 219.529,-257.5368 139.479,0 211.966,85.84411 217.461,257.5368 -5.495,171.28441 -77.982,256.92611 -217.461,256.92611 -140.167,0 -213.343,-85.6417 -219.529,-256.92611 z" />
    <path
       id="path6909"
       style="fill:#ff372d;fill-opacity:1;fill-rule:nonzero;stroke:none"
       d="m 10930.295,787.47521 c -112.916,6.89172 -169.372,48.14092 -169.372,123.75316 0,75.81024 56.456,117.46893 169.372,124.96603 z m 58.743,-0.30476 0,249.02405 c 113.144,-5.6746 169.715,-47.33211 169.715,-124.96602 0,-77.0308 -56.571,-118.37907 -169.715,-124.05803 z m -58.743,-50.7768 0,-72.97299 58.743,0 0,72.66815 c 154.368,7.70395 231.553,66.28704 231.553,175.74608 0,110.27231 -77.185,168.95451 -231.553,176.04761 l 0,72.3666 -58.743,0 0,-72.667 c -154.139,-10.1373 -231.209,-68.7172 -231.209,-175.74721 0,-106.62172 77.07,-165.10143 231.209,-175.44124 z" />
    <path
       id="path6911"
       style="fill:#5e890a;fill-opacity:1;fill-rule:nonzero;stroke:none"
       d="m 11622.913,661.2073 c -49.441,0.20126 -92.212,21.8946 -128.329,65.09622 l 0.629,0.29696 -162.481,210.59877 0,-273.55121 -37.075,0 0,495.78416 37.075,0 0,-162.6175 101.571,-131.42294 129.772,226.79364 c 25.175,39.9604 57.604,61.7439 97.129,65.7588 l 1.845,-37.3411 c -17.781,-0.1335 -46.014,-14.9908 -65.776,-44.3154 l -138.483,-242.68361 69.654,-90.47862 c 25.365,-28.93722 56.851,-43.51529 94.469,-43.72113 z" />
    <path
       id="path6913"
       style="fill:#5e890a;fill-opacity:1;fill-rule:nonzero;stroke:none"
       d="m 11782.211,978.21758 -58.683,181.21922 -39.014,0 160.248,-493.18232 45.141,0 160.249,493.18232 -38.692,0 -59.005,-181.21922 z m 11.285,-34.96498 147.674,0 -73.837,-227.43413 z" />
    <path
       id="path6915"
       style="fill:#5e890a;fill-opacity:1;fill-rule:nonzero;stroke:none"
       d="m 12167.671,938.99671 0,220.44009 -39.014,0 0,-493.18232 97.697,0 c 119.733,0 179.598,45.40604 179.598,136.22033 0,91.01133 -60.723,136.5219 -182.173,136.5219 z m 0,-237.16754 0,200.37564 55.462,0 c 96.085,0 144.128,-33.24479 144.128,-99.73 0,-67.09597 -48.043,-100.64565 -144.128,-100.64565 z" />
    <path
       id="path6917"
       style="fill:#5e890a;fill-opacity:1;fill-rule:nonzero;stroke:none"
       d="m 12469.376,666.25448 37.081,0 0,223.78798 219.579,0 0,-223.78798 37.08,0 0,493.18232 -37.08,0 0,-234.42939 -219.579,0 0,234.42939 -37.081,0 z" />
    <path
       id="path6919"
       style="fill:#5e890a;fill-opacity:1;fill-rule:nonzero;stroke:none"
       d="m 13214.993,666.25448 0,493.18232 -37.08,0 0,-422.33343 -281.808,422.33343 -30.309,0 0,-493.18232 37.079,0 0,416.86472 275.038,-416.86472 z" />
    <path
       id="path6921"
       style="fill:#5e890a;fill-opacity:1;fill-rule:nonzero;stroke:none"
       d="m 13454.262,670.21319 c -51.159,0 -98.66,13.09123 -142.526,39.14825 l 0,38.85436 0.954,1.64207 c 39.335,-27.36337 83.522,-41.02138 132.532,-41.02138 16.551,0 33.197,1.62106 49.964,4.86227 69.645,13.37847 104.493,46.21935 104.493,98.51829 0,39.9296 -24.75,68.90092 -74.188,86.94469 l -132.498,0 0,34.97267 138.318,0 c 45.57,18.03937 68.368,46.20179 68.368,84.51139 0,52.5003 -34.848,85.4656 -104.493,98.8451 -16.767,3.2412 -33.413,4.8612 -49.964,4.8612 -49.01,0 -93.197,-13.6877 -132.532,-41.0555 l -0.954,1.6465 0,38.851 c 43.866,26.0559 91.367,39.1516 142.526,39.1516 21.711,0 43.942,-2.5237 66.727,-7.5928 80.393,-17.6344 120.602,-62.138 120.602,-133.491 l 0,-2.7293 c -0.644,-43.1753 -21.839,-77.01001 -63.541,-101.53612 41.702,-24.53049 62.897,-58.48849 63.541,-101.86618 l 0,-2.7305 c 0,-71.14939 -40.209,-115.55944 -120.602,-133.19377 -22.785,-5.06926 -45.016,-7.59284 -66.727,-7.59284 z" />
  </g>
  <path
     id="path6897"
     style="fill:#5e890a;fill-opacity:1;fill-rule:evenodd;stroke:none"
     d="m 8529.0907,293.28442 c 160.1291,-26.14285 328.0417,23.33448 445.5178,104.78248 -16.4908,11.68909 -35.1695,13.82 -48.4886,28.39039 -117.8981,-78.2657 -264.4495,-113.98237 -415.1016,-89.38697 -272.7951,44.53449 -470.0759,272.1965 -486.8332,536.92115 26.353,296.68403 266.7706,487.16773 520.2453,266.99073 184.1941,153.6192 440.4366,-37.3676 521.4141,124.7337 9.7806,-12.7335 19.041,-25.8633 27.7386,-39.3628 6.358,-9.871 12.3936,-19.8399 18.1241,-29.9046 -114.8363,-105.8469 -416.1591,53.7604 -549.6115,-59.0047 177.8877,50.0758 486.0968,-100.6324 609.7729,-92.9978 18.199,-78.58259 10.5954,-171.6639 -10.4014,-254.47266 l 58.6306,-61.86394 c 57.5948,166.81719 23.0073,387.9857 -74.8233,531.8627 -92.8646,136.5868 -239.4413,236.2384 -415.2743,264.9434 -141.6506,23.1254 -279.9091,-3.469 -397.0545,-66.9274 42.3377,-25.8204 83.2039,-73.4969 103.8702,-158.1678 -71.6314,105.1899 -187.0918,104.9962 -247.1376,51.6539 -90.023,-89.421 -153.7094,-207.044 -175.7032,-341.8765 -14.2644,-87.44326 -9.5749,-173.59669 10.9838,-254.29568 l 0.069,-0.51095 -0.018,0.30898 c 59.4556,-233.09217 251.5914,-420.59671 504.08,-461.81616 z" />
  <path
     d="m 8509.132,866.23472 c 29.548,89.61801 17.3087,172.63808 -32.2421,194.33578 -55.9099,24.4699 -138.1255,-38.3823 -183.6449,-140.39592 -45.5138,-102.01256 -37.0967,-204.55013 18.8087,-229.02446 34.505,-15.10752 79.0217,3.06507 118.7576,43.15755 -81.5409,24.06715 -148.1548,44.65988 -93.7153,166.66751 25.8028,57.82265 72.4051,93.45347 104.0937,79.57642 25.1709,-11.02323 33.3571,-49.97668 22.7168,-94.51993 z m 893.7025,-471.4165 c -171.4814,12.70384 -383.5043,9.75436 -532.9997,-3.74521 -149.492,-13.50291 -133.6076,163.59805 -85.2465,272.67405 48.3556,109.08041 169.2506,240.5001 260.3742,122.33123 91.1191,-118.16116 232.3954,-274.79369 357.872,-391.26007 z m -76.6565,43.03328 -397.9229,238.97359 c -55.6777,33.43411 -28.1724,80.94777 37.6634,31.52572 z m -13.8518,-16.65049 -435.1968,155.59692 c -90.9464,32.51846 -96.7628,-114.29928 25.8721,-113.91299 149.3677,0.46466 253.3668,-25.03344 409.3247,-41.68393 z m -560.6954,255.76167 c 29.2551,65.55632 20.7214,132.81633 -19.053,150.22724 -39.7756,17.41979 -95.7328,-21.61179 -124.9836,-87.1725 -29.2507,-65.55304 -20.7214,-132.81191 19.0541,-150.23171 39.7744,-17.41096 95.7317,21.62064 124.9825,87.17697 z m -215.47,140.67873 -169.6379,74.50396 c -0.5242,-1.10496 -1.0356,-2.22755 -1.5385,-3.35345 -10.8,-24.20804 -15.2451,-47.9693 -13.701,-66.80434 0.5975,-7.26045 1.8742,-13.26185 3.7826,-17.39775 l 150.5287,-66.11102 c 65.0314,-28.55972 95.2376,50.76362 30.5661,79.1626 z m -471.9017,206.99669 c -10.6193,-21.9684 -21.8011,-58.17042 -26.1384,-80.98184 l 202.0012,-88.59121 c 5.253,25.17104 13.636,51.30069 25.2305,77.29387 l 1.5958,3.52072 z"
     style="fill:#ff372d;fill-opacity:1;fill-rule:evenodd;stroke:none"
     id="path6899" />
  <text
     id="text10216"
     y="1146.1617"
     x="18492.723"
     style="font-style:normal;font-variant:normal;font-weight:normal;font-stretch:normal;font-size:376.68011475px;line-height:1000%;font-family:'Fira Sans';-inkscape-font-specification:'Fira Sans';text-align:start;letter-spacing:0px;word-spacing:0px;writing-mode:lr-tb;text-anchor:start;fill:#333333;fill-opacity:1;stroke:none;stroke-width:1px;stroke-linecap:butt;stroke-linejoin:miter;stroke-opacity:1"
     xml:space="preserve"><tspan
       y="1146.1617"
       x="18492.723"
       id="tspan10218">КАРНИЗЫ</tspan></text>
  <text
     xml:space="preserve"
     style="font-style:normal;font-variant:normal;font-weight:normal;font-stretch:normal;font-size:376.68011475px;line-height:1000%;font-family:'Fira Sans';-inkscape-font-specification:'Fira Sans';text-align:start;letter-spacing:0px;word-spacing:0px;writing-mode:lr-tb;text-anchor:start;fill:#333333;fill-opacity:1;stroke:none;stroke-width:1px;stroke-linecap:butt;stroke-linejoin:miter;stroke-opacity:1"
     x="15371.833"
     y="1146.1617"
     id="text10338"><tspan
       id="tspan10340"
       x="15371.833"
       y="1146.1617">ШТОРЫ</tspan></text>
  <text
     id="text10342"
     y="1146.1617"
     x="3456.4172"
     style="font-style:normal;font-variant:normal;font-weight:normal;font-stretch:normal;font-size:376.68011475px;line-height:1000%;font-family:'Fira Sans';-inkscape-font-specification:'Fira Sans';text-align:start;letter-spacing:0px;word-spacing:0px;writing-mode:lr-tb;text-anchor:start;fill:#333333;fill-opacity:1;stroke:none;stroke-width:1px;stroke-linecap:butt;stroke-linejoin:miter;stroke-opacity:1"
     xml:space="preserve"><tspan
       y="1146.1617"
       x="3456.4172"
       id="tspan10344">РУЛОННЫЕ ШТОРЫ</tspan></text>
  <text
     xml:space="preserve"
     style="font-style:normal;font-variant:normal;font-weight:normal;font-stretch:normal;font-size:376.68011475px;line-height:1000%;font-family:'Fira Sans';-inkscape-font-specification:'Fira Sans';text-align:start;letter-spacing:0px;word-spacing:0px;writing-mode:lr-tb;text-anchor:start;fill:#333333;fill-opacity:1;stroke:none;stroke-width:1px;stroke-linecap:butt;stroke-linejoin:miter;stroke-opacity:1"
     x="718.87189"
     y="1146.1617"
     id="text10346"><tspan
       id="tspan10348"
       x="718.87189"
       y="1146.1617">ЖАЛЮЗИ</tspan></text>
  <g
     style="fill:#333333"
     id="g10886"
     transform="matrix(-2.3290663,0,0,2.3290663,19964.548,-4004.9118)">
    <path
       id="path10858"
       style="font-style:normal;font-variant:normal;font-weight:normal;font-stretch:normal;font-size:128.29293823px;line-height:1000%;font-family:'Fira Mono';-inkscape-font-specification:'Fira Mono';text-align:center;letter-spacing:0px;word-spacing:0px;writing-mode:lr-tb;text-anchor:middle;fill:#333333;fill-opacity:1;stroke:none;stroke-width:1px;stroke-linecap:butt;stroke-linejoin:miter;stroke-opacity:1"
       d="m 4122.767,2299.988 q -24.504,0 -24.504,35.1522 0,16.0367 6.6713,25.6586 6.6712,9.622 19.3722,9.622 11.0332,0 17.961,-7.6976 l 0,32.2016 10.7766,1.2829 0,-94.8085 -9.2371,0 -0.898,9.4937 q -3.7205,-5.26 -8.8523,-8.0825 -5.26,-2.8224 -11.2897,-2.8224 z m 2.5658,8.7239 q 5.1317,0 9.4937,3.079 4.2337,3.0791 7.441,7.6976 l 0,33.4845 q -2.6942,3.977 -6.6712,6.2863 -4.1054,2.181 -8.8522,2.181 -8.4674,0 -12.5728,-6.4147 -4.2336,-6.5429 -4.2336,-19.8854 0,-13.3424 3.7205,-19.8854 3.7205,-6.5429 11.6746,-6.5429 z" />
    <path
       id="path10860"
       style="font-style:normal;font-variant:normal;font-weight:normal;font-stretch:normal;font-size:128.29293823px;line-height:1000%;font-family:'Fira Mono';-inkscape-font-specification:'Fira Mono';text-align:center;letter-spacing:0px;word-spacing:0px;writing-mode:lr-tb;text-anchor:middle;fill:#333333;fill-opacity:1;stroke:none;stroke-width:1px;stroke-linecap:butt;stroke-linejoin:miter;stroke-opacity:1"
       d="m 4030.3953,2299.988 q -4.1054,0 -9.4937,1.4112 l 1.5395,22.9644 8.7239,0 0,-14.4971 0.6415,0 q 15.6517,0 22.1947,22.323 l 0,28.481 -13.7274,0 0,8.3391 35.1523,0 0,-8.3391 -10.6483,0 0,-50.9323 10.6483,0 0,-8.339 -18.7308,0 -2.0527,16.0366 q -4.1053,-8.7239 -9.7502,-13.0859 -5.7732,-4.3619 -14.4971,-4.3619 z" />
    <path
       id="path10862"
       style="font-style:normal;font-variant:normal;font-weight:normal;font-stretch:normal;font-size:128.29293823px;line-height:1000%;font-family:'Fira Mono';-inkscape-font-specification:'Fira Mono';text-align:center;letter-spacing:0px;word-spacing:0px;writing-mode:lr-tb;text-anchor:middle;fill:#333333;fill-opacity:1;stroke:none;stroke-width:1px;stroke-linecap:butt;stroke-linejoin:miter;stroke-opacity:1"
       d="m 3973.3041,2299.988 q -13.9839,0 -21.4249,9.4937 -7.5693,9.3653 -7.5693,25.6585 0,15.9084 7.6976,25.6586 7.5693,9.622 21.4249,9.622 13.984,0 21.5532,-9.3654 7.5693,-9.4937 7.5693,-25.7869 0,-16.0366 -7.5693,-25.6586 -7.6975,-9.6219 -21.6815,-9.6219 z m 0,8.8522 q 8.8522,0 13.2142,6.5429 4.362,6.543 4.362,19.8854 0,13.3425 -4.2337,19.8854 -4.362,6.4147 -13.2142,6.4147 -8.8522,0 -13.0859,-6.4147 -4.3619,-6.5429 -4.3619,-20.0137 0,-13.3424 4.3619,-19.7571 4.2337,-6.5429 12.9576,-6.5429 z" />
    <path
       id="path10864"
       style="font-style:normal;font-variant:normal;font-weight:normal;font-stretch:normal;font-size:128.29293823px;line-height:1000%;font-family:'Fira Mono';-inkscape-font-specification:'Fira Mono';text-align:center;letter-spacing:0px;word-spacing:0px;writing-mode:lr-tb;text-anchor:middle;fill:#333333;fill-opacity:1;stroke:none;stroke-width:1px;stroke-linecap:butt;stroke-linejoin:miter;stroke-opacity:1"
       d="m 3882.2154,2272.9182 q -9.622,0 -18.3459,3.5922 l 3.4639,8.0824 q 6.4146,-2.8224 14.4971,-2.8224 14.1122,0 14.1122,11.1615 l 0,13.7273 -22.8361,0 1.1546,8.5956 21.6815,0 0,53.7548 10.9049,0 0,-53.7548 16.0366,0 0,-8.5956 -16.0366,0 0,-13.4707 q 0,-9.1088 -6.9278,-14.6254 -7.0561,-5.6449 -17.7044,-5.6449 z" />
    <path
       id="path10866"
       style="font-style:normal;font-variant:normal;font-weight:normal;font-stretch:normal;font-size:128.29293823px;line-height:1000%;font-family:'Fira Mono';-inkscape-font-specification:'Fira Mono';text-align:center;letter-spacing:0px;word-spacing:0px;writing-mode:lr-tb;text-anchor:middle;fill:#333333;fill-opacity:1;stroke:none;stroke-width:1px;stroke-linecap:butt;stroke-linejoin:miter;stroke-opacity:1"
       d="m 3833.5916,2369.0096 10.7766,0 0,-94.8085 -10.7766,-1.2829 0,96.0914 z m -14.7537,-37.0767 -33.8694,37.0767 14.2405,0 33.2279,-36.9484 -30.0205,-30.662 -13.8557,0 30.2772,30.5337 z" />
    <path
       id="path10868"
       style="font-style:normal;font-variant:normal;font-weight:normal;font-stretch:normal;font-size:128.29293823px;line-height:1000%;font-family:'Fira Mono';-inkscape-font-specification:'Fira Mono';text-align:center;letter-spacing:0px;word-spacing:0px;writing-mode:lr-tb;text-anchor:middle;fill:#333333;fill-opacity:1;stroke:none;stroke-width:1px;stroke-linecap:butt;stroke-linejoin:miter;stroke-opacity:1"
       d="m 3719.6666,2354.2559 q 0,3.9771 -1.2829,5.9015 -1.2829,1.7961 -4.2337,2.6941 l 2.6942,7.6976 q 9.8785,-1.2829 12.3161,-9.622 3.5922,4.6186 9.1088,7.0561 5.3883,2.4376 12.0595,2.4376 10.1352,0 16.0367,-5.6449 5.7731,-5.6449 5.7731,-15.1386 0,-10.3917 -8.0824,-16.0366 -8.2108,-5.6449 -23.4776,-5.6449 l -10.0069,0 0,-5.5166 q 0,-7.1844 4.1054,-10.2634 4.1054,-3.2073 11.9312,-3.2073 7.6976,0 17.5762,3.4639 l 2.9507,-8.2108 q -11.9312,-4.2336 -22.1947,-4.2336 -12.3161,0 -18.7307,5.7732 -6.543,5.7731 -6.543,16.0366 l 0,32.4581 z m 27.9679,8.0824 q -5.0034,0 -9.4937,-2.5658 -4.6185,-2.5659 -7.5693,-7.0561 l 0,-17.3196 9.7503,0 q 10.7766,0 15.5234,3.5922 4.7469,3.5922 4.7469,10.5201 0,12.8292 -12.9576,12.8292 z" />
    <path
       id="path10870"
       style="font-style:normal;font-variant:normal;font-weight:normal;font-stretch:normal;font-size:128.29293823px;line-height:1000%;font-family:'Fira Mono';-inkscape-font-specification:'Fira Mono';text-align:center;letter-spacing:0px;word-spacing:0px;writing-mode:lr-tb;text-anchor:middle;fill:#333333;fill-opacity:1;stroke:none;stroke-width:1px;stroke-linecap:butt;stroke-linejoin:miter;stroke-opacity:1"
       d="m 3645.5125,2299.988 q -4.1053,0 -9.4936,1.4112 l 1.5395,22.9644 8.7239,0 0,-14.4971 0.6415,0 q 15.6517,0 22.1946,22.323 l 0,28.481 -13.7273,0 0,8.3391 35.1523,0 0,-8.3391 -10.6484,0 0,-50.9323 10.6484,0 0,-8.339 -18.7308,0 -2.0527,16.0366 q -4.1054,-8.7239 -9.7503,-13.0859 -5.7731,-4.3619 -14.4971,-4.3619 z" />
    <path
       id="path10872"
       style="font-style:normal;font-variant:normal;font-weight:normal;font-stretch:normal;font-size:128.29293823px;line-height:1000%;font-family:'Fira Mono';-inkscape-font-specification:'Fira Mono';text-align:center;letter-spacing:0px;word-spacing:0px;writing-mode:lr-tb;text-anchor:middle;fill:#333333;fill-opacity:1;stroke:none;stroke-width:1px;stroke-linecap:butt;stroke-linejoin:miter;stroke-opacity:1"
       d="m 3614.2083,2301.3992 -9.2371,0 -0.898,9.4937 q -3.9771,-5.1317 -10.0069,-7.9542 -6.1581,-2.9507 -12.3161,-2.9507 -18.9874,0 -18.9874,20.0137 l 0,49.0079 10.7766,0 0,-41.0538 q 0,-7.5692 0.8981,-11.5463 0.7697,-3.9771 3.2073,-5.9015 2.4376,-1.9244 7.441,-1.9244 5.5166,0 10.3917,3.3356 4.8752,3.3356 7.9542,7.9542 l 0,49.1362 10.7766,0 0,-67.6104 z" />
    <path
       id="path10874"
       style="font-style:normal;font-variant:normal;font-weight:normal;font-stretch:normal;font-size:128.29293823px;line-height:1000%;font-family:'Fira Mono';-inkscape-font-specification:'Fira Mono';text-align:center;letter-spacing:0px;word-spacing:0px;writing-mode:lr-tb;text-anchor:middle;fill:#333333;fill-opacity:1;stroke:none;stroke-width:1px;stroke-linecap:butt;stroke-linejoin:miter;stroke-opacity:1"
       d="m 3511.5731,2269.8391 q -3.5922,0 -5.7731,2.181 -2.181,2.0527 -2.181,5.3883 0,3.3356 2.181,5.5166 2.1809,2.0527 5.7731,2.0527 3.464,0 5.6449,-2.0527 2.0527,-2.181 2.0527,-5.5166 0,-3.3356 -2.0527,-5.3883 -2.1809,-2.181 -5.6449,-2.181 z m -8.5956,90.5749 -18.9873,0 0,8.5956 50.5474,0 0,-8.5956 -20.7835,0 0,-50.4192 20.142,0 0,-8.5956 -30.9186,0 0,59.0148 z" />
    <path
       id="path10876"
       style="font-style:normal;font-variant:normal;font-weight:normal;font-stretch:normal;font-size:128.29293823px;line-height:1000%;font-family:'Fira Mono';-inkscape-font-specification:'Fira Mono';text-align:center;letter-spacing:0px;word-spacing:0px;writing-mode:lr-tb;text-anchor:middle;fill:#333333;fill-opacity:1;stroke:none;stroke-width:1px;stroke-linecap:butt;stroke-linejoin:miter;stroke-opacity:1"
       d="m 3409.1946,2359.7725 1.2829,9.2371 49.5211,0 0,-8.2108 -37.4616,-49.9059 34.5108,0 0,-9.4937 -47.4683,0 0,8.4673 37.2049,49.906 -37.5898,0 z" />
    <path
       id="path10878"
       style="font-style:normal;font-variant:normal;font-weight:normal;font-stretch:normal;font-size:128.29293823px;line-height:1000%;font-family:'Fira Mono';-inkscape-font-specification:'Fira Mono';text-align:center;letter-spacing:0px;word-spacing:0px;writing-mode:lr-tb;text-anchor:middle;fill:#333333;fill-opacity:1;stroke:none;stroke-width:1px;stroke-linecap:butt;stroke-linejoin:miter;stroke-opacity:1"
       d="m 3369.0381,2359.131 q 0,-4.7468 -3.2073,-7.9541 -3.3356,-3.3357 -8.0825,-3.3357 -4.8751,0 -8.0824,3.3357 -3.2074,3.2073 -3.2074,7.9541 0,4.8752 3.2074,8.0825 3.2073,3.2073 8.0824,3.2073 4.7469,0 8.0825,-3.2073 3.2073,-3.3356 3.2073,-8.0825 z" />
    <path
       id="path10880"
       style="font-style:normal;font-variant:normal;font-weight:normal;font-stretch:normal;font-size:128.29293823px;line-height:1000%;font-family:'Fira Mono';-inkscape-font-specification:'Fira Mono';text-align:center;letter-spacing:0px;word-spacing:0px;writing-mode:lr-tb;text-anchor:middle;fill:#333333;fill-opacity:1;stroke:none;stroke-width:1px;stroke-linecap:butt;stroke-linejoin:miter;stroke-opacity:1"
       d="m 3275.6401,2361.1837 q -8.8522,0 -17.5761,-5.9015 l -5.1318,7.0561 q 4.2337,3.7205 10.5201,5.9015 6.2863,2.181 12.1878,2.181 15.0103,0 23.4776,-9.3654 8.339,-9.4937 8.339,-25.5303 0,-10.1351 -3.7205,-18.2176 -3.8487,-8.0824 -11.0331,-12.701 -7.1845,-4.6185 -17.063,-4.6185 -13.0859,0 -22.5796,7.9541 l 5.26,7.0562 q 8.8523,-5.9015 17.4479,-5.9015 9.1088,0 14.6254,6.7995 5.3883,6.6712 5.3883,19.6288 0,12.9576 -5.3883,19.3723 -5.5166,6.2863 -14.7537,6.2863 z" />
    <path
       id="path10882"
       style="font-style:normal;font-variant:normal;font-weight:normal;font-stretch:normal;font-size:128.29293823px;line-height:1000%;font-family:'Fira Mono';-inkscape-font-specification:'Fira Mono';text-align:center;letter-spacing:0px;word-spacing:0px;writing-mode:lr-tb;text-anchor:middle;fill:#333333;fill-opacity:1;stroke:none;stroke-width:1px;stroke-linecap:butt;stroke-linejoin:miter;stroke-opacity:1"
       d="m 3203.5387,2299.988 q -13.984,0 -21.425,9.4937 -7.5692,9.3653 -7.5692,25.6585 0,15.9084 7.6975,25.6586 7.5693,9.622 21.425,9.622 13.9839,0 21.5532,-9.3654 7.5693,-9.4937 7.5693,-25.7869 0,-16.0366 -7.5693,-25.6586 -7.6976,-9.6219 -21.6815,-9.6219 z m 0,8.8522 q 8.8522,0 13.2141,6.5429 4.362,6.543 4.362,19.8854 0,13.3425 -4.2337,19.8854 -4.3619,6.4147 -13.2141,6.4147 -8.8523,0 -13.0859,-6.4147 -4.362,-6.5429 -4.362,-20.0137 0,-13.3424 4.362,-19.7571 4.2336,-6.5429 12.9576,-6.5429 z" />
    <path
       id="path10884"
       style="font-style:normal;font-variant:normal;font-weight:normal;font-stretch:normal;font-size:128.29293823px;line-height:1000%;font-family:'Fira Mono';-inkscape-font-specification:'Fira Mono';text-align:center;letter-spacing:0px;word-spacing:0px;writing-mode:lr-tb;text-anchor:middle;fill:#333333;fill-opacity:1;stroke:none;stroke-width:1px;stroke-linecap:butt;stroke-linejoin:miter;stroke-opacity:1"
       d="m 3107.8313,2299.988 q -5.7732,0 -9.3654,4.1054 -3.7204,3.977 -3.7204,14.6253 l 0,50.2909 9.8785,0 0,-48.4948 q 0,-7.0561 0.8981,-9.4936 0.898,-2.5659 4.3619,-2.5659 6.543,0 11.803,8.0825 l 0,52.4718 10.0068,0 0,-48.4948 q 0,-7.0561 0.8981,-9.4936 0.898,-2.5659 4.3619,-2.5659 6.543,0 11.803,8.0825 l 0,52.4718 9.8785,0 0,-67.6104 -8.339,0 -0.7698,7.9542 q -3.079,-4.4903 -6.4146,-6.9279 -3.4639,-2.4375 -8.2108,-2.4375 -9.4936,0 -12.1878,8.9805 -3.079,-4.362 -6.5429,-6.6712 -3.4639,-2.3093 -8.3391,-2.3093 z" />
  </g>
</svg>
